<svg version="1.1" xmlns="http://www.w3.org/2000/svg" xmlns:xlink="http://www.w3.org/1999/xlink" width="1540" height="1015"><defs/><g><g transform="translate(2,10) scale(1,1)"><rect fill="#C0C0C0" stroke="none" x="567" y="375" width="192" height="160" opacity="0.2"/></g><g transform="translate(2,10) scale(1,1)"><rect fill="#91ffec" stroke="none" x="560" y="368" width="192" height="160"/></g><g transform="translate(2,10) scale(1,1)"><path fill="none" stroke="#000000" d="M 560 368 L 752 368 L 752 528 L 560 528 L 560 368 Z Z" stroke-miterlimit="10"/></g><g transform="translate(2,10) scale(1,1)"><path fill="none" stroke="#000000" d="M 560 393 L 752 393" stroke-miterlimit="10"/></g><g transform="translate(2,10) scale(1,1)"><path fill="none" stroke="#000000" d="M 560 461 L 752 461" stroke-miterlimit="10"/></g><g transform="translate(2,10) scale(1,1)"><g><path fill="none" stroke="none"/><text fill="#000000" stroke="none" font-family="Arial" font-size="13px" font-style="normal" font-weight="bold" text-decoration="none" x="577" y="387.5">WAScheduleViewController</text></g></g><g transform="translate(2,10) scale(1,1)"><g><path fill="none" stroke="none"/><text fill="#000000" stroke="none" font-family="Arial" font-size="13px" font-style="normal" font-weight="normal" text-decoration="none" x="565" y="410.5">+SelectDate</text></g></g><g transform="translate(2,10) scale(1,1)"><g><path fill="none" stroke="none"/><text fill="#000000" stroke="none" font-family="Arial" font-size="13px" font-style="normal" font-weight="normal" text-decoration="none" x="565" y="425.5">-tableView</text></g></g><g transform="translate(2,10) scale(1,1)"><g><path fill="none" stroke="none"/><text fill="#000000" stroke="none" font-family="Arial" font-size="13px" font-style="normal" font-weight="normal" text-decoration="none" x="565" y="440.5">-headerView</text></g></g><g transform="translate(2,10) scale(1,1)"><g><path fill="none" stroke="none"/><text fill="#000000" stroke="none" font-family="Arial" font-size="13px" font-style="normal" font-weight="normal" text-decoration="none" x="565" y="455.5">-dataArray</text></g></g><g transform="translate(2,10) scale(1,1)"><g><path fill="none" stroke="none"/><text fill="#000000" stroke="none" font-family="Arial" font-size="13px" font-style="normal" font-weight="normal" text-decoration="none" x="565" y="478.5">-fetchScheduleTeamData()</text></g></g><g transform="translate(2,10) scale(1,1)"><g><path fill="none" stroke="none"/><text fill="#000000" stroke="none" font-family="Arial" font-size="13px" font-style="normal" font-weight="normal" text-decoration="none" x="565" y="493.5">-addScheduleAction()</text></g></g><g transform="translate(2,10) scale(1,1)"><g><path fill="none" stroke="none"/><text fill="#000000" stroke="none" font-family="Arial" font-size="13px" font-style="normal" font-weight="normal" text-decoration="none" x="565" y="508.5">-editScheduleAction()</text></g></g><g transform="translate(2,10) scale(1,1)"><g><path fill="none" stroke="none"/><text fill="#000000" stroke="none" font-family="Arial" font-size="13px" font-style="normal" font-weight="normal" text-decoration="none" x="565" y="523.5">-fetchScheduleListData()</text></g></g><g transform="translate(2,10) scale(1,1)"><rect fill="#C0C0C0" stroke="none" x="399" y="79" width="150.69873046875" height="144" opacity="0.2"/></g><g transform="translate(2,10) scale(1,1)"><rect fill="#ffffff" stroke="none" x="392" y="72" width="150.69873046875" height="144"/></g><g transform="translate(2,10) scale(1,1)"><path fill="none" stroke="#000000" d="M 392 72 L 542.69873046875 72 L 542.69873046875 216 L 392 216 L 392 72 Z Z" stroke-miterlimit="10"/></g><g transform="translate(2,10) scale(1,1)"><path fill="none" stroke="#000000" d="M 392 97 L 542.69873046875 97" stroke-miterlimit="10"/></g><g transform="translate(2,10) scale(1,1)"><path fill="none" stroke="#000000" d="M 392 150 L 542.69873046875 150" stroke-miterlimit="10"/></g><g transform="translate(2,10) scale(1,1)"><g><path fill="none" stroke="none"/><text fill="#000000" stroke="none" font-family="Arial" font-size="13px" font-style="normal" font-weight="bold" text-decoration="none" x="433.349365234375" y="91.5">FDCalendar</text></g></g><g transform="translate(2,10) scale(1,1)"><g><path fill="none" stroke="none"/><text fill="#000000" stroke="none" font-family="Arial" font-size="13px" font-style="normal" font-weight="normal" text-decoration="none" x="397" y="114.5">+centerCalendarItem</text></g></g><g transform="translate(2,10) scale(1,1)"><g><path fill="none" stroke="none"/><text fill="#000000" stroke="none" font-family="Arial" font-size="13px" font-style="normal" font-weight="normal" text-decoration="none" x="397" y="129.5">+selectDateBlock</text></g></g><g transform="translate(2,10) scale(1,1)"><g><path fill="none" stroke="none"/><text fill="#000000" stroke="none" font-family="Arial" font-size="13px" font-style="normal" font-weight="normal" text-decoration="none" x="397" y="144.5">-rightCalendarItem</text></g></g><g transform="translate(2,10) scale(1,1)"><g><path fill="none" stroke="none"/><text fill="#000000" stroke="none" font-family="Arial" font-size="13px" font-style="normal" font-weight="normal" text-decoration="none" x="397" y="167.5">-setupTitleBar()</text></g></g><g transform="translate(2,10) scale(1,1)"><g><path fill="none" stroke="none"/><text fill="#000000" stroke="none" font-family="Arial" font-size="13px" font-style="normal" font-weight="normal" text-decoration="none" x="397" y="182.5">+initWithCurrentDate()</text></g></g><g transform="translate(2,10) scale(1,1)"><g><path fill="none" stroke="none"/><text fill="#000000" stroke="none" font-family="Arial" font-size="13px" font-style="normal" font-weight="normal" text-decoration="none" x="397" y="197.5">-setupCalendarItems()</text></g></g><g transform="translate(2,10) scale(1,1)"><rect fill="#C0C0C0" stroke="none" x="167" y="23" width="172.09033203125" height="104" opacity="0.2"/></g><g transform="translate(2,10) scale(1,1)"><rect fill="#ffffff" stroke="none" x="160" y="16" width="172.09033203125" height="104"/></g><g transform="translate(2,10) scale(1,1)"><path fill="none" stroke="#000000" d="M 160 16 L 332.09033203125 16 L 332.09033203125 120 L 160 120 L 160 16 Z Z" stroke-miterlimit="10"/></g><g transform="translate(2,10) scale(1,1)"><path fill="none" stroke="#000000" d="M 160 41 L 332.09033203125 41" stroke-miterlimit="10"/></g><g transform="translate(2,10) scale(1,1)"><path fill="none" stroke="#000000" d="M 160 79 L 332.09033203125 79" stroke-miterlimit="10"/></g><g transform="translate(2,10) scale(1,1)"><g><path fill="none" stroke="none"/><text fill="#000000" stroke="none" font-family="Arial" font-size="13px" font-style="normal" font-weight="bold" text-decoration="none" x="225.545166015625" y="35.5">UIView</text></g></g><g transform="translate(2,10) scale(1,1)"><g><path fill="none" stroke="none"/><text fill="#000000" stroke="none" font-family="Arial" font-size="13px" font-style="normal" font-weight="normal" text-decoration="none" x="165" y="58.5">+frame</text></g></g><g transform="translate(2,10) scale(1,1)"><g><path fill="none" stroke="none"/><text fill="#000000" stroke="none" font-family="Arial" font-size="13px" font-style="normal" font-weight="normal" text-decoration="none" x="165" y="73.5">+backGroundColor</text></g></g><g transform="translate(2,10) scale(1,1)"><g><path fill="none" stroke="none"/><text fill="#000000" stroke="none" font-family="Arial" font-size="13px" font-style="normal" font-weight="normal" text-decoration="none" x="165" y="96.5">+addSubViews()</text></g></g><g transform="translate(2,10) scale(1,1)"><g><path fill="none" stroke="none"/><text fill="#000000" stroke="none" font-family="Arial" font-size="13px" font-style="normal" font-weight="normal" text-decoration="none" x="165" y="111.5">+RemoveFromSuperView()</text></g></g><g transform="translate(2,10) scale(1,1)"><path fill="none" stroke="#000000" d="M 391 118 L 333 98" stroke-miterlimit="10"/></g><g transform="translate(2,10) scale(1,1)"><path fill="#FFFFFF" stroke="none" d="M 354.9595636023586 96.66674593795251 L 333 98 L 349.47050932344337 112.58500334680679"/></g><g transform="translate(2,10) scale(1,1)"><path fill="none" stroke="#000000" d="M 354.9595636023586 96.66674593795251 L 333 98 L 349.47050932344337 112.58500334680679 L 354.9595636023586 96.66674593795251" stroke-miterlimit="10"/></g><g transform="translate(2,10) scale(1,1)"><path fill="none" stroke="#000000" d="M 512 217 L 606 367" stroke-miterlimit="10"/></g><g transform="translate(2,10) scale(1,1)"><path fill="#000000" stroke="none" d="M 597.0364866366999 360.62383907151474 L 606 367 L 604.170465548023 356.1532122870857 L 594.3176892273613 348.3580147245126"/></g><g transform="translate(2,10) scale(1,1)"><path fill="none" stroke="#000000" d="M 597.0364866366999 360.62383907151474 L 606 367 L 604.170465548023 356.1532122870857 L 594.3176892273613 348.3580147245126 L 597.0364866366999 360.62383907151474" stroke-miterlimit="10"/></g><g transform="translate(2,10) scale(1,1)"><rect fill="#C0C0C0" stroke="none" x="207" y="279" width="206.63427734375" height="72" opacity="0.2"/></g><g transform="translate(2,10) scale(1,1)"><rect fill="#ffffff" stroke="none" x="200" y="272" width="206.63427734375" height="72"/></g><g transform="translate(2,10) scale(1,1)"><path fill="none" stroke="#000000" d="M 200 272 L 406.63427734375 272 L 406.63427734375 344 L 200 344 L 200 272 Z Z" stroke-miterlimit="10"/></g><g transform="translate(2,10) scale(1,1)"><path fill="none" stroke="#000000" d="M 200 297 L 406.63427734375 297" stroke-miterlimit="10"/></g><g transform="translate(2,10) scale(1,1)"><path fill="none" stroke="#000000" d="M 200 307 L 406.63427734375 307" stroke-miterlimit="10"/></g><g transform="translate(2,10) scale(1,1)"><g><path fill="none" stroke="none"/><text fill="#000000" stroke="none" font-family="Arial" font-size="13px" font-style="normal" font-weight="bold" text-decoration="none" x="254.817138671875" y="291.5">WAScheduleCell</text></g></g><g transform="translate(2,10) scale(1,1)"><g><path fill="none" stroke="none"/><text fill="#000000" stroke="none" font-family="Arial" font-size="13px" font-style="normal" font-weight="normal" text-decoration="none" x="205" y="324.5">+updateViewWithScheduleInfo()</text></g></g><g transform="translate(2,10) scale(1,1)"><rect fill="#C0C0C0" stroke="none" x="23" y="175" width="144" height="100" opacity="0.2"/></g><g transform="translate(2,10) scale(1,1)"><rect fill="#ffffff" stroke="none" x="16" y="168" width="144" height="100"/></g><g transform="translate(2,10) scale(1,1)"><path fill="none" stroke="#000000" d="M 16 168 L 160 168 L 160 268 L 16 268 L 16 168 Z Z" stroke-miterlimit="10"/></g><g transform="translate(2,10) scale(1,1)"><path fill="none" stroke="#000000" d="M 16 193 L 160 193" stroke-miterlimit="10"/></g><g transform="translate(2,10) scale(1,1)"><path fill="none" stroke="#000000" d="M 16 231 L 160 231" stroke-miterlimit="10"/></g><g transform="translate(2,10) scale(1,1)"><g><path fill="none" stroke="none"/><text fill="#000000" stroke="none" font-family="Arial" font-size="13px" font-style="normal" font-weight="bold" text-decoration="none" x="40.5" y="187.5">UITableViewCell</text></g></g><g transform="translate(2,10) scale(1,1)"><g><path fill="none" stroke="none"/><text fill="#000000" stroke="none" font-family="Arial" font-size="13px" font-style="normal" font-weight="normal" text-decoration="none" x="21" y="210.5">+textLabel</text></g></g><g transform="translate(2,10) scale(1,1)"><g><path fill="none" stroke="none"/><text fill="#000000" stroke="none" font-family="Arial" font-size="13px" font-style="normal" font-weight="normal" text-decoration="none" x="21" y="225.5">+imageView</text></g></g><g transform="translate(2,10) scale(1,1)"><g><path fill="none" stroke="none"/><text fill="#000000" stroke="none" font-family="Arial" font-size="13px" font-style="normal" font-weight="normal" text-decoration="none" x="21" y="248.5">+setSelected()</text></g></g><g transform="translate(2,10) scale(1,1)"><g><path fill="none" stroke="none"/><text fill="#000000" stroke="none" font-family="Arial" font-size="13px" font-style="normal" font-weight="normal" text-decoration="none" x="21" y="263.5">+awakeFromNib()</text></g></g><g transform="translate(2,10) scale(1,1)"><path fill="none" stroke="#000000" d="M 215 271 L 161 249" stroke-miterlimit="10"/></g><g transform="translate(2,10) scale(1,1)"><path fill="#FFFFFF" stroke="none" d="M 182.99962697380727 248.8718867168006 L 161 249 L 176.64667518806397 264.46549564544324"/></g><g transform="translate(2,10) scale(1,1)"><path fill="none" stroke="#000000" d="M 182.99962697380727 248.8718867168006 L 161 249 L 176.64667518806397 264.46549564544324 L 182.99962697380727 248.8718867168006" stroke-miterlimit="10"/></g><g transform="translate(2,10) scale(1,1)"><path fill="none" stroke="#000000" d="M 396 345 L 559 410" stroke-miterlimit="10"/></g><g transform="translate(2,10) scale(1,1)"><path fill="#000000" stroke="none" d="M 548.000965711564 410.14575569220284 L 559 410 L 551.1194434297904 402.32557310649673 L 538.5648781098904 401.8510250131465"/></g><g transform="translate(2,10) scale(1,1)"><path fill="none" stroke="#000000" d="M 548.000965711564 410.14575569220284 L 559 410 L 551.1194434297904 402.32557310649673 L 538.5648781098904 401.8510250131465 L 548.000965711564 410.14575569220284" stroke-miterlimit="10"/></g><g transform="translate(2,10) scale(1,1)"><rect fill="#C0C0C0" stroke="none" x="159" y="455" width="263.05224609375" height="102" opacity="0.2"/></g><g transform="translate(2,10) scale(1,1)"><rect fill="#ffffff" stroke="none" x="152" y="448" width="263.05224609375" height="102"/></g><g transform="translate(2,10) scale(1,1)"><path fill="none" stroke="#000000" d="M 152 448 L 415.05224609375 448 L 415.05224609375 550 L 152 550 L 152 448 Z Z" stroke-miterlimit="10"/></g><g transform="translate(2,10) scale(1,1)"><path fill="none" stroke="#000000" d="M 152 473 L 415.05224609375 473" stroke-miterlimit="10"/></g><g transform="translate(2,10) scale(1,1)"><path fill="none" stroke="#000000" d="M 152 483 L 415.05224609375 483" stroke-miterlimit="10"/></g><g transform="translate(2,10) scale(1,1)"><g><path fill="none" stroke="none"/><text fill="#000000" stroke="none" font-family="Arial" font-size="13px" font-style="normal" font-weight="bold" text-decoration="none" x="235.526123046875" y="467.5">NSDate Addition</text></g></g><g transform="translate(2,10) scale(1,1)"><g><path fill="none" stroke="none"/><text fill="#000000" stroke="none" font-family="Arial" font-size="13px" font-style="normal" font-weight="normal" text-decoration="none" x="157" y="500.5">+timeMMddHHmmss()</text></g></g><g transform="translate(2,10) scale(1,1)"><g><path fill="none" stroke="none"/><text fill="#000000" stroke="none" font-family="Arial" font-size="13px" font-style="normal" font-weight="normal" text-decoration="none" x="157" y="515.5">+timeMMddHHmm()</text></g></g><g transform="translate(2,10) scale(1,1)"><g><path fill="none" stroke="none"/><text fill="#000000" stroke="none" font-family="Arial" font-size="13px" font-style="normal" font-weight="normal" text-decoration="none" x="157" y="530.5">+dateTimeDifferenceWithStartTimeLate()</text></g></g><g transform="translate(2,10) scale(1,1)"><g><path fill="none" stroke="none"/><text fill="#000000" stroke="none" font-family="Arial" font-size="13px" font-style="normal" font-weight="normal" text-decoration="none" x="157" y="545.5">+timeYYYY()</text></g></g><g transform="translate(2,10) scale(1,1)"><rect fill="#C0C0C0" stroke="none" x="15" y="615" width="218.6630859375" height="115" opacity="0.2"/></g><g transform="translate(2,10) scale(1,1)"><rect fill="#ffffff" stroke="none" x="8" y="608" width="218.6630859375" height="115"/></g><g transform="translate(2,10) scale(1,1)"><path fill="none" stroke="#000000" d="M 8 608 L 226.6630859375 608 L 226.6630859375 723 L 8 723 L 8 608 Z Z" stroke-miterlimit="10"/></g><g transform="translate(2,10) scale(1,1)"><path fill="none" stroke="#000000" d="M 8 633 L 226.6630859375 633" stroke-miterlimit="10"/></g><g transform="translate(2,10) scale(1,1)"><path fill="none" stroke="#000000" d="M 8 671 L 226.6630859375 671" stroke-miterlimit="10"/></g><g transform="translate(2,10) scale(1,1)"><g><path fill="none" stroke="none"/><text fill="#000000" stroke="none" font-family="Arial" font-size="13px" font-style="normal" font-weight="bold" text-decoration="none" x="94.83154296875" y="627.5">NSDate</text></g></g><g transform="translate(2,10) scale(1,1)"><g><path fill="none" stroke="none"/><text fill="#000000" stroke="none" font-family="Arial" font-size="13px" font-style="normal" font-weight="normal" text-decoration="none" x="13" y="650.5">+timeIntervalSinceNow</text></g></g><g transform="translate(2,10) scale(1,1)"><g><path fill="none" stroke="none"/><text fill="#000000" stroke="none" font-family="Arial" font-size="13px" font-style="normal" font-weight="normal" text-decoration="none" x="13" y="665.5">+description</text></g></g><g transform="translate(2,10) scale(1,1)"><g><path fill="none" stroke="none"/><text fill="#000000" stroke="none" font-family="Arial" font-size="13px" font-style="normal" font-weight="normal" text-decoration="none" x="13" y="688.5">+timeIntervalSinceDate()</text></g></g><g transform="translate(2,10) scale(1,1)"><g><path fill="none" stroke="none"/><text fill="#000000" stroke="none" font-family="Arial" font-size="13px" font-style="normal" font-weight="normal" text-decoration="none" x="13" y="703.5">+isEqualToDate()</text></g></g><g transform="translate(2,10) scale(1,1)"><g><path fill="none" stroke="none"/><text fill="#000000" stroke="none" font-family="Arial" font-size="13px" font-style="normal" font-weight="normal" text-decoration="none" x="13" y="718.5">+dateWithTimeIntervalSinceNow()</text></g></g><g transform="translate(2,10) scale(1,1)"><path fill="none" stroke="#000000" d="M 231 551 L 175 607" stroke-miterlimit="10"/></g><g transform="translate(2,10) scale(1,1)"><path fill="#FFFFFF" stroke="none" d="M 183.41903551203197 586.6746502847517 L 175 607 L 195.3253497152483 598.580964487968"/></g><g transform="translate(2,10) scale(1,1)"><path fill="none" stroke="#000000" d="M 183.41903551203197 586.6746502847517 L 175 607 L 195.3253497152483 598.580964487968 L 183.41903551203197 586.6746502847517" stroke-miterlimit="10"/></g><g transform="translate(2,10) scale(1,1)"><path fill="none" stroke="#000000" d="M 416 481 L 559 461" stroke-miterlimit="10"/></g><g transform="translate(2,10) scale(1,1)"><path fill="#000000" stroke="none" d="M 549.5183543399972 466.5765935460773 L 559 461 L 548.3522169446517 458.2387111693564 L 537.2120633621622 464.04726386543183"/></g><g transform="translate(2,10) scale(1,1)"><path fill="none" stroke="#000000" d="M 549.5183543399972 466.5765935460773 L 559 461 L 548.3522169446517 458.2387111693564 L 537.2120633621622 464.04726386543183 L 549.5183543399972 466.5765935460773" stroke-miterlimit="10"/></g><g transform="translate(2,10) scale(1,1)"><rect fill="#C0C0C0" stroke="none" x="799" y="191" width="153.46630859375" height="130" opacity="0.2"/></g><g transform="translate(2,10) scale(1,1)"><rect fill="#ffffff" stroke="none" x="792" y="184" width="153.46630859375" height="130"/></g><g transform="translate(2,10) scale(1,1)"><path fill="none" stroke="#000000" d="M 792 184 L 945.46630859375 184 L 945.46630859375 314 L 792 314 L 792 184 Z Z" stroke-miterlimit="10"/></g><g transform="translate(2,10) scale(1,1)"><path fill="none" stroke="#000000" d="M 792 209 L 945.46630859375 209" stroke-miterlimit="10"/></g><g transform="translate(2,10) scale(1,1)"><path fill="none" stroke="#000000" d="M 792 219 L 945.46630859375 219" stroke-miterlimit="10"/></g><g transform="translate(2,10) scale(1,1)"><g><path fill="none" stroke="none"/><text fill="#000000" stroke="none" font-family="Arial" font-size="13px" font-style="normal" font-weight="bold" text-decoration="none" x="807.233154296875" y="203.5">client 请求  Schedule</text></g></g><g transform="translate(2,10) scale(1,1)"><g><path fill="none" stroke="none"/><text fill="#000000" stroke="none" font-family="Arial" font-size="13px" font-style="normal" font-weight="normal" text-decoration="none" x="797" y="236.5">+fetchScheduleList()</text></g></g><g transform="translate(2,10) scale(1,1)"><g><path fill="none" stroke="none"/><text fill="#000000" stroke="none" font-family="Arial" font-size="13px" font-style="normal" font-weight="normal" text-decoration="none" x="797" y="251.5">+fetchScheduleTeam()</text></g></g><g transform="translate(2,10) scale(1,1)"><g><path fill="none" stroke="none"/><text fill="#000000" stroke="none" font-family="Arial" font-size="13px" font-style="normal" font-weight="normal" text-decoration="none" x="797" y="266.5">+fetchCreateSchedule()</text></g></g><g transform="translate(2,10) scale(1,1)"><g><path fill="none" stroke="none"/><text fill="#000000" stroke="none" font-family="Arial" font-size="13px" font-style="normal" font-weight="normal" text-decoration="none" x="797" y="281.5">+fetchDeleteSchedule()</text></g></g><g transform="translate(2,10) scale(1,1)"><path fill="none" stroke="#000000" d="M 798 315 L 742 367" stroke-miterlimit="10"/></g><g transform="translate(2,10) scale(1,1)"><path fill="#000000" stroke="none" d="M 746.582771008294 357.0000895061236 L 742 367 L 752.3115129780683 363.1695039351113 L 758.1214568157786 352.0300758139199"/></g><g transform="translate(2,10) scale(1,1)"><path fill="none" stroke="#000000" d="M 746.582771008294 357.0000895061236 L 742 367 L 752.3115129780683 363.1695039351113 L 758.1214568157786 352.0300758139199 L 746.582771008294 357.0000895061236" stroke-miterlimit="10"/></g><g transform="translate(2,10) scale(1,1)"><rect fill="#C0C0C0" stroke="none" x="791" y="7" width="172.77587890625" height="145" opacity="0.2"/></g><g transform="translate(2,10) scale(1,1)"><rect fill="#ffffff" stroke="none" x="784" y="0" width="172.77587890625" height="145"/></g><g transform="translate(2,10) scale(1,1)"><path fill="none" stroke="#000000" d="M 784 0 L 956.77587890625 0 L 956.77587890625 145 L 784 145 L 784 0 Z Z" stroke-miterlimit="10"/></g><g transform="translate(2,10) scale(1,1)"><path fill="none" stroke="#000000" d="M 784 25 L 956.77587890625 25" stroke-miterlimit="10"/></g><g transform="translate(2,10) scale(1,1)"><path fill="none" stroke="#000000" d="M 784 63 L 956.77587890625 63" stroke-miterlimit="10"/></g><g transform="translate(2,10) scale(1,1)"><g><path fill="none" stroke="none"/><text fill="#000000" stroke="none" font-family="Arial" font-size="13px" font-style="normal" font-weight="bold" text-decoration="none" x="854.887939453125" y="19.5">client</text></g></g><g transform="translate(2,10) scale(1,1)"><g><path fill="none" stroke="none"/><text fill="#000000" stroke="none" font-family="Arial" font-size="13px" font-style="normal" font-weight="normal" text-decoration="none" x="789" y="42.5">+requestSuccess</text></g></g><g transform="translate(2,10) scale(1,1)"><g><path fill="none" stroke="none"/><text fill="#000000" stroke="none" font-family="Arial" font-size="13px" font-style="normal" font-weight="normal" text-decoration="none" x="789" y="57.5">+requestFailed</text></g></g><g transform="translate(2,10) scale(1,1)"><g><path fill="none" stroke="none"/><text fill="#000000" stroke="none" font-family="Arial" font-size="13px" font-style="normal" font-weight="normal" text-decoration="none" x="789" y="80.5">+postWithPath()</text></g></g><g transform="translate(2,10) scale(1,1)"><g><path fill="none" stroke="none"/><text fill="#000000" stroke="none" font-family="Arial" font-size="13px" font-style="normal" font-weight="normal" text-decoration="none" x="789" y="95.5">+getVersionSuccess()</text></g></g><g transform="translate(2,10) scale(1,1)"><g><path fill="none" stroke="none"/><text fill="#000000" stroke="none" font-family="Arial" font-size="13px" font-style="normal" font-weight="normal" text-decoration="none" x="789" y="110.5">+uploadImageWithImage()</text></g></g><g transform="translate(2,10) scale(1,1)"><g><path fill="none" stroke="none"/><text fill="#000000" stroke="none" font-family="Arial" font-size="13px" font-style="normal" font-weight="normal" text-decoration="none" x="789" y="125.5">+uploadVoiceData()</text></g></g><g transform="translate(2,10) scale(1,1)"><g><path fill="none" stroke="none"/><text fill="#000000" stroke="none" font-family="Arial" font-size="13px" font-style="normal" font-weight="normal" text-decoration="none" x="789" y="140.5">+uploadVedioPath()</text></g></g><g transform="translate(2,10) scale(1,1)"><path fill="none" stroke="#000000" d="M 869 183 L 869 146" stroke-miterlimit="10"/></g><g transform="translate(2,10) scale(1,1)"><path fill="#FFFFFF" stroke="none" d="M 877.419035512032 166.3253497152483 L 869 146 L 860.580964487968 166.3253497152483"/></g><g transform="translate(2,10) scale(1,1)"><path fill="none" stroke="#000000" d="M 877.419035512032 166.3253497152483 L 869 146 L 860.580964487968 166.3253497152483 L 877.419035512032 166.3253497152483" stroke-miterlimit="10"/></g><g transform="translate(2,10) scale(1,1)"><rect fill="#C0C0C0" stroke="none" x="983" y="391" width="216.3271484375" height="115" opacity="0.2"/></g><g transform="translate(2,10) scale(1,1)"><rect fill="#ff8282" stroke="none" x="976" y="384" width="216.3271484375" height="115"/></g><g transform="translate(2,10) scale(1,1)"><path fill="none" stroke="#000000" d="M 976 384 L 1192.3271484375 384 L 1192.3271484375 499 L 976 499 L 976 384 Z Z" stroke-miterlimit="10"/></g><g transform="translate(2,10) scale(1,1)"><path fill="none" stroke="#000000" d="M 976 409 L 1192.3271484375 409" stroke-miterlimit="10"/></g><g transform="translate(2,10) scale(1,1)"><path fill="none" stroke="#000000" d="M 976 462 L 1192.3271484375 462" stroke-miterlimit="10"/></g><g transform="translate(2,10) scale(1,1)"><g><path fill="none" stroke="none"/><text fill="#000000" stroke="none" font-family="Arial" font-size="13px" font-style="normal" font-weight="bold" text-decoration="none" x="993.66357421875" y="403.5">WAAddScheduleViewController</text></g></g><g transform="translate(2,10) scale(1,1)"><g><path fill="none" stroke="none"/><text fill="#000000" stroke="none" font-family="Arial" font-size="13px" font-style="normal" font-weight="normal" text-decoration="none" x="981" y="426.5">-scheduleInfo</text></g></g><g transform="translate(2,10) scale(1,1)"><g><path fill="none" stroke="none"/><text fill="#000000" stroke="none" font-family="Arial" font-size="13px" font-style="normal" font-weight="normal" text-decoration="none" x="981" y="441.5">-headerView</text></g></g><g transform="translate(2,10) scale(1,1)"><g><path fill="none" stroke="none"/><text fill="#000000" stroke="none" font-family="Arial" font-size="13px" font-style="normal" font-weight="normal" text-decoration="none" x="981" y="456.5">-teamArray</text></g></g><g transform="translate(2,10) scale(1,1)"><g><path fill="none" stroke="none"/><text fill="#000000" stroke="none" font-family="Arial" font-size="13px" font-style="normal" font-weight="normal" text-decoration="none" x="981" y="479.5">-fetchCreateScheduleData()</text></g></g><g transform="translate(2,10) scale(1,1)"><g><path fill="none" stroke="none"/><text fill="#000000" stroke="none" font-family="Arial" font-size="13px" font-style="normal" font-weight="normal" text-decoration="none" x="981" y="494.5">-setupNavUI()</text></g></g><g transform="translate(2,10) scale(1,1)"><rect fill="#C0C0C0" stroke="none" x="1303" y="207" width="232" height="160" opacity="0.2"/></g><g transform="translate(2,10) scale(1,1)"><rect fill="#ffffff" stroke="none" x="1296" y="200" width="232" height="160"/></g><g transform="translate(2,10) scale(1,1)"><path fill="none" stroke="#000000" d="M 1296 200 L 1528 200 L 1528 360 L 1296 360 L 1296 200 Z Z" stroke-miterlimit="10"/></g><g transform="translate(2,10) scale(1,1)"><path fill="none" stroke="#000000" d="M 1296 225 L 1528 225" stroke-miterlimit="10"/></g><g transform="translate(2,10) scale(1,1)"><path fill="none" stroke="#000000" d="M 1296 323 L 1528 323" stroke-miterlimit="10"/></g><g transform="translate(2,10) scale(1,1)"><g><path fill="none" stroke="none"/><text fill="#000000" stroke="none" font-family="Arial" font-size="13px" font-style="normal" font-weight="bold" text-decoration="none" x="1363.5" y="219.5">WAScheduleInfo</text></g></g><g transform="translate(2,10) scale(1,1)"><g><path fill="none" stroke="none"/><text fill="#000000" stroke="none" font-family="Arial" font-size="13px" font-style="normal" font-weight="normal" text-decoration="none" x="1301" y="242.5">+id</text></g></g><g transform="translate(2,10) scale(1,1)"><g><path fill="none" stroke="none"/><text fill="#000000" stroke="none" font-family="Arial" font-size="13px" font-style="normal" font-weight="normal" text-decoration="none" x="1301" y="257.5">+shift</text></g></g><g transform="translate(2,10) scale(1,1)"><g><path fill="none" stroke="none"/><text fill="#000000" stroke="none" font-family="Arial" font-size="13px" font-style="normal" font-weight="normal" text-decoration="none" x="1301" y="272.5">+groupId</text></g></g><g transform="translate(2,10) scale(1,1)"><g><path fill="none" stroke="none"/><text fill="#000000" stroke="none" font-family="Arial" font-size="13px" font-style="normal" font-weight="normal" text-decoration="none" x="1301" y="287.5">+groupName</text></g></g><g transform="translate(2,10) scale(1,1)"><g><path fill="none" stroke="none"/><text fill="#000000" stroke="none" font-family="Arial" font-size="13px" font-style="normal" font-weight="normal" text-decoration="none" x="1301" y="302.5">+descriptionStr</text></g></g><g transform="translate(2,10) scale(1,1)"><g><path fill="none" stroke="none"/><text fill="#000000" stroke="none" font-family="Arial" font-size="13px" font-style="normal" font-weight="normal" text-decoration="none" x="1301" y="317.5">+date</text></g></g><g transform="translate(2,10) scale(1,1)"><g><path fill="none" stroke="none"/><text fill="#000000" stroke="none" font-family="Arial" font-size="13px" font-style="normal" font-weight="normal" text-decoration="none" x="1301" y="340.5">+resetScheduleInfoModelArray()</text></g></g><g transform="translate(2,10) scale(1,1)"><rect fill="#C0C0C0" stroke="none" x="1255" y="39" width="208" height="80" opacity="0.2"/></g><g transform="translate(2,10) scale(1,1)"><rect fill="#ffffff" stroke="none" x="1248" y="32" width="208" height="80"/></g><g transform="translate(2,10) scale(1,1)"><path fill="none" stroke="#000000" d="M 1248 32 L 1456 32 L 1456 112 L 1248 112 L 1248 32 Z Z" stroke-miterlimit="10"/></g><g transform="translate(2,10) scale(1,1)"><path fill="none" stroke="#000000" d="M 1248 57 L 1456 57" stroke-miterlimit="10"/></g><g transform="translate(2,10) scale(1,1)"><path fill="none" stroke="#000000" d="M 1248 67 L 1456 67" stroke-miterlimit="10"/></g><g transform="translate(2,10) scale(1,1)"><g><path fill="none" stroke="none"/><text fill="#000000" stroke="none" font-family="Arial" font-size="13px" font-style="normal" font-weight="bold" text-decoration="none" x="1321.5" y="51.5">MTLModel</text></g></g><g transform="translate(2,10) scale(1,1)"><g><path fill="none" stroke="none"/><text fill="#000000" stroke="none" font-family="Arial" font-size="13px" font-style="normal" font-weight="normal" text-decoration="none" x="1253" y="84.5">+JSONKeyPathsByPropertyKey()</text></g></g><g transform="translate(2,10) scale(1,1)"><g><path fill="none" stroke="none"/><text fill="#000000" stroke="none" font-family="Arial" font-size="13px" font-style="normal" font-weight="normal" text-decoration="none" x="1253" y="99.5">+JSONTransformerForKey()</text></g></g><g transform="translate(2,10) scale(1,1)"><path fill="none" stroke="#000000" d="M 1389 199 L 1364 113" stroke-miterlimit="10"/></g><g transform="translate(2,10) scale(1,1)"><path fill="#FFFFFF" stroke="none" d="M 1377.7580427125718 130.16730208038086 L 1364 113 L 1361.5892895821985 134.86752101362893"/></g><g transform="translate(2,10) scale(1,1)"><path fill="none" stroke="#000000" d="M 1377.7580427125718 130.16730208038086 L 1364 113 L 1361.5892895821985 134.86752101362893 L 1377.7580427125718 130.16730208038086" stroke-miterlimit="10"/></g><g transform="translate(2,10) scale(1,1)"><path fill="none" stroke="#000000" d="M 1295 337 L 1193 387" stroke-miterlimit="10"/></g><g transform="translate(2,10) scale(1,1)"><path fill="#000000" stroke="none" d="M 1200.2724267325002 378.7470120913443 L 1193 387 L 1203.9781259734941 386.30663854297217 L 1212.7542558999935 377.3165412254934"/></g><g transform="translate(2,10) scale(1,1)"><path fill="none" stroke="#000000" d="M 1200.2724267325002 378.7470120913443 L 1193 387 L 1203.9781259734941 386.30663854297217 L 1212.7542558999935 377.3165412254934 L 1200.2724267325002 378.7470120913443" stroke-miterlimit="10"/></g><g transform="translate(2,10) scale(1,1)"><path fill="none" stroke="#000000" d="M 942 315 L 1019 383" stroke-miterlimit="10"/></g><g transform="translate(2,10) scale(1,1)"><path fill="#000000" stroke="none" d="M 1008.5960663359082 379.4281427361699 L 1019 383 L 1014.1689924477903 373.11762346242097 L 1002.509818455562 368.43724227244445"/></g><g transform="translate(2,10) scale(1,1)"><path fill="none" stroke="#000000" d="M 1008.5960663359082 379.4281427361699 L 1019 383 L 1014.1689924477903 373.11762346242097 L 1002.509818455562 368.43724227244445 L 1008.5960663359082 379.4281427361699" stroke-miterlimit="10"/></g><g transform="translate(2,10) scale(1,1)"><path fill="none" stroke="#000000" d="M 753 446 L 975 443" stroke-miterlimit="10" stroke-dasharray="3"/></g><g transform="translate(2,10) scale(1,1)"><path fill="none" stroke="#000000" d="M 964.8951331257106 447.3464543541705 L 975 443 L 964.7813727622508 438.92818745815435" stroke-miterlimit="10"/></g><g transform="translate(2,10) scale(1,1)"><rect fill="#C0C0C0" stroke="none" x="1327" y="447" width="123.39111328125" height="104" opacity="0.2"/></g><g transform="translate(2,10) scale(1,1)"><rect fill="#ffffff" stroke="none" x="1320" y="440" width="123.39111328125" height="104"/></g><g transform="translate(2,10) scale(1,1)"><path fill="none" stroke="#000000" d="M 1320 440 L 1443.39111328125 440 L 1443.39111328125 544 L 1320 544 L 1320 440 Z Z" stroke-miterlimit="10"/></g><g transform="translate(2,10) scale(1,1)"><path fill="none" stroke="#000000" d="M 1320 465 L 1443.39111328125 465" stroke-miterlimit="10"/></g><g transform="translate(2,10) scale(1,1)"><path fill="none" stroke="#000000" d="M 1320 503 L 1443.39111328125 503" stroke-miterlimit="10"/></g><g transform="translate(2,10) scale(1,1)"><g><path fill="none" stroke="none"/><text fill="#000000" stroke="none" font-family="Arial" font-size="13px" font-style="normal" font-weight="bold" text-decoration="none" x="1345.695556640625" y="459.5">HCTextView</text></g></g><g transform="translate(2,10) scale(1,1)"><g><path fill="none" stroke="none"/><text fill="#000000" stroke="none" font-family="Arial" font-size="13px" font-style="normal" font-weight="normal" text-decoration="none" x="1325" y="482.5">+placeHolder</text></g></g><g transform="translate(2,10) scale(1,1)"><g><path fill="none" stroke="none"/><text fill="#000000" stroke="none" font-family="Arial" font-size="13px" font-style="normal" font-weight="normal" text-decoration="none" x="1325" y="497.5">-placeholderLabel</text></g></g><g transform="translate(2,10) scale(1,1)"><g><path fill="none" stroke="none"/><text fill="#000000" stroke="none" font-family="Arial" font-size="13px" font-style="normal" font-weight="normal" text-decoration="none" x="1325" y="520.5">-setPlaceHolder()</text></g></g><g transform="translate(2,10) scale(1,1)"><path fill="none" stroke="#000000" d="M 1319 481 L 1193 460" stroke-miterlimit="10"/></g><g transform="translate(2,10) scale(1,1)"><path fill="#000000" stroke="none" d="M 1203.7164411855751 457.5184907181093 L 1193 460 L 1202.3323602733092 465.8229761917047 L 1214.7006663243071 463.61677772071783"/></g><g transform="translate(2,10) scale(1,1)"><path fill="none" stroke="#000000" d="M 1203.7164411855751 457.5184907181093 L 1193 460 L 1202.3323602733092 465.8229761917047 L 1214.7006663243071 463.61677772071783 L 1203.7164411855751 457.5184907181093" stroke-miterlimit="10"/></g><g transform="translate(2,10) scale(1,1)"><rect fill="#C0C0C0" stroke="none" x="711" y="663" width="248" height="144" opacity="0.2"/></g><g transform="translate(2,10) scale(1,1)"><rect fill="#ffff00" stroke="none" x="704" y="656" width="248" height="144"/></g><g transform="translate(2,10) scale(1,1)"><path fill="none" stroke="#000000" d="M 704 656 L 952 656 L 952 800 L 704 800 L 704 656 Z Z" stroke-miterlimit="10"/></g><g transform="translate(2,10) scale(1,1)"><path fill="none" stroke="#000000" d="M 704 681 L 952 681" stroke-miterlimit="10"/></g><g transform="translate(2,10) scale(1,1)"><path fill="none" stroke="#000000" d="M 704 719 L 952 719" stroke-miterlimit="10"/></g><g transform="translate(2,10) scale(1,1)"><g><path fill="none" stroke="none"/><text fill="#000000" stroke="none" font-family="Arial" font-size="13px" font-style="normal" font-weight="bold" text-decoration="none" x="737.5" y="675.5">WAScheduleEditViewController</text></g></g><g transform="translate(2,10) scale(1,1)"><g><path fill="none" stroke="none"/><text fill="#000000" stroke="none" font-family="Arial" font-size="13px" font-style="normal" font-weight="normal" text-decoration="none" x="709" y="698.5">+dataArray</text></g></g><g transform="translate(2,10) scale(1,1)"><g><path fill="none" stroke="none"/><text fill="#000000" stroke="none" font-family="Arial" font-size="13px" font-style="normal" font-weight="normal" text-decoration="none" x="709" y="713.5">+dateStr</text></g></g><g transform="translate(2,10) scale(1,1)"><g><path fill="none" stroke="none"/><text fill="#000000" stroke="none" font-family="Arial" font-size="13px" font-style="normal" font-weight="normal" text-decoration="none" x="709" y="736.5">+cellForRowAtIndexPath()</text></g></g><g transform="translate(2,10) scale(1,1)"><rect fill="#C0C0C0" stroke="none" x="927" y="887" width="224.9345703125" height="115" opacity="0.2"/></g><g transform="translate(2,10) scale(1,1)"><rect fill="#ffffff" stroke="none" x="920" y="880" width="224.9345703125" height="115"/></g><g transform="translate(2,10) scale(1,1)"><path fill="none" stroke="#000000" d="M 920 880 L 1144.9345703125 880 L 1144.9345703125 995 L 920 995 L 920 880 Z Z" stroke-miterlimit="10"/></g><g transform="translate(2,10) scale(1,1)"><path fill="none" stroke="#000000" d="M 920 905 L 1144.9345703125 905" stroke-miterlimit="10"/></g><g transform="translate(2,10) scale(1,1)"><path fill="none" stroke="#000000" d="M 920 973 L 1144.9345703125 973" stroke-miterlimit="10"/></g><g transform="translate(2,10) scale(1,1)"><g><path fill="none" stroke="none"/><text fill="#000000" stroke="none" font-family="Arial" font-size="13px" font-style="normal" font-weight="bold" text-decoration="none" x="972.46728515625" y="899.5">WAScheduleEditCell</text></g></g><g transform="translate(2,10) scale(1,1)"><g><path fill="none" stroke="none"/><text fill="#000000" stroke="none" font-family="Arial" font-size="13px" font-style="normal" font-weight="normal" text-decoration="none" x="925" y="922.5">+deleteScheduleBlock</text></g></g><g transform="translate(2,10) scale(1,1)"><g><path fill="none" stroke="none"/><text fill="#000000" stroke="none" font-family="Arial" font-size="13px" font-style="normal" font-weight="normal" text-decoration="none" x="925" y="937.5">+selectScheduleTypeBlock</text></g></g><g transform="translate(2,10) scale(1,1)"><g><path fill="none" stroke="none"/><text fill="#000000" stroke="none" font-family="Arial" font-size="13px" font-style="normal" font-weight="normal" text-decoration="none" x="925" y="952.5">+selectScheduleTeamBlock</text></g></g><g transform="translate(2,10) scale(1,1)"><g><path fill="none" stroke="none"/><text fill="#000000" stroke="none" font-family="Arial" font-size="13px" font-style="normal" font-weight="normal" text-decoration="none" x="925" y="967.5">+addScheduleDescriptionBlock</text></g></g><g transform="translate(2,10) scale(1,1)"><g><path fill="none" stroke="none"/><text fill="#000000" stroke="none" font-family="Arial" font-size="13px" font-style="normal" font-weight="normal" text-decoration="none" x="925" y="990.5">+updateViewWithWaScheduleInfo()</text></g></g><g transform="translate(2,10) scale(1,1)"><path fill="none" stroke="#000000" d="M 706 529 L 783 655" stroke-miterlimit="10" stroke-dasharray="3"/></g><g transform="translate(2,10) scale(1,1)"><path fill="none" stroke="#000000" d="M 774.1087680697705 648.523427236349 L 783 655 L 781.292578129058 644.1333210890066" stroke-miterlimit="10"/></g><g transform="translate(2,10) scale(1,1)"><path fill="none" stroke="#000000" d="M 975 879 L 899 801" stroke-miterlimit="10"/></g><g transform="translate(2,10) scale(1,1)"><path fill="#000000" stroke="none" d="M 909.1071534828754 805.3411344685002 L 899 801 L 903.0771911455154 811.2164823869535 L 914.3530239920294 816.757050939188"/></g><g transform="translate(2,10) scale(1,1)"><path fill="none" stroke="#000000" d="M 909.1071534828754 805.3411344685002 L 899 801 L 903.0771911455154 811.2164823869535 L 914.3530239920294 816.757050939188 L 909.1071534828754 805.3411344685002" stroke-miterlimit="10"/></g><g transform="translate(2,10) scale(1,1)"><rect fill="#C0C0C0" stroke="none" x="559" y="903" width="224" height="96" opacity="0.2"/></g><g transform="translate(2,10) scale(1,1)"><rect fill="#ffffff" stroke="none" x="552" y="896" width="224" height="96"/></g><g transform="translate(2,10) scale(1,1)"><path fill="none" stroke="#000000" d="M 552 896 L 776 896 L 776 992 L 552 992 L 552 896 Z Z" stroke-miterlimit="10"/></g><g transform="translate(2,10) scale(1,1)"><path fill="none" stroke="#000000" d="M 552 921 L 776 921" stroke-miterlimit="10"/></g><g transform="translate(2,10) scale(1,1)"><path fill="none" stroke="#000000" d="M 552 944 L 776 944" stroke-miterlimit="10"/></g><g transform="translate(2,10) scale(1,1)"><g><path fill="none" stroke="none"/><text fill="#000000" stroke="none" font-family="Arial" font-size="13px" font-style="normal" font-weight="bold" text-decoration="none" x="600" y="915.5">UITableViewController</text></g></g><g transform="translate(2,10) scale(1,1)"><g><path fill="none" stroke="none"/><text fill="#000000" stroke="none" font-family="Arial" font-size="13px" font-style="normal" font-weight="normal" text-decoration="none" x="557" y="938.5">+tableView</text></g></g><g transform="translate(2,10) scale(1,1)"><g><path fill="none" stroke="none"/><text fill="#000000" stroke="none" font-family="Arial" font-size="13px" font-style="normal" font-weight="normal" text-decoration="none" x="557" y="961.5">+initWithCoder()</text></g></g><g transform="translate(2,10) scale(1,1)"><g><path fill="none" stroke="none"/><text fill="#000000" stroke="none" font-family="Arial" font-size="13px" font-style="normal" font-weight="normal" text-decoration="none" x="557" y="976.5">+initWithNibName()</text></g></g><g transform="translate(2,10) scale(1,1)"><path fill="none" stroke="#000000" d="M 773 801 L 701 895" stroke-miterlimit="10"/></g><g transform="translate(2,10) scale(1,1)"><path fill="#FFFFFF" stroke="none" d="M 703.8378434456968 884.3723641115384 L 701 895 L 710.5215317491106 889.4917849396853 L 714.3776913113468 877.5346807879639"/></g><g transform="translate(2,10) scale(1,1)"><path fill="none" stroke="#000000" d="M 703.8378434456968 884.3723641115384 L 701 895 L 710.5215317491106 889.4917849396853 L 714.3776913113468 877.5346807879639 L 703.8378434456968 884.3723641115384" stroke-miterlimit="10"/></g></g></svg>