<svg version="1.1" xmlns="http://www.w3.org/2000/svg" xmlns:xlink="http://www.w3.org/1999/xlink" width="1529.076171875" height="668"><defs/><g><g transform="translate(-14,-62) scale(1,1)"><rect fill="#C0C0C0" stroke="none" x="463" y="319" width="296.904296875" height="160" opacity="0.2"/></g><g transform="translate(-14,-62) scale(1,1)"><rect fill="#d8f2ff" stroke="none" x="456" y="312" width="296.904296875" height="160"/></g><g transform="translate(-14,-62) scale(1,1)"><path fill="none" stroke="#000000" d="M 456 312 L 752.904296875 312 L 752.904296875 472 L 456 472 L 456 312 Z Z" stroke-miterlimit="10"/></g><g transform="translate(-14,-62) scale(1,1)"><path fill="none" stroke="#000000" d="M 456 337 L 752.904296875 337" stroke-miterlimit="10"/></g><g transform="translate(-14,-62) scale(1,1)"><path fill="none" stroke="#000000" d="M 456 405 L 752.904296875 405" stroke-miterlimit="10"/></g><g transform="translate(-14,-62) scale(1,1)"><g><path fill="none" stroke="none"/><text fill="#000000" stroke="none" font-family="Arial" font-size="13px" font-style="normal" font-weight="bold" text-decoration="none" x="526.9521484375" y="331.5">WAPatrolingViewController</text></g></g><g transform="translate(-14,-62) scale(1,1)"><g><path fill="none" stroke="none"/><text fill="#000000" stroke="none" font-family="Arial" font-size="13px" font-style="normal" font-weight="normal" text-decoration="none" x="461" y="354.5">+patrolInfo</text></g></g><g transform="translate(-14,-62) scale(1,1)"><g><path fill="none" stroke="none"/><text fill="#000000" stroke="none" font-family="Arial" font-size="13px" font-style="normal" font-weight="normal" text-decoration="none" x="461" y="369.5">+patrolStatus</text></g></g><g transform="translate(-14,-62) scale(1,1)"><g><path fill="none" stroke="none"/><text fill="#000000" stroke="none" font-family="Arial" font-size="13px" font-style="normal" font-weight="normal" text-decoration="none" x="461" y="384.5">-timer</text></g></g><g transform="translate(-14,-62) scale(1,1)"><g><path fill="none" stroke="none"/><text fill="#000000" stroke="none" font-family="Arial" font-size="13px" font-style="normal" font-weight="normal" text-decoration="none" x="461" y="399.5">-startPatrolDate</text></g></g><g transform="translate(-14,-62) scale(1,1)"><g><path fill="none" stroke="none"/><text fill="#000000" stroke="none" font-family="Arial" font-size="13px" font-style="normal" font-weight="normal" text-decoration="none" x="461" y="422.5">-updateViewUI更新巡逻状态UI()</text></g></g><g transform="translate(-14,-62) scale(1,1)"><g><path fill="none" stroke="none"/><text fill="#000000" stroke="none" font-family="Arial" font-size="13px" font-style="normal" font-weight="normal" text-decoration="none" x="461" y="437.5">-updateViewWithAnnotations 添加地图大头针()</text></g></g><g transform="translate(-14,-62) scale(1,1)"><g><path fill="none" stroke="none"/><text fill="#000000" stroke="none" font-family="Arial" font-size="13px" font-style="normal" font-weight="normal" text-decoration="none" x="461" y="452.5">-updateViewWithLine 实现路线绘制()</text></g></g><g transform="translate(-14,-62) scale(1,1)"><g><path fill="none" stroke="none"/><text fill="#000000" stroke="none" font-family="Arial" font-size="13px" font-style="normal" font-weight="normal" text-decoration="none" x="461" y="467.5">-fetchCreatePatrolNetwork创建巡逻()</text></g></g><g transform="translate(-14,-62) scale(1,1)"><rect fill="#C0C0C0" stroke="none" x="823" y="95" width="136" height="102" opacity="0.2"/></g><g transform="translate(-14,-62) scale(1,1)"><rect fill="#ffffff" stroke="none" x="816" y="88" width="136" height="102"/></g><g transform="translate(-14,-62) scale(1,1)"><path fill="none" stroke="#000000" d="M 816 88 L 952 88 L 952 190 L 816 190 L 816 88 Z Z" stroke-miterlimit="10"/></g><g transform="translate(-14,-62) scale(1,1)"><path fill="none" stroke="#000000" d="M 816 113 L 952 113" stroke-miterlimit="10"/></g><g transform="translate(-14,-62) scale(1,1)"><path fill="none" stroke="#000000" d="M 816 123 L 952 123" stroke-miterlimit="10"/></g><g transform="translate(-14,-62) scale(1,1)"><g><path fill="none" stroke="none"/><text fill="#000000" stroke="none" font-family="Arial" font-size="13px" font-style="normal" font-weight="bold" text-decoration="none" x="834.5" y="107.5">client 请求 Patrol</text></g></g><g transform="translate(-14,-62) scale(1,1)"><g><path fill="none" stroke="none"/><text fill="#000000" stroke="none" font-family="Arial" font-size="13px" font-style="normal" font-weight="normal" text-decoration="none" x="821" y="140.5">+fetchPatrolList()</text></g></g><g transform="translate(-14,-62) scale(1,1)"><g><path fill="none" stroke="none"/><text fill="#000000" stroke="none" font-family="Arial" font-size="13px" font-style="normal" font-weight="normal" text-decoration="none" x="821" y="155.5">+fetchStartPatrol()</text></g></g><g transform="translate(-14,-62) scale(1,1)"><g><path fill="none" stroke="none"/><text fill="#000000" stroke="none" font-family="Arial" font-size="13px" font-style="normal" font-weight="normal" text-decoration="none" x="821" y="170.5">+fetchEndPatrol()</text></g></g><g transform="translate(-14,-62) scale(1,1)"><g><path fill="none" stroke="none"/><text fill="#000000" stroke="none" font-family="Arial" font-size="13px" font-style="normal" font-weight="normal" text-decoration="none" x="821" y="185.5">+fetchPatrolDetail()</text></g></g><g transform="translate(-14,-62) scale(1,1)"><path fill="none" stroke="#000000" d="M 826 191 L 694 311" stroke-miterlimit="10"/></g><g transform="translate(-14,-62) scale(1,1)"><path fill="#000000" stroke="none" d="M 698.6881423097332 301.0490542316979 L 694 311 L 704.3513984503659 307.2786359863939 L 710.2786816147108 296.20119853208115"/></g><g transform="translate(-14,-62) scale(1,1)"><path fill="none" stroke="#000000" d="M 698.6881423097332 301.0490542316979 L 694 311 L 704.3513984503659 307.2786359863939 L 710.2786816147108 296.20119853208115 L 698.6881423097332 301.0490542316979" stroke-miterlimit="10"/></g><g transform="translate(-14,-62) scale(1,1)"><rect fill="#C0C0C0" stroke="none" x="31" y="79" width="383.9560546875" height="102" opacity="0.2"/></g><g transform="translate(-14,-62) scale(1,1)"><rect fill="#ffffff" stroke="none" x="24" y="72" width="383.9560546875" height="102"/></g><g transform="translate(-14,-62) scale(1,1)"><path fill="none" stroke="#000000" d="M 24 72 L 407.9560546875 72 L 407.9560546875 174 L 24 174 L 24 72 Z Z" stroke-miterlimit="10"/></g><g transform="translate(-14,-62) scale(1,1)"><path fill="none" stroke="#000000" d="M 24 97 L 407.9560546875 97" stroke-miterlimit="10"/></g><g transform="translate(-14,-62) scale(1,1)"><path fill="none" stroke="#000000" d="M 24 107 L 407.9560546875 107" stroke-miterlimit="10"/></g><g transform="translate(-14,-62) scale(1,1)"><g><path fill="none" stroke="none"/><text fill="#000000" stroke="none" font-family="Arial" font-size="13px" font-style="normal" font-weight="bold" text-decoration="none" x="186.47802734375" y="91.5">AMapTool</text></g></g><g transform="translate(-14,-62) scale(1,1)"><g><path fill="none" stroke="none"/><text fill="#000000" stroke="none" font-family="Arial" font-size="13px" font-style="normal" font-weight="normal" text-decoration="none" x="29" y="124.5">+sharedInstance()</text></g></g><g transform="translate(-14,-62) scale(1,1)"><g><path fill="none" stroke="none"/><text fill="#000000" stroke="none" font-family="Arial" font-size="13px" font-style="normal" font-weight="normal" text-decoration="none" x="29" y="139.5">+fetchUserPositionDataBlock定位自身位置()</text></g></g><g transform="translate(-14,-62) scale(1,1)"><g><path fill="none" stroke="none"/><text fill="#000000" stroke="none" font-family="Arial" font-size="13px" font-style="normal" font-weight="normal" text-decoration="none" x="29" y="154.5">+caculaterTwoPointDistanceWithPoint1 point2 计算两点距离()</text></g></g><g transform="translate(-14,-62) scale(1,1)"><g><path fill="none" stroke="none"/><text fill="#000000" stroke="none" font-family="Arial" font-size="13px" font-style="normal" font-weight="normal" text-decoration="none" x="29" y="169.5">+judgeIsInCircleWithPoint circleCenter distance计算点范围()</text></g></g><g transform="translate(-14,-62) scale(1,1)"><path fill="none" stroke="#000000" d="M 290 175 L 487 311" stroke-miterlimit="10"/></g><g transform="translate(-14,-62) scale(1,1)"><path fill="none" stroke="#000000" d="M 476.24516838847995 308.69054183673984 L 487 311 L 481.02821916508265 301.7621521088668" stroke-miterlimit="10"/></g><g transform="translate(-14,-62) scale(1,1)"><rect fill="#C0C0C0" stroke="none" x="47" y="287" width="301.09375" height="145" opacity="0.2"/></g><g transform="translate(-14,-62) scale(1,1)"><rect fill="#ffffff" stroke="none" x="40" y="280" width="301.09375" height="145"/></g><g transform="translate(-14,-62) scale(1,1)"><path fill="none" stroke="#000000" d="M 40 280 L 341.09375 280 L 341.09375 425 L 40 425 L 40 280 Z Z" stroke-miterlimit="10"/></g><g transform="translate(-14,-62) scale(1,1)"><path fill="none" stroke="#000000" d="M 40 305 L 341.09375 305" stroke-miterlimit="10"/></g><g transform="translate(-14,-62) scale(1,1)"><path fill="none" stroke="#000000" d="M 40 388 L 341.09375 388" stroke-miterlimit="10"/></g><g transform="translate(-14,-62) scale(1,1)"><g><path fill="none" stroke="none"/><text fill="#000000" stroke="none" font-family="Arial" font-size="13px" font-style="normal" font-weight="bold" text-decoration="none" x="154.046875" y="299.5">MAMapView</text></g></g><g transform="translate(-14,-62) scale(1,1)"><g><path fill="none" stroke="none"/><text fill="#000000" stroke="none" font-family="Arial" font-size="13px" font-style="normal" font-weight="normal" text-decoration="none" x="45" y="322.5">+zoomEnabled</text></g></g><g transform="translate(-14,-62) scale(1,1)"><g><path fill="none" stroke="none"/><text fill="#000000" stroke="none" font-family="Arial" font-size="13px" font-style="normal" font-weight="normal" text-decoration="none" x="45" y="337.5">+showsCompass</text></g></g><g transform="translate(-14,-62) scale(1,1)"><g><path fill="none" stroke="none"/><text fill="#000000" stroke="none" font-family="Arial" font-size="13px" font-style="normal" font-weight="normal" text-decoration="none" x="45" y="352.5">+showsScale</text></g></g><g transform="translate(-14,-62) scale(1,1)"><g><path fill="none" stroke="none"/><text fill="#000000" stroke="none" font-family="Arial" font-size="13px" font-style="normal" font-weight="normal" text-decoration="none" x="45" y="367.5">+zoomLevel</text></g></g><g transform="translate(-14,-62) scale(1,1)"><g><path fill="none" stroke="none"/><text fill="#000000" stroke="none" font-family="Arial" font-size="13px" font-style="normal" font-weight="normal" text-decoration="none" x="45" y="382.5">+......</text></g></g><g transform="translate(-14,-62) scale(1,1)"><g><path fill="none" stroke="none"/><text fill="#000000" stroke="none" font-family="Arial" font-size="13px" font-style="normal" font-weight="normal" text-decoration="none" x="45" y="405.5">+setCenterCoordinate animated地图中心点()</text></g></g><g transform="translate(-14,-62) scale(1,1)"><g><path fill="none" stroke="none"/><text fill="#000000" stroke="none" font-family="Arial" font-size="13px" font-style="normal" font-weight="normal" text-decoration="none" x="45" y="420.5">+setUserTrackingMode animated追踪用户模式()</text></g></g><g transform="translate(-14,-62) scale(1,1)"><path fill="none" stroke="#000000" d="M 342 367 L 455 378" stroke-miterlimit="10"/></g><g transform="translate(-14,-62) scale(1,1)"><path fill="none" stroke="#000000" d="M 444.477288522681 381.20508083596957 L 455 378 L 445.2929849645531 372.82565375128337" stroke-miterlimit="10"/></g><g transform="translate(-14,-62) scale(1,1)"><rect fill="#C0C0C0" stroke="none" x="119" y="479" width="231.56787109375" height="120" opacity="0.2"/></g><g transform="translate(-14,-62) scale(1,1)"><rect fill="#ffffff" stroke="none" x="112" y="472" width="231.56787109375" height="120"/></g><g transform="translate(-14,-62) scale(1,1)"><path fill="none" stroke="#000000" d="M 112 472 L 343.56787109375 472 L 343.56787109375 592 L 112 592 L 112 472 Z Z" stroke-miterlimit="10"/></g><g transform="translate(-14,-62) scale(1,1)"><path fill="none" stroke="#000000" d="M 112 497 L 343.56787109375 497" stroke-miterlimit="10"/></g><g transform="translate(-14,-62) scale(1,1)"><path fill="none" stroke="#000000" d="M 112 550 L 343.56787109375 550" stroke-miterlimit="10"/></g><g transform="translate(-14,-62) scale(1,1)"><g><path fill="none" stroke="none"/><text fill="#000000" stroke="none" font-family="Arial" font-size="13px" font-style="normal" font-weight="bold" text-decoration="none" x="202.283935546875" y="491.5">NSTimer</text></g></g><g transform="translate(-14,-62) scale(1,1)"><g><path fill="none" stroke="none"/><text fill="#000000" stroke="none" font-family="Arial" font-size="13px" font-style="normal" font-weight="normal" text-decoration="none" x="117" y="514.5">+fireDate</text></g></g><g transform="translate(-14,-62) scale(1,1)"><g><path fill="none" stroke="none"/><text fill="#000000" stroke="none" font-family="Arial" font-size="13px" font-style="normal" font-weight="normal" text-decoration="none" x="117" y="529.5">+timeInterval</text></g></g><g transform="translate(-14,-62) scale(1,1)"><g><path fill="none" stroke="none"/><text fill="#000000" stroke="none" font-family="Arial" font-size="13px" font-style="normal" font-weight="normal" text-decoration="none" x="117" y="544.5">+userInfo</text></g></g><g transform="translate(-14,-62) scale(1,1)"><g><path fill="none" stroke="none"/><text fill="#000000" stroke="none" font-family="Arial" font-size="13px" font-style="normal" font-weight="normal" text-decoration="none" x="117" y="567.5">+scheduledTimerWithTimeInterval()</text></g></g><g transform="translate(-14,-62) scale(1,1)"><g><path fill="none" stroke="none"/><text fill="#000000" stroke="none" font-family="Arial" font-size="13px" font-style="normal" font-weight="normal" text-decoration="none" x="117" y="582.5">+timerWithTimeInterval()</text></g></g><g transform="translate(-14,-62) scale(1,1)"><path fill="none" stroke="#000000" d="M 345 488 L 455 447" stroke-miterlimit="10"/></g><g transform="translate(-14,-62) scale(1,1)"><path fill="none" stroke="#000000" d="M 446.9474926083535 454.49380575592124 L 455 447 L 444.00709655090526 446.6049382847187" stroke-miterlimit="10"/></g><g transform="translate(-14,-62) scale(1,1)"><rect fill="#C0C0C0" stroke="none" x="895" y="319" width="208" height="160" opacity="0.2"/></g><g transform="translate(-14,-62) scale(1,1)"><rect fill="#ffd8d8" stroke="none" x="888" y="312" width="208" height="160"/></g><g transform="translate(-14,-62) scale(1,1)"><path fill="none" stroke="#000000" d="M 888 312 L 1096 312 L 1096 472 L 888 472 L 888 312 Z Z" stroke-miterlimit="10"/></g><g transform="translate(-14,-62) scale(1,1)"><path fill="none" stroke="#000000" d="M 888 337 L 1096 337" stroke-miterlimit="10"/></g><g transform="translate(-14,-62) scale(1,1)"><path fill="none" stroke="#000000" d="M 888 405 L 1096 405" stroke-miterlimit="10"/></g><g transform="translate(-14,-62) scale(1,1)"><g><path fill="none" stroke="none"/><text fill="#000000" stroke="none" font-family="Arial" font-size="13px" font-style="normal" font-weight="bold" text-decoration="none" x="911.5" y="331.5">WAPatrolEndViewController</text></g></g><g transform="translate(-14,-62) scale(1,1)"><g><path fill="none" stroke="none"/><text fill="#000000" stroke="none" font-family="Arial" font-size="13px" font-style="normal" font-weight="normal" text-decoration="none" x="893" y="354.5">+patrolInfo</text></g></g><g transform="translate(-14,-62) scale(1,1)"><g><path fill="none" stroke="none"/><text fill="#000000" stroke="none" font-family="Arial" font-size="13px" font-style="normal" font-weight="normal" text-decoration="none" x="893" y="369.5">-WAAddImageView</text></g></g><g transform="translate(-14,-62) scale(1,1)"><g><path fill="none" stroke="none"/><text fill="#000000" stroke="none" font-family="Arial" font-size="13px" font-style="normal" font-weight="normal" text-decoration="none" x="893" y="384.5">+PPRecordTool</text></g></g><g transform="translate(-14,-62) scale(1,1)"><g><path fill="none" stroke="none"/><text fill="#000000" stroke="none" font-family="Arial" font-size="13px" font-style="normal" font-weight="normal" text-decoration="none" x="893" y="399.5">+WAPatrolSuccessView</text></g></g><g transform="translate(-14,-62) scale(1,1)"><g><path fill="none" stroke="none"/><text fill="#000000" stroke="none" font-family="Arial" font-size="13px" font-style="normal" font-weight="normal" text-decoration="none" x="893" y="422.5">+fetchUploadVoiceData()</text></g></g><g transform="translate(-14,-62) scale(1,1)"><g><path fill="none" stroke="none"/><text fill="#000000" stroke="none" font-family="Arial" font-size="13px" font-style="normal" font-weight="normal" text-decoration="none" x="893" y="437.5">+addVoiceButtonGesture()</text></g></g><g transform="translate(-14,-62) scale(1,1)"><g><path fill="none" stroke="none"/><text fill="#000000" stroke="none" font-family="Arial" font-size="13px" font-style="normal" font-weight="normal" text-decoration="none" x="893" y="452.5">+deleteVoiceAction()</text></g></g><g transform="translate(-14,-62) scale(1,1)"><g><path fill="none" stroke="none"/><text fill="#000000" stroke="none" font-family="Arial" font-size="13px" font-style="normal" font-weight="normal" text-decoration="none" x="893" y="467.5">+showVoiceButton()</text></g></g><g transform="translate(-14,-62) scale(1,1)"><path fill="none" stroke="#000000" d="M 906 191 L 957 311" stroke-miterlimit="10"/></g><g transform="translate(-14,-62) scale(1,1)"><path fill="#000000" stroke="none" d="M 949.1508155059109 303.29348958491903 L 957 311 L 956.8991141912338 300.0004626436568 L 948.3949059124133 290.75271979391357"/></g><g transform="translate(-14,-62) scale(1,1)"><path fill="none" stroke="#000000" d="M 949.1508155059109 303.29348958491903 L 957 311 L 956.8991141912338 300.0004626436568 L 948.3949059124133 290.75271979391357 L 949.1508155059109 303.29348958491903" stroke-miterlimit="10"/></g><g transform="translate(-14,-62) scale(1,1)"><path fill="none" stroke="#000000" d="M 754 392 L 887 392" stroke-miterlimit="10" stroke-dasharray="3"/></g><g transform="translate(-14,-62) scale(1,1)"><path fill="none" stroke="#000000" d="M 876.8373251423759 396.209517756016 L 887 392 L 876.8373251423758 387.790482243984" stroke-miterlimit="10"/></g><g transform="translate(-14,-62) scale(1,1)"><rect fill="#C0C0C0" stroke="none" x="1271" y="79" width="231.83447265625" height="145" opacity="0.2"/></g><g transform="translate(-14,-62) scale(1,1)"><rect fill="#ffffff" stroke="none" x="1264" y="72" width="231.83447265625" height="145"/></g><g transform="translate(-14,-62) scale(1,1)"><path fill="none" stroke="#000000" d="M 1264 72 L 1495.83447265625 72 L 1495.83447265625 217 L 1264 217 L 1264 72 Z Z" stroke-miterlimit="10"/></g><g transform="translate(-14,-62) scale(1,1)"><path fill="none" stroke="#000000" d="M 1264 97 L 1495.83447265625 97" stroke-miterlimit="10"/></g><g transform="translate(-14,-62) scale(1,1)"><path fill="none" stroke="#000000" d="M 1264 165 L 1495.83447265625 165" stroke-miterlimit="10"/></g><g transform="translate(-14,-62) scale(1,1)"><g><path fill="none" stroke="none"/><text fill="#000000" stroke="none" font-family="Arial" font-size="13px" font-style="normal" font-weight="bold" text-decoration="none" x="1341.417236328125" y="91.5">WAPatrolInfo</text></g></g><g transform="translate(-14,-62) scale(1,1)"><g><path fill="none" stroke="none"/><text fill="#000000" stroke="none" font-family="Arial" font-size="13px" font-style="normal" font-weight="normal" text-decoration="none" x="1269" y="114.5">+mileage 巡逻里程</text></g></g><g transform="translate(-14,-62) scale(1,1)"><g><path fill="none" stroke="none"/><text fill="#000000" stroke="none" font-family="Arial" font-size="13px" font-style="normal" font-weight="normal" text-decoration="none" x="1269" y="129.5">+addressMap 开始巡逻地点</text></g></g><g transform="translate(-14,-62) scale(1,1)"><g><path fill="none" stroke="none"/><text fill="#000000" stroke="none" font-family="Arial" font-size="13px" font-style="normal" font-weight="normal" text-decoration="none" x="1269" y="144.5">+title 巡逻地点位置</text></g></g><g transform="translate(-14,-62) scale(1,1)"><g><path fill="none" stroke="none"/><text fill="#000000" stroke="none" font-family="Arial" font-size="13px" font-style="normal" font-weight="normal" text-decoration="none" x="1269" y="159.5">+status 0表示进行中，1表示已完成</text></g></g><g transform="translate(-14,-62) scale(1,1)"><g><path fill="none" stroke="none"/><text fill="#000000" stroke="none" font-family="Arial" font-size="13px" font-style="normal" font-weight="normal" text-decoration="none" x="1269" y="182.5">-JSONKeyPathsByPropertyKey()</text></g></g><g transform="translate(-14,-62) scale(1,1)"><g><path fill="none" stroke="none"/><text fill="#000000" stroke="none" font-family="Arial" font-size="13px" font-style="normal" font-weight="normal" text-decoration="none" x="1269" y="197.5">-addressMapJSONTransformer()</text></g></g><g transform="translate(-14,-62) scale(1,1)"><g><path fill="none" stroke="none"/><text fill="#000000" stroke="none" font-family="Arial" font-size="13px" font-style="normal" font-weight="normal" text-decoration="none" x="1269" y="212.5">+addressMapListJSONTransformer()</text></g></g><g transform="translate(-14,-62) scale(1,1)"><path fill="none" stroke="#000000" d="M 1264 218 L 1097 325" stroke-miterlimit="10"/></g><g transform="translate(-14,-62) scale(1,1)"><path fill="none" stroke="#000000" d="M 1103.2859749670995 315.97301164767566 L 1097 325 L 1107.8279002032255 323.0618108479844" stroke-miterlimit="10"/></g><g transform="translate(-14,-62) scale(1,1)"><rect fill="#C0C0C0" stroke="none" x="1271" y="263" width="250.896484375" height="130" opacity="0.2"/></g><g transform="translate(-14,-62) scale(1,1)"><rect fill="#ffffff" stroke="none" x="1264" y="256" width="250.896484375" height="130"/></g><g transform="translate(-14,-62) scale(1,1)"><path fill="none" stroke="#000000" d="M 1264 256 L 1514.896484375 256 L 1514.896484375 386 L 1264 386 L 1264 256 Z Z" stroke-miterlimit="10"/></g><g transform="translate(-14,-62) scale(1,1)"><path fill="none" stroke="#000000" d="M 1264 281 L 1514.896484375 281" stroke-miterlimit="10"/></g><g transform="translate(-14,-62) scale(1,1)"><path fill="none" stroke="#000000" d="M 1264 334 L 1514.896484375 334" stroke-miterlimit="10"/></g><g transform="translate(-14,-62) scale(1,1)"><g><path fill="none" stroke="none"/><text fill="#000000" stroke="none" font-family="Arial" font-size="13px" font-style="normal" font-weight="bold" text-decoration="none" x="1335.4482421875" y="275.5">WAAddImageView</text></g></g><g transform="translate(-14,-62) scale(1,1)"><g><path fill="none" stroke="none"/><text fill="#000000" stroke="none" font-family="Arial" font-size="13px" font-style="normal" font-weight="normal" text-decoration="none" x="1269" y="298.5">+selectImageBlock</text></g></g><g transform="translate(-14,-62) scale(1,1)"><g><path fill="none" stroke="none"/><text fill="#000000" stroke="none" font-family="Arial" font-size="13px" font-style="normal" font-weight="normal" text-decoration="none" x="1269" y="313.5">+selectVedioBlock</text></g></g><g transform="translate(-14,-62) scale(1,1)"><g><path fill="none" stroke="none"/><text fill="#000000" stroke="none" font-family="Arial" font-size="13px" font-style="normal" font-weight="normal" text-decoration="none" x="1269" y="328.5">+isVedioType</text></g></g><g transform="translate(-14,-62) scale(1,1)"><g><path fill="none" stroke="none"/><text fill="#000000" stroke="none" font-family="Arial" font-size="13px" font-style="normal" font-weight="normal" text-decoration="none" x="1269" y="351.5">+showImageWithImageUrlStringArray()</text></g></g><g transform="translate(-14,-62) scale(1,1)"><g><path fill="none" stroke="none"/><text fill="#000000" stroke="none" font-family="Arial" font-size="13px" font-style="normal" font-weight="normal" text-decoration="none" x="1269" y="366.5">+clearShowImageData()</text></g></g><g transform="translate(-14,-62) scale(1,1)"><g><path fill="none" stroke="none"/><text fill="#000000" stroke="none" font-family="Arial" font-size="13px" font-style="normal" font-weight="normal" text-decoration="none" x="1269" y="381.5">-updateImageButtonView()</text></g></g><g transform="translate(-14,-62) scale(1,1)"><path fill="none" stroke="#000000" d="M 1263 344 L 1097 373" stroke-miterlimit="10"/></g><g transform="translate(-14,-62) scale(1,1)"><path fill="none" stroke="#000000" d="M 1106.2866298058252 367.10436544131534 L 1097 373 L 1107.7354820859118 375.39779573422453" stroke-miterlimit="10"/></g><g transform="translate(-14,-62) scale(1,1)"><rect fill="#C0C0C0" stroke="none" x="1271" y="415" width="269.076171875" height="175" opacity="0.2"/></g><g transform="translate(-14,-62) scale(1,1)"><rect fill="#ffffff" stroke="none" x="1264" y="408" width="269.076171875" height="175"/></g><g transform="translate(-14,-62) scale(1,1)"><path fill="none" stroke="#000000" d="M 1264 408 L 1533.076171875 408 L 1533.076171875 583 L 1264 583 L 1264 408 Z Z" stroke-miterlimit="10"/></g><g transform="translate(-14,-62) scale(1,1)"><path fill="none" stroke="#000000" d="M 1264 433 L 1533.076171875 433" stroke-miterlimit="10"/></g><g transform="translate(-14,-62) scale(1,1)"><path fill="none" stroke="#000000" d="M 1264 486 L 1533.076171875 486" stroke-miterlimit="10"/></g><g transform="translate(-14,-62) scale(1,1)"><g><path fill="none" stroke="none"/><text fill="#000000" stroke="none" font-family="Arial" font-size="13px" font-style="normal" font-weight="bold" text-decoration="none" x="1356.5380859375" y="427.5">PPRecordTool</text></g></g><g transform="translate(-14,-62) scale(1,1)"><g><path fill="none" stroke="none"/><text fill="#000000" stroke="none" font-family="Arial" font-size="13px" font-style="normal" font-weight="normal" text-decoration="none" x="1269" y="450.5">+recorder</text></g></g><g transform="translate(-14,-62) scale(1,1)"><g><path fill="none" stroke="none"/><text fill="#000000" stroke="none" font-family="Arial" font-size="13px" font-style="normal" font-weight="normal" text-decoration="none" x="1269" y="465.5">+player</text></g></g><g transform="translate(-14,-62) scale(1,1)"><g><path fill="none" stroke="none"/><text fill="#000000" stroke="none" font-family="Arial" font-size="13px" font-style="normal" font-weight="normal" text-decoration="none" x="1269" y="480.5">-voiceView</text></g></g><g transform="translate(-14,-62) scale(1,1)"><g><path fill="none" stroke="none"/><text fill="#000000" stroke="none" font-family="Arial" font-size="13px" font-style="normal" font-weight="normal" text-decoration="none" x="1269" y="503.5">+startRecordingWithPathFile()</text></g></g><g transform="translate(-14,-62) scale(1,1)"><g><path fill="none" stroke="none"/><text fill="#000000" stroke="none" font-family="Arial" font-size="13px" font-style="normal" font-weight="normal" text-decoration="none" x="1269" y="518.5">+stopRecording()</text></g></g><g transform="translate(-14,-62) scale(1,1)"><g><path fill="none" stroke="none"/><text fill="#000000" stroke="none" font-family="Arial" font-size="13px" font-style="normal" font-weight="normal" text-decoration="none" x="1269" y="533.5">+playRecordingFileWithPath播放本地录音()</text></g></g><g transform="translate(-14,-62) scale(1,1)"><g><path fill="none" stroke="none"/><text fill="#000000" stroke="none" font-family="Arial" font-size="13px" font-style="normal" font-weight="normal" text-decoration="none" x="1269" y="548.5">+playRecordingFileWithUrl播放网络录音()</text></g></g><g transform="translate(-14,-62) scale(1,1)"><g><path fill="none" stroke="none"/><text fill="#000000" stroke="none" font-family="Arial" font-size="13px" font-style="normal" font-weight="normal" text-decoration="none" x="1269" y="563.5">+stopPlaying()</text></g></g><g transform="translate(-14,-62) scale(1,1)"><g><path fill="none" stroke="none"/><text fill="#000000" stroke="none" font-family="Arial" font-size="13px" font-style="normal" font-weight="normal" text-decoration="none" x="1269" y="578.5">+deleteOldRecordFile清除录音缓存文件()</text></g></g><g transform="translate(-14,-62) scale(1,1)"><path fill="none" stroke="#000000" d="M 1263 461 L 1097 419" stroke-miterlimit="10"/></g><g transform="translate(-14,-62) scale(1,1)"><path fill="none" stroke="#000000" d="M 1107.8847436019298 417.41180708972496 L 1097 419 L 1105.8196979890893 425.5736540357136" stroke-miterlimit="10"/></g><g transform="translate(-14,-62) scale(1,1)"><rect fill="#C0C0C0" stroke="none" x="1295" y="655" width="192.08544921875" height="72" opacity="0.2"/></g><g transform="translate(-14,-62) scale(1,1)"><rect fill="#ffffff" stroke="none" x="1288" y="648" width="192.08544921875" height="72"/></g><g transform="translate(-14,-62) scale(1,1)"><path fill="none" stroke="#000000" d="M 1288 648 L 1480.08544921875 648 L 1480.08544921875 720 L 1288 720 L 1288 648 Z Z" stroke-miterlimit="10"/></g><g transform="translate(-14,-62) scale(1,1)"><path fill="none" stroke="#000000" d="M 1288 673 L 1480.08544921875 673" stroke-miterlimit="10"/></g><g transform="translate(-14,-62) scale(1,1)"><path fill="none" stroke="#000000" d="M 1288 683 L 1480.08544921875 683" stroke-miterlimit="10"/></g><g transform="translate(-14,-62) scale(1,1)"><g><path fill="none" stroke="none"/><text fill="#000000" stroke="none" font-family="Arial" font-size="13px" font-style="normal" font-weight="bold" text-decoration="none" x="1356.042724609375" y="667.5">NSObject</text></g></g><g transform="translate(-14,-62) scale(1,1)"><g><path fill="none" stroke="none"/><text fill="#000000" stroke="none" font-family="Arial" font-size="13px" font-style="normal" font-weight="normal" text-decoration="none" x="1293" y="700.5">+isSubclassOfClass()</text></g></g><g transform="translate(-14,-62) scale(1,1)"><g><path fill="none" stroke="none"/><text fill="#000000" stroke="none" font-family="Arial" font-size="13px" font-style="normal" font-weight="normal" text-decoration="none" x="1293" y="715.5">+doesNotRecognizeSelector()</text></g></g><g transform="translate(-14,-62) scale(1,1)"><path fill="none" stroke="#000000" d="M 1391 584 L 1387 647" stroke-miterlimit="10"/></g><g transform="translate(-14,-62) scale(1,1)"><path fill="#FFFFFF" stroke="none" d="M 1383.4428940078058 636.5910136439567 L 1387 647 L 1391.8450110691567 637.1244813938837 L 1388.394018410021 625.044210042166"/></g><g transform="translate(-14,-62) scale(1,1)"><path fill="none" stroke="#000000" d="M 1383.4428940078058 636.5910136439567 L 1387 647 L 1391.8450110691567 637.1244813938837 L 1388.394018410021 625.044210042166 L 1383.4428940078058 636.5910136439567" stroke-miterlimit="10"/></g><g transform="translate(-14,-62) scale(1,1)"><rect fill="#C0C0C0" stroke="none" x="919" y="615" width="153.91064453125" height="70" opacity="0.2"/></g><g transform="translate(-14,-62) scale(1,1)"><rect fill="#ffffff" stroke="none" x="912" y="608" width="153.91064453125" height="70"/></g><g transform="translate(-14,-62) scale(1,1)"><path fill="none" stroke="#000000" d="M 912 608 L 1065.91064453125 608 L 1065.91064453125 678 L 912 678 L 912 608 Z Z" stroke-miterlimit="10"/></g><g transform="translate(-14,-62) scale(1,1)"><path fill="none" stroke="#000000" d="M 912 633 L 1065.91064453125 633" stroke-miterlimit="10"/></g><g transform="translate(-14,-62) scale(1,1)"><path fill="none" stroke="#000000" d="M 912 656 L 1065.91064453125 656" stroke-miterlimit="10"/></g><g transform="translate(-14,-62) scale(1,1)"><g><path fill="none" stroke="none"/><text fill="#000000" stroke="none" font-family="Arial" font-size="13px" font-style="normal" font-weight="bold" text-decoration="none" x="921.955322265625" y="627.5">WAPatrolSuccessView</text></g></g><g transform="translate(-14,-62) scale(1,1)"><g><path fill="none" stroke="none"/><text fill="#000000" stroke="none" font-family="Arial" font-size="13px" font-style="normal" font-weight="normal" text-decoration="none" x="917" y="650.5">+makeSureBlock</text></g></g><g transform="translate(-14,-62) scale(1,1)"><g><path fill="none" stroke="none"/><text fill="#000000" stroke="none" font-family="Arial" font-size="13px" font-style="normal" font-weight="normal" text-decoration="none" x="917" y="673.5">-makeSureAction()</text></g></g><g transform="translate(-14,-62) scale(1,1)"><path fill="none" stroke="#000000" d="M 989 607 L 991 473" stroke-miterlimit="10"/></g><g transform="translate(-14,-62) scale(1,1)"><path fill="none" stroke="#000000" d="M 995.0573841417227 483.22436471994706 L 991 473 L 986.6392862136918 483.09872146728986" stroke-miterlimit="10"/></g></g></svg>