<svg version="1.1" xmlns="http://www.w3.org/2000/svg" xmlns:xlink="http://www.w3.org/1999/xlink" width="365" height="765"><defs/><g><g transform="translate(-450,-38) scale(1,1)"><path fill="#C0C0C0" stroke="none" d="M 527 64.5 C 527 59.2532944 531.2532944 55 536.5 55 C 541.7467056 55 546 59.2532944 546 64.5 C 546 69.7467056 541.7467056 74 536.5 74 C 531.2532944 74 527 69.7467056 527 64.5 Z" opacity="0.2"/></g><g transform="translate(-450,-38) scale(1,1)"><path fill="#000000" stroke="none" d="M 520 57.5 C 520 52.2532944 524.2532944 48 529.5 48 C 534.7467056 48 539 52.2532944 539 57.5 C 539 62.7467056 534.7467056 67 529.5 67 C 524.2532944 67 520 62.7467056 520 57.5 Z"/></g><g transform="translate(-450,-38) scale(1,1)"><path fill="#C0C0C0" stroke="none" d="M 489 135 L 580 135 Q 590 135 590 145 L 590 165 Q 590 175 580 175 L 489 175 Q 479 175 479 165 L 479 145 Q 479 135 489 135 Z" opacity="0.2"/></g><g transform="translate(-450,-38) scale(1,1)"><path fill="#ffffff" stroke="none" d="M 482 128 L 573 128 Q 583 128 583 138 L 583 158 Q 583 168 573 168 L 482 168 Q 472 168 472 158 L 472 138 Q 472 128 482 128 Z"/></g><g transform="translate(-450,-38) scale(1,1)"><path fill="none" stroke="#000000" d="M 482 128 L 573 128 Q 583 128 583 138 L 583 158 Q 583 168 573 168 L 482 168 Q 472 168 472 158 L 472 138 Q 472 128 482 128 Z" stroke-miterlimit="10"/></g><g transform="translate(-450,-38) scale(1,1)"><g><path fill="none" stroke="none"/><text fill="#000000" stroke="none" font-family="Arial" font-size="13px" font-style="normal" font-weight="bold" text-decoration="none" x="501.5" y="147.5">我的任务</text></g></g><g transform="translate(-450,-38) scale(1,1)"><path fill="none" stroke="#000000" d="M 529 68 L 527 127" stroke-miterlimit="10"/></g><g transform="translate(-450,-38) scale(1,1)"><path fill="none" stroke="#000000" d="M 523.1371984227445 116.70054545256147 L 527 127 L 531.551400963361 116.98577265732813" stroke-miterlimit="10"/></g><g transform="translate(-450,-38) scale(1,1)"><g><path fill="none" stroke="none"/><text fill="#000000" stroke="none" font-family="Arial" font-size="13px" font-style="normal" font-weight="normal" text-decoration="none" x="528.5" y="103.5">开始</text></g></g><g transform="translate(-450,-38) scale(1,1)"><path fill="#C0C0C0" stroke="none" d="M 497 327 L 573 327 Q 583 327 583 337 L 583 357 Q 583 367 573 367 L 497 367 Q 487 367 487 357 L 487 337 Q 487 327 497 327 Z" opacity="0.2"/></g><g transform="translate(-450,-38) scale(1,1)"><path fill="#ffffff" stroke="none" d="M 490 320 L 566 320 Q 576 320 576 330 L 576 350 Q 576 360 566 360 L 490 360 Q 480 360 480 350 L 480 330 Q 480 320 490 320 Z"/></g><g transform="translate(-450,-38) scale(1,1)"><path fill="none" stroke="#000000" d="M 490 320 L 566 320 Q 576 320 576 330 L 576 350 Q 576 360 566 360 L 490 360 Q 480 360 480 350 L 480 330 Q 480 320 490 320 Z" stroke-miterlimit="10"/></g><g transform="translate(-450,-38) scale(1,1)"><g><path fill="none" stroke="none"/><text fill="#000000" stroke="none" font-family="Arial" font-size="13px" font-style="normal" font-weight="bold" text-decoration="none" x="515" y="339.5">签到</text></g></g><g transform="translate(-450,-38) scale(1,1)"><path fill="none" stroke="#000000" d="M 528 265 L 528 319" stroke-miterlimit="10"/></g><g transform="translate(-450,-38) scale(1,1)"><path fill="none" stroke="#000000" d="M 523.790482243984 308.83732514237585 L 528 319 L 532.209517756016 308.83732514237585" stroke-miterlimit="10"/></g><g transform="translate(-450,-38) scale(1,1)"><g><path fill="none" stroke="none"/><text fill="#000000" stroke="none" font-family="Arial" font-size="13px" font-style="normal" font-weight="normal" text-decoration="none" x="515.5" y="297.5">任务签到</text></g></g><g transform="translate(-450,-38) scale(1,1)"><path fill="#C0C0C0" stroke="none" d="M 487 451.5 L 539.5 423 L 591 451.5 L 539.5 479 L 487 451.5" opacity="0.2"/></g><g transform="translate(-450,-38) scale(1,1)"><path fill="#ffffff" stroke="none" d="M 480 444 L 532 416 L 584 444 L 532 472 L 480 444"/></g><g transform="translate(-450,-38) scale(1,1)"><path fill="none" stroke="#000000" d="M 480 444 L 532 416 L 584 444 L 532 472 L 480 444 L 480 444" stroke-miterlimit="10"/></g><g transform="translate(-450,-38) scale(1,1)"><path fill="#C0C0C0" stroke="none" d="M 497 231 L 573 231 Q 583 231 583 241 L 583 261 Q 583 271 573 271 L 497 271 Q 487 271 487 261 L 487 241 Q 487 231 497 231 Z" opacity="0.2"/></g><g transform="translate(-450,-38) scale(1,1)"><path fill="#ffffff" stroke="none" d="M 490 224 L 566 224 Q 576 224 576 234 L 576 254 Q 576 264 566 264 L 490 264 Q 480 264 480 254 L 480 234 Q 480 224 490 224 Z"/></g><g transform="translate(-450,-38) scale(1,1)"><path fill="none" stroke="#000000" d="M 490 224 L 566 224 Q 576 224 576 234 L 576 254 Q 576 264 566 264 L 490 264 Q 480 264 480 254 L 480 234 Q 480 224 490 224 Z" stroke-miterlimit="10"/></g><g transform="translate(-450,-38) scale(1,1)"><g><path fill="none" stroke="none"/><text fill="#000000" stroke="none" font-family="Arial" font-size="13px" font-style="normal" font-weight="bold" text-decoration="none" x="489" y="243.5">定位当前位置</text></g></g><g transform="translate(-450,-38) scale(1,1)"><path fill="none" stroke="#000000" d="M 527 169 L 528 223" stroke-miterlimit="10"/></g><g transform="translate(-450,-38) scale(1,1)"><path fill="none" stroke="#000000" d="M 523.603038433977 212.91700793479853 L 528 223 L 532.0206307240026 212.76112659609436" stroke-miterlimit="10"/></g><g transform="translate(-450,-38) scale(1,1)"><g><path fill="none" stroke="none"/><text fill="#000000" stroke="none" font-family="Arial" font-size="13px" font-style="normal" font-weight="normal" text-decoration="none" x="501.5" y="201.5">定位当前数据</text></g></g><g transform="translate(-450,-38) scale(1,1)"><path fill="none" stroke="#000000" d="M 529 361 L 531 415" stroke-miterlimit="10"/></g><g transform="translate(-450,-38) scale(1,1)"><path fill="none" stroke="#000000" d="M 526.417228991706 405.0000895061236 L 531 415 L 534.8304960648887 404.6884870219316" stroke-miterlimit="10"/></g><g transform="translate(-450,-38) scale(1,1)"><g><path fill="none" stroke="none"/><text fill="#000000" stroke="none" font-family="Arial" font-size="13px" font-style="normal" font-weight="normal" text-decoration="none" x="459.5" y="393.5">判断是否到达巡逻任务的范围</text></g></g><g transform="translate(-450,-38) scale(1,1)"><path fill="#C0C0C0" stroke="none" d="M 761 431 L 802 431 Q 812 431 812 441 L 812 461 Q 812 471 802 471 L 761 471 Q 751 471 751 461 L 751 441 Q 751 431 761 431 Z" opacity="0.2"/></g><g transform="translate(-450,-38) scale(1,1)"><path fill="#ffffff" stroke="none" d="M 754 424 L 795 424 Q 805 424 805 434 L 805 454 Q 805 464 795 464 L 754 464 Q 744 464 744 454 L 744 434 Q 744 424 754 424 Z"/></g><g transform="translate(-450,-38) scale(1,1)"><path fill="none" stroke="#000000" d="M 754 424 L 795 424 Q 805 424 805 434 L 805 454 Q 805 464 795 464 L 754 464 Q 744 464 744 454 L 744 434 Q 744 424 754 424 Z" stroke-miterlimit="10"/></g><g transform="translate(-450,-38) scale(1,1)"><g><path fill="none" stroke="none"/><text fill="#000000" stroke="none" font-family="Arial" font-size="13px" font-style="normal" font-weight="bold" text-decoration="none" x="748.5" y="443.5">签到失败</text></g></g><g transform="translate(-450,-38) scale(1,1)"><path fill="none" stroke="#000000" d="M 585 444 L 743 444" stroke-miterlimit="10"/></g><g transform="translate(-450,-38) scale(1,1)"><path fill="none" stroke="#000000" d="M 732.8373251423759 448.209517756016 L 743 444 L 732.8373251423758 439.790482243984" stroke-miterlimit="10"/></g><g transform="translate(-450,-38) scale(1,1)"><g><path fill="none" stroke="none"/><text fill="#000000" stroke="none" font-family="Arial" font-size="13px" font-style="normal" font-weight="normal" text-decoration="none" x="605.5" y="435.5">未到达巡逻起点范围</text></g></g><g transform="translate(-450,-38) scale(1,1)"><path fill="none" stroke="#000000" d="M 776 424 L 776 244 L 576 244" stroke-miterlimit="10"/></g><g transform="translate(-450,-38) scale(1,1)"><path fill="none" stroke="#000000" d="M 586.1626748576241 239.790482243984 L 576 244 L 586.1626748576241 248.209517756016" stroke-miterlimit="10"/></g><g transform="translate(-450,-38) scale(1,1)"><g><path fill="none" stroke="none"/><text fill="#000000" stroke="none" font-family="Arial" font-size="13px" font-style="normal" font-weight="normal" text-decoration="none" x="702.5" y="235.5">刷新当前位置</text></g></g><g transform="translate(-450,-38) scale(1,1)"><path fill="#C0C0C0" stroke="none" d="M 505 551 L 573 551 Q 583 551 583 561 L 583 581 Q 583 591 573 591 L 505 591 Q 495 591 495 581 L 495 561 Q 495 551 505 551 Z" opacity="0.2"/></g><g transform="translate(-450,-38) scale(1,1)"><path fill="#ffffff" stroke="none" d="M 498 544 L 566 544 Q 576 544 576 554 L 576 574 Q 576 584 566 584 L 498 584 Q 488 584 488 574 L 488 554 Q 488 544 498 544 Z"/></g><g transform="translate(-450,-38) scale(1,1)"><path fill="none" stroke="#000000" d="M 498 544 L 566 544 Q 576 544 576 554 L 576 574 Q 576 584 566 584 L 498 584 Q 488 584 488 574 L 488 554 Q 488 544 498 544 Z" stroke-miterlimit="10"/></g><g transform="translate(-450,-38) scale(1,1)"><g><path fill="none" stroke="none"/><text fill="#000000" stroke="none" font-family="Arial" font-size="13px" font-style="normal" font-weight="bold" text-decoration="none" x="506" y="563.5">签到成功</text></g></g><g transform="translate(-450,-38) scale(1,1)"><path fill="none" stroke="#000000" d="M 532 473 L 532 543" stroke-miterlimit="10"/></g><g transform="translate(-450,-38) scale(1,1)"><path fill="none" stroke="#000000" d="M 527.790482243984 532.8373251423759 L 532 543 L 536.209517756016 532.8373251423759" stroke-miterlimit="10"/></g><g transform="translate(-450,-38) scale(1,1)"><g><path fill="none" stroke="none"/><text fill="#000000" stroke="none" font-family="Arial" font-size="13px" font-style="normal" font-weight="normal" text-decoration="none" x="493.5" y="513.5">到达巡逻起点范围</text></g></g><g transform="translate(-450,-38) scale(1,1)"><path fill="#C0C0C0" stroke="none" d="M 489 655 L 595 655 Q 605 655 605 665 L 605 685 Q 605 695 595 695 L 489 695 Q 479 695 479 685 L 479 665 Q 479 655 489 655 Z" opacity="0.2"/></g><g transform="translate(-450,-38) scale(1,1)"><path fill="#ffffff" stroke="none" d="M 482 648 L 588 648 Q 598 648 598 658 L 598 678 Q 598 688 588 688 L 482 688 Q 472 688 472 678 L 472 658 Q 472 648 482 648 Z"/></g><g transform="translate(-450,-38) scale(1,1)"><path fill="none" stroke="#000000" d="M 482 648 L 588 648 Q 598 648 598 658 L 598 678 Q 598 688 588 688 L 482 688 Q 472 688 472 678 L 472 658 Q 472 648 482 648 Z" stroke-miterlimit="10"/></g><g transform="translate(-450,-38) scale(1,1)"><g><path fill="none" stroke="none"/><text fill="#000000" stroke="none" font-family="Arial" font-size="13px" font-style="normal" font-weight="bold" text-decoration="none" x="476.5" y="667.5">上报任务期间的情况</text></g></g><g transform="translate(-450,-38) scale(1,1)"><path fill="#C0C0C0" stroke="none" d="M 527 787.5 C 527 780.59644 532.59644 775 539.5 775 C 546.40356 775 552 780.59644 552 787.5 C 552 794.40356 546.40356 800 539.5 800 C 532.59644 800 527 794.40356 527 787.5 Z" opacity="0.2"/></g><g transform="translate(-450,-38) scale(1,1)"><path fill="none" stroke="#000000" d="M 520 780.5 C 520 773.59644 525.59644 768 532.5 768 C 539.40356 768 545 773.59644 545 780.5 C 545 787.40356 539.40356 793 532.5 793 C 525.59644 793 520 787.40356 520 780.5 Z" stroke-miterlimit="10"/></g><g transform="translate(-450,-38) scale(1,1)"><path fill="#000000" stroke="none" d="M 525 780.5 C 525 776.357864 528.357864 773 532.5 773 C 536.642136 773 540 776.357864 540 780.5 C 540 784.642136 536.642136 788 532.5 788 C 528.357864 788 525 784.642136 525 780.5 Z"/></g><g transform="translate(-450,-38) scale(1,1)"><path fill="none" stroke="#000000" d="M 533 585 L 534 647" stroke-miterlimit="10"/></g><g transform="translate(-450,-38) scale(1,1)"><path fill="none" stroke="#000000" d="M 529.6271368871173 636.9065333905545 L 534 647 L 538.045077524899 636.7707601544613" stroke-miterlimit="10"/></g><g transform="translate(-450,-38) scale(1,1)"><path fill="none" stroke="#000000" d="M 534 689 L 532 767" stroke-miterlimit="10"/></g><g transform="translate(-450,-38) scale(1,1)"><path fill="none" stroke="#000000" d="M 528.0523611490146 756.732763395042 L 532 767 L 536.4686304262053 756.9485651713802" stroke-miterlimit="10"/></g><g transform="translate(-450,-38) scale(1,1)"><g><path fill="none" stroke="none"/><text fill="#000000" stroke="none" font-family="Arial" font-size="13px" font-style="normal" font-weight="normal" text-decoration="none" x="533.5" y="734.5">结束</text></g></g></g></svg>