<svg version="1.1" xmlns="http://www.w3.org/2000/svg" xmlns:xlink="http://www.w3.org/1999/xlink" width="602" height="1325"><defs/><g><g transform="translate(-363,-46) scale(1,1)"><path fill="#C0C0C0" stroke="none" d="M 673 72.5 C 673 67.2532944 677.2532944 63 682.5 63 C 687.7467056 63 692 67.2532944 692 72.5 C 692 77.7467056 687.7467056 82 682.5 82 C 677.2532944 82 673 77.7467056 673 72.5 Z" opacity="0.2"/></g><g transform="translate(-363,-46) scale(1,1)"><path fill="#000000" stroke="none" d="M 666 65.5 C 666 60.2532944 670.2532944 56 675.5 56 C 680.7467056 56 685 60.2532944 685 65.5 C 685 70.7467056 680.7467056 75 675.5 75 C 670.2532944 75 666 70.7467056 666 65.5 Z"/></g><g transform="translate(-363,-46) scale(1,1)"><path fill="#C0C0C0" stroke="none" d="M 629 127 L 735 127 Q 745 127 745 137 L 745 157 Q 745 167 735 167 L 629 167 Q 619 167 619 157 L 619 137 Q 619 127 629 127 Z" opacity="0.2"/></g><g transform="translate(-363,-46) scale(1,1)"><path fill="#ffffff" stroke="none" d="M 622 120 L 728 120 Q 738 120 738 130 L 738 150 Q 738 160 728 160 L 622 160 Q 612 160 612 150 L 612 130 Q 612 120 622 120 Z"/></g><g transform="translate(-363,-46) scale(1,1)"><path fill="none" stroke="#000000" d="M 622 120 L 728 120 Q 738 120 738 130 L 738 150 Q 738 160 728 160 L 622 160 Q 612 160 612 150 L 612 130 Q 612 120 622 120 Z" stroke-miterlimit="10"/></g><g transform="translate(-363,-46) scale(1,1)"><g><path fill="none" stroke="none"/><text fill="#000000" stroke="none" font-family="Arial" font-size="13px" font-style="normal" font-weight="bold" text-decoration="none" x="616.5" y="139.5">添加被采集人的信息</text></g></g><g transform="translate(-363,-46) scale(1,1)"><path fill="none" stroke="#000000" d="M 675 76 L 675 119" stroke-miterlimit="10"/></g><g transform="translate(-363,-46) scale(1,1)"><path fill="none" stroke="#000000" d="M 670.790482243984 108.83732514237585 L 675 119 L 679.209517756016 108.83732514237585" stroke-miterlimit="10"/></g><g transform="translate(-363,-46) scale(1,1)"><g><path fill="none" stroke="none"/><text fill="#000000" stroke="none" font-family="Arial" font-size="13px" font-style="normal" font-weight="normal" text-decoration="none" x="675.5" y="102.5">开始</text></g></g><g transform="translate(-363,-46) scale(1,1)"><path fill="#C0C0C0" stroke="none" d="M 638 271.5 L 682.5 247 L 726 271.5 L 682.5 295 L 638 271.5" opacity="0.2"/></g><g transform="translate(-363,-46) scale(1,1)"><path fill="#ffffff" stroke="none" d="M 631 264 L 675 240 L 719 264 L 675 288 L 631 264"/></g><g transform="translate(-363,-46) scale(1,1)"><path fill="none" stroke="#000000" d="M 631 264 L 675 240 L 719 264 L 675 288 L 631 264 L 631 264" stroke-miterlimit="10"/></g><g transform="translate(-363,-46) scale(1,1)"><path fill="none" stroke="#000000" d="M 675 161 L 675 239" stroke-miterlimit="10"/></g><g transform="translate(-363,-46) scale(1,1)"><path fill="none" stroke="#000000" d="M 670.790482243984 228.83732514237585 L 675 239 L 679.209517756016 228.83732514237585" stroke-miterlimit="10"/></g><g transform="translate(-363,-46) scale(1,1)"><g><path fill="none" stroke="none"/><text fill="#000000" stroke="none" font-family="Arial" font-size="13px" font-style="normal" font-weight="normal" text-decoration="none" x="636.5" y="205.5">添加被采集人信息</text></g></g><g transform="translate(-363,-46) scale(1,1)"><path fill="#C0C0C0" stroke="none" d="M 881 255 L 948 255 Q 958 255 958 265 L 958 285 Q 958 295 948 295 L 881 295 Q 871 295 871 285 L 871 265 Q 871 255 881 255 Z" opacity="0.2"/></g><g transform="translate(-363,-46) scale(1,1)"><path fill="#ffffff" stroke="none" d="M 874 248 L 941 248 Q 951 248 951 258 L 951 278 Q 951 288 941 288 L 874 288 Q 864 288 864 278 L 864 258 Q 864 248 874 248 Z"/></g><g transform="translate(-363,-46) scale(1,1)"><path fill="none" stroke="#000000" d="M 874 248 L 941 248 Q 951 248 951 258 L 951 278 Q 951 288 941 288 L 874 288 Q 864 288 864 278 L 864 258 Q 864 248 874 248 Z" stroke-miterlimit="10"/></g><g transform="translate(-363,-46) scale(1,1)"><g><path fill="none" stroke="none"/><text fill="#000000" stroke="none" font-family="Arial" font-size="13px" font-style="normal" font-weight="bold" text-decoration="none" x="868.5" y="267.5">填写身份证号</text></g></g><g transform="translate(-363,-46) scale(1,1)"><path fill="none" stroke="#000000" d="M 720 265 L 863 267" stroke-miterlimit="10"/></g><g transform="translate(-363,-46) scale(1,1)"><path fill="none" stroke="#000000" d="M 852.7794503329278 271.06698469420667 L 863 267 L 852.8971875667039 262.64877247921476" stroke-miterlimit="10"/></g><g transform="translate(-363,-46) scale(1,1)"><g><path fill="none" stroke="none"/><text fill="#000000" stroke="none" font-family="Arial" font-size="13px" font-style="normal" font-weight="normal" text-decoration="none" x="725.5" y="257.5">手动输入被采集人信息</text></g></g><g transform="translate(-363,-46) scale(1,1)"><path fill="#C0C0C0" stroke="none" d="M 655 375 L 709 375 Q 719 375 719 385 L 719 405 Q 719 415 709 415 L 655 415 Q 645 415 645 405 L 645 385 Q 645 375 655 375 Z" opacity="0.2"/></g><g transform="translate(-363,-46) scale(1,1)"><path fill="#ffffff" stroke="none" d="M 648 368 L 702 368 Q 712 368 712 378 L 712 398 Q 712 408 702 408 L 648 408 Q 638 408 638 398 L 638 378 Q 638 368 648 368 Z"/></g><g transform="translate(-363,-46) scale(1,1)"><path fill="none" stroke="#000000" d="M 648 368 L 702 368 Q 712 368 712 378 L 712 398 Q 712 408 702 408 L 648 408 Q 638 408 638 398 L 638 378 Q 638 368 648 368 Z" stroke-miterlimit="10"/></g><g transform="translate(-363,-46) scale(1,1)"><g><path fill="none" stroke="none"/><text fill="#000000" stroke="none" font-family="Arial" font-size="13px" font-style="normal" font-weight="bold" text-decoration="none" x="642.5" y="387.5">身份证扫描</text></g></g><g transform="translate(-363,-46) scale(1,1)"><path fill="none" stroke="#000000" d="M 675 289 L 675 367" stroke-miterlimit="10"/></g><g transform="translate(-363,-46) scale(1,1)"><path fill="none" stroke="#000000" d="M 670.790482243984 356.83732514237585 L 675 367 L 679.209517756016 356.83732514237585" stroke-miterlimit="10"/></g><g transform="translate(-363,-46) scale(1,1)"><g><path fill="none" stroke="none"/><text fill="#000000" stroke="none" font-family="Arial" font-size="13px" font-style="normal" font-weight="normal" text-decoration="none" x="636.5" y="333.5">扫描获取基本信息</text></g></g><g transform="translate(-363,-46) scale(1,1)"><path fill="#C0C0C0" stroke="none" d="M 651 559 L 714 559 Q 717 559 717 562 L 717 561 Q 717 564 714 564 L 651 564 Q 648 564 648 561 L 648 562 Q 648 559 651 559 Z" opacity="0.2"/></g><g transform="translate(-363,-46) scale(1,1)"><path fill="#000000" stroke="none" d="M 644 552 L 707 552 Q 710 552 710 555 L 710 555 Q 710 558 707 558 L 644 558 Q 641 558 641 555 L 641 555 Q 641 552 644 552 Z"/></g><g transform="translate(-363,-46) scale(1,1)"><path fill="none" stroke="#000000" d="M 907 289 L 907 327" stroke-miterlimit="10"/></g><g transform="translate(-363,-46) scale(1,1)"><path fill="none" stroke="#000000" d="M 902.790482243984 316.83732514237585 L 907 327 L 911.209517756016 316.83732514237585" stroke-miterlimit="10"/></g><g transform="translate(-363,-46) scale(1,1)"><path fill="none" stroke="#000000" d="M 675 409 L 675 551" stroke-miterlimit="10"/></g><g transform="translate(-363,-46) scale(1,1)"><path fill="none" stroke="#000000" d="M 670.790482243984 540.8373251423759 L 675 551 L 679.209517756016 540.8373251423759" stroke-miterlimit="10"/></g><g transform="translate(-363,-46) scale(1,1)"><path fill="#C0C0C0" stroke="none" d="M 642 599 L 722 599 Q 732 599 732 609 L 732 629 Q 732 639 722 639 L 642 639 Q 632 639 632 629 L 632 609 Q 632 599 642 599 Z" opacity="0.2"/></g><g transform="translate(-363,-46) scale(1,1)"><path fill="#ffffff" stroke="none" d="M 635 592 L 715 592 Q 725 592 725 602 L 725 622 Q 725 632 715 632 L 635 632 Q 625 632 625 622 L 625 602 Q 625 592 635 592 Z"/></g><g transform="translate(-363,-46) scale(1,1)"><path fill="none" stroke="#000000" d="M 635 592 L 715 592 Q 725 592 725 602 L 725 622 Q 725 632 715 632 L 635 632 Q 625 632 625 622 L 625 602 Q 625 592 635 592 Z" stroke-miterlimit="10"/></g><g transform="translate(-363,-46) scale(1,1)"><g><path fill="none" stroke="none"/><text fill="#000000" stroke="none" font-family="Arial" font-size="13px" font-style="normal" font-weight="bold" text-decoration="none" x="629.5" y="611.5">选择户籍所在地</text></g></g><g transform="translate(-363,-46) scale(1,1)"><path fill="none" stroke="#000000" d="M 675 558 L 675 591" stroke-miterlimit="10"/></g><g transform="translate(-363,-46) scale(1,1)"><path fill="none" stroke="#000000" d="M 670.790482243984 580.8373251423759 L 675 591 L 679.209517756016 580.8373251423759" stroke-miterlimit="10"/></g><g transform="translate(-363,-46) scale(1,1)"><path fill="#C0C0C0" stroke="none" d="M 880 335 L 948 335 Q 958 335 958 345 L 958 365 Q 958 375 948 375 L 880 375 Q 870 375 870 365 L 870 345 Q 870 335 880 335 Z" opacity="0.2"/></g><g transform="translate(-363,-46) scale(1,1)"><path fill="#ffffff" stroke="none" d="M 873 328 L 941 328 Q 951 328 951 338 L 951 358 Q 951 368 941 368 L 873 368 Q 863 368 863 358 L 863 338 Q 863 328 873 328 Z"/></g><g transform="translate(-363,-46) scale(1,1)"><path fill="none" stroke="#000000" d="M 873 328 L 941 328 Q 951 328 951 338 L 951 358 Q 951 368 941 368 L 873 368 Q 863 368 863 358 L 863 338 Q 863 328 873 328 Z" stroke-miterlimit="10"/></g><g transform="translate(-363,-46) scale(1,1)"><g><path fill="none" stroke="none"/><text fill="#000000" stroke="none" font-family="Arial" font-size="13px" font-style="normal" font-weight="bold" text-decoration="none" x="881" y="347.5">填写姓名</text></g></g><g transform="translate(-363,-46) scale(1,1)"><path fill="#C0C0C0" stroke="none" d="M 880 407 L 948 407 Q 958 407 958 417 L 958 437 Q 958 447 948 447 L 880 447 Q 870 447 870 437 L 870 417 Q 870 407 880 407 Z" opacity="0.2"/></g><g transform="translate(-363,-46) scale(1,1)"><path fill="#ffffff" stroke="none" d="M 873 400 L 941 400 Q 951 400 951 410 L 951 430 Q 951 440 941 440 L 873 440 Q 863 440 863 430 L 863 410 Q 863 400 873 400 Z"/></g><g transform="translate(-363,-46) scale(1,1)"><path fill="none" stroke="#000000" d="M 873 400 L 941 400 Q 951 400 951 410 L 951 430 Q 951 440 941 440 L 873 440 Q 863 440 863 430 L 863 410 Q 863 400 873 400 Z" stroke-miterlimit="10"/></g><g transform="translate(-363,-46) scale(1,1)"><g><path fill="none" stroke="none"/><text fill="#000000" stroke="none" font-family="Arial" font-size="13px" font-style="normal" font-weight="bold" text-decoration="none" x="881" y="419.5">选择性别</text></g></g><g transform="translate(-363,-46) scale(1,1)"><path fill="none" stroke="#000000" d="M 907 369 L 907 399" stroke-miterlimit="10"/></g><g transform="translate(-363,-46) scale(1,1)"><path fill="none" stroke="#000000" d="M 902.790482243984 388.83732514237585 L 907 399 L 911.209517756016 388.83732514237585" stroke-miterlimit="10"/></g><g transform="translate(-363,-46) scale(1,1)"><path fill="none" stroke="#000000" d="M 871 441 L 680 551" stroke-miterlimit="10"/></g><g transform="translate(-363,-46) scale(1,1)"><path fill="none" stroke="#000000" d="M 686.7057636885196 542.2803249284316 L 680 551 L 690.9074323500361 549.5759496043374" stroke-miterlimit="10"/></g><g transform="translate(-363,-46) scale(1,1)"><path fill="#C0C0C0" stroke="none" d="M 603 687 L 761 687 Q 771 687 771 697 L 771 717 Q 771 727 761 727 L 603 727 Q 593 727 593 717 L 593 697 Q 593 687 603 687 Z" opacity="0.2"/></g><g transform="translate(-363,-46) scale(1,1)"><path fill="#ffffff" stroke="none" d="M 596 680 L 754 680 Q 764 680 764 690 L 764 710 Q 764 720 754 720 L 596 720 Q 586 720 586 710 L 586 690 Q 586 680 596 680 Z"/></g><g transform="translate(-363,-46) scale(1,1)"><path fill="none" stroke="#000000" d="M 596 680 L 754 680 Q 764 680 764 690 L 764 710 Q 764 720 754 720 L 596 720 Q 586 720 586 710 L 586 690 Q 586 680 596 680 Z" stroke-miterlimit="10"/></g><g transform="translate(-363,-46) scale(1,1)"><g><path fill="none" stroke="none"/><text fill="#000000" stroke="none" font-family="Arial" font-size="13px" font-style="normal" font-weight="bold" text-decoration="none" x="590.5" y="699.5">填写手机号码，进行拨打验证</text></g></g><g transform="translate(-363,-46) scale(1,1)"><path fill="none" stroke="#000000" d="M 675 633 L 675 679" stroke-miterlimit="10"/></g><g transform="translate(-363,-46) scale(1,1)"><path fill="none" stroke="#000000" d="M 670.790482243984 668.8373251423759 L 675 679 L 679.209517756016 668.8373251423759" stroke-miterlimit="10"/></g><g transform="translate(-363,-46) scale(1,1)"><path fill="#C0C0C0" stroke="none" d="M 646 875.5 L 682.5 855 L 718 875.5 L 682.5 895 L 646 875.5" opacity="0.2"/></g><g transform="translate(-363,-46) scale(1,1)"><path fill="#ffffff" stroke="none" d="M 639 868 L 675 848 L 711 868 L 675 888 L 639 868"/></g><g transform="translate(-363,-46) scale(1,1)"><path fill="none" stroke="#000000" d="M 639 868 L 675 848 L 711 868 L 675 888 L 639 868 L 639 868" stroke-miterlimit="10"/></g><g transform="translate(-363,-46) scale(1,1)"><path fill="#C0C0C0" stroke="none" d="M 650 963.5 L 682.5 943 L 714 963.5 L 682.5 983 L 650 963.5" opacity="0.2"/></g><g transform="translate(-363,-46) scale(1,1)"><path fill="#ffffff" stroke="none" d="M 643 956 L 675 936 L 707 956 L 675 976 L 643 956"/></g><g transform="translate(-363,-46) scale(1,1)"><path fill="none" stroke="#000000" d="M 643 956 L 675 936 L 707 956 L 675 976 L 643 956 L 643 956" stroke-miterlimit="10"/></g><g transform="translate(-363,-46) scale(1,1)"><path fill="#C0C0C0" stroke="none" d="M 649 767 L 716 767 Q 726 767 726 777 L 726 797 Q 726 807 716 807 L 649 807 Q 639 807 639 797 L 639 777 Q 639 767 649 767 Z" opacity="0.2"/></g><g transform="translate(-363,-46) scale(1,1)"><path fill="#ffffff" stroke="none" d="M 642 760 L 709 760 Q 719 760 719 770 L 719 790 Q 719 800 709 800 L 642 800 Q 632 800 632 790 L 632 770 Q 632 760 642 760 Z"/></g><g transform="translate(-363,-46) scale(1,1)"><path fill="none" stroke="#000000" d="M 642 760 L 709 760 Q 719 760 719 770 L 719 790 Q 719 800 709 800 L 642 800 Q 632 800 632 790 L 632 770 Q 632 760 642 760 Z" stroke-miterlimit="10"/></g><g transform="translate(-363,-46) scale(1,1)"><g><path fill="none" stroke="none"/><text fill="#000000" stroke="none" font-family="Arial" font-size="13px" font-style="normal" font-weight="bold" text-decoration="none" x="636.5" y="779.5">进行拍照验证</text></g></g><g transform="translate(-363,-46) scale(1,1)"><path fill="none" stroke="#000000" d="M 675 721 L 675 759" stroke-miterlimit="10"/></g><g transform="translate(-363,-46) scale(1,1)"><path fill="none" stroke="#000000" d="M 670.790482243984 748.8373251423759 L 675 759 L 679.209517756016 748.8373251423759" stroke-miterlimit="10"/></g><g transform="translate(-363,-46) scale(1,1)"><path fill="none" stroke="#000000" d="M 675 801 L 675 847" stroke-miterlimit="10"/></g><g transform="translate(-363,-46) scale(1,1)"><path fill="none" stroke="#000000" d="M 670.790482243984 836.8373251423759 L 675 847 L 679.209517756016 836.8373251423759" stroke-miterlimit="10"/></g><g transform="translate(-363,-46) scale(1,1)"><path fill="#C0C0C0" stroke="none" d="M 894 855 L 935 855 Q 945 855 945 865 L 945 885 Q 945 895 935 895 L 894 895 Q 884 895 884 885 L 884 865 Q 884 855 894 855 Z" opacity="0.2"/></g><g transform="translate(-363,-46) scale(1,1)"><path fill="#ffffff" stroke="none" d="M 887 848 L 928 848 Q 938 848 938 858 L 938 878 Q 938 888 928 888 L 887 888 Q 877 888 877 878 L 877 858 Q 877 848 887 848 Z"/></g><g transform="translate(-363,-46) scale(1,1)"><path fill="none" stroke="#000000" d="M 887 848 L 928 848 Q 938 848 938 858 L 938 878 Q 938 888 928 888 L 887 888 Q 877 888 877 878 L 877 858 Q 877 848 887 848 Z" stroke-miterlimit="10"/></g><g transform="translate(-363,-46) scale(1,1)"><g><path fill="none" stroke="none"/><text fill="#000000" stroke="none" font-family="Arial" font-size="13px" font-style="normal" font-weight="bold" text-decoration="none" x="881.5" y="867.5">验证失败</text></g></g><g transform="translate(-363,-46) scale(1,1)"><path fill="none" stroke="#000000" d="M 712 868 L 876 868" stroke-miterlimit="10"/></g><g transform="translate(-363,-46) scale(1,1)"><path fill="none" stroke="#000000" d="M 865.8373251423759 872.209517756016 L 876 868 L 865.8373251423758 863.790482243984" stroke-miterlimit="10"/></g><g transform="translate(-363,-46) scale(1,1)"><path fill="none" stroke="#000000" d="M 912 848 L 912 784 L 719 784" stroke-miterlimit="10"/></g><g transform="translate(-363,-46) scale(1,1)"><path fill="none" stroke="#000000" d="M 729.1626748576241 779.790482243984 L 719 784 L 729.1626748576241 788.209517756016" stroke-miterlimit="10"/></g><g transform="translate(-363,-46) scale(1,1)"><g><path fill="none" stroke="none"/><text fill="#000000" stroke="none" font-family="Arial" font-size="13px" font-style="normal" font-weight="normal" text-decoration="none" x="862.5" y="779.5">重新拍照验证</text></g></g><g transform="translate(-363,-46) scale(1,1)"><path fill="none" stroke="#000000" d="M 675 889 L 675 935" stroke-miterlimit="10"/></g><g transform="translate(-363,-46) scale(1,1)"><path fill="none" stroke="#000000" d="M 670.790482243984 924.8373251423759 L 675 935 L 679.209517756016 924.8373251423759" stroke-miterlimit="10"/></g><g transform="translate(-363,-46) scale(1,1)"><g><path fill="none" stroke="none"/><text fill="#000000" stroke="none" font-family="Arial" font-size="13px" font-style="normal" font-weight="normal" text-decoration="none" x="662.5" y="917.5">验证成功</text></g></g><g transform="translate(-363,-46) scale(1,1)"><path fill="#C0C0C0" stroke="none" d="M 645 1031 L 720 1031 Q 730 1031 730 1041 L 730 1061 Q 730 1071 720 1071 L 645 1071 Q 635 1071 635 1061 L 635 1041 Q 635 1031 645 1031 Z" opacity="0.2"/></g><g transform="translate(-363,-46) scale(1,1)"><path fill="#ffffff" stroke="none" d="M 638 1024 L 713 1024 Q 723 1024 723 1034 L 723 1054 Q 723 1064 713 1064 L 638 1064 Q 628 1064 628 1054 L 628 1034 Q 628 1024 638 1024 Z"/></g><g transform="translate(-363,-46) scale(1,1)"><path fill="none" stroke="#000000" d="M 638 1024 L 713 1024 Q 723 1024 723 1034 L 723 1054 Q 723 1064 713 1064 L 638 1064 Q 628 1064 628 1054 L 628 1034 Q 628 1024 638 1024 Z" stroke-miterlimit="10"/></g><g transform="translate(-363,-46) scale(1,1)"><g><path fill="none" stroke="none"/><text fill="#000000" stroke="none" font-family="Arial" font-size="13px" font-style="normal" font-weight="bold" text-decoration="none" x="643" y="1043.5">提交到远程</text></g></g><g transform="translate(-363,-46) scale(1,1)"><path fill="#C0C0C0" stroke="none" d="M 876 943 L 952 943 Q 962 943 962 953 L 962 973 Q 962 983 952 983 L 876 983 Q 866 983 866 973 L 866 953 Q 866 943 876 943 Z" opacity="0.2"/></g><g transform="translate(-363,-46) scale(1,1)"><path fill="#ffffff" stroke="none" d="M 869 936 L 945 936 Q 955 936 955 946 L 955 966 Q 955 976 945 976 L 869 976 Q 859 976 859 966 L 859 946 Q 859 936 869 936 Z"/></g><g transform="translate(-363,-46) scale(1,1)"><path fill="none" stroke="#000000" d="M 869 936 L 945 936 Q 955 936 955 946 L 955 966 Q 955 976 945 976 L 869 976 Q 859 976 859 966 L 859 946 Q 859 936 869 936 Z" stroke-miterlimit="10"/></g><g transform="translate(-363,-46) scale(1,1)"><g><path fill="none" stroke="none"/><text fill="#000000" stroke="none" font-family="Arial" font-size="13px" font-style="normal" font-weight="bold" text-decoration="none" x="874.5" y="955.5">缓存到本地</text></g></g><g transform="translate(-363,-46) scale(1,1)"><path fill="none" stroke="#000000" d="M 708 956 L 858 956" stroke-miterlimit="10"/></g><g transform="translate(-363,-46) scale(1,1)"><path fill="none" stroke="#000000" d="M 847.8373251423759 960.209517756016 L 858 956 L 847.8373251423758 951.790482243984" stroke-miterlimit="10"/></g><g transform="translate(-363,-46) scale(1,1)"><path fill="none" stroke="#000000" d="M 675 977 L 675 1023" stroke-miterlimit="10"/></g><g transform="translate(-363,-46) scale(1,1)"><path fill="none" stroke="#000000" d="M 670.790482243984 1012.8373251423759 L 675 1023 L 679.209517756016 1012.8373251423759" stroke-miterlimit="10"/></g><g transform="translate(-363,-46) scale(1,1)"><path fill="#C0C0C0" stroke="none" d="M 642 1131.5 L 682.5 1111 L 722 1131.5 L 682.5 1151 L 642 1131.5" opacity="0.2"/></g><g transform="translate(-363,-46) scale(1,1)"><path fill="#ffffff" stroke="none" d="M 635 1124 L 675 1104 L 715 1124 L 675 1144 L 635 1124"/></g><g transform="translate(-363,-46) scale(1,1)"><path fill="none" stroke="#000000" d="M 635 1124 L 675 1104 L 715 1124 L 675 1144 L 635 1124 L 635 1124" stroke-miterlimit="10"/></g><g transform="translate(-363,-46) scale(1,1)"><path fill="none" stroke="#000000" d="M 635 1124 L 440 1124 L 440 136 L 612 136" stroke-miterlimit="10"/></g><g transform="translate(-363,-46) scale(1,1)"><path fill="none" stroke="#000000" d="M 601.8373251423759 140.209517756016 L 612 136 L 601.8373251423758 131.790482243984" stroke-miterlimit="10"/></g><g transform="translate(-363,-46) scale(1,1)"><g><path fill="none" stroke="none"/><text fill="#000000" stroke="none" font-family="Arial" font-size="13px" font-style="normal" font-weight="normal" text-decoration="none" x="372.5" y="635.5">该采集人已经存在</text></g></g><g transform="translate(-363,-46) scale(1,1)"><path fill="none" stroke="#000000" d="M 675 1065 L 675 1103" stroke-miterlimit="10"/></g><g transform="translate(-363,-46) scale(1,1)"><path fill="none" stroke="#000000" d="M 670.790482243984 1092.837325142376 L 675 1103 L 679.209517756016 1092.837325142376" stroke-miterlimit="10"/></g><g transform="translate(-363,-46) scale(1,1)"><path fill="#C0C0C0" stroke="none" d="M 641 1223 L 724 1223 Q 734 1223 734 1233 L 734 1253 Q 734 1263 724 1263 L 641 1263 Q 631 1263 631 1253 L 631 1233 Q 631 1223 641 1223 Z" opacity="0.2"/></g><g transform="translate(-363,-46) scale(1,1)"><path fill="#ffffff" stroke="none" d="M 634 1216 L 717 1216 Q 727 1216 727 1226 L 727 1246 Q 727 1256 717 1256 L 634 1256 Q 624 1256 624 1246 L 624 1226 Q 624 1216 634 1216 Z"/></g><g transform="translate(-363,-46) scale(1,1)"><path fill="none" stroke="#000000" d="M 634 1216 L 717 1216 Q 727 1216 727 1226 L 727 1246 Q 727 1256 717 1256 L 634 1256 Q 624 1256 624 1246 L 624 1226 Q 624 1216 634 1216 Z" stroke-miterlimit="10"/></g><g transform="translate(-363,-46) scale(1,1)"><g><path fill="none" stroke="none"/><text fill="#000000" stroke="none" font-family="Arial" font-size="13px" font-style="normal" font-weight="bold" text-decoration="none" x="649.5" y="1235.5">采集成功</text></g></g><g transform="translate(-363,-46) scale(1,1)"><path fill="none" stroke="#000000" d="M 675 1145 L 675 1215" stroke-miterlimit="10"/></g><g transform="translate(-363,-46) scale(1,1)"><path fill="none" stroke="#000000" d="M 670.790482243984 1204.837325142376 L 675 1215 L 679.209517756016 1204.837325142376" stroke-miterlimit="10"/></g><g transform="translate(-363,-46) scale(1,1)"><path fill="#C0C0C0" stroke="none" d="M 670 1355.5 C 670 1348.59644 675.59644 1343 682.5 1343 C 689.40356 1343 695 1348.59644 695 1355.5 C 695 1362.40356 689.40356 1368 682.5 1368 C 675.59644 1368 670 1362.40356 670 1355.5 Z" opacity="0.2"/></g><g transform="translate(-363,-46) scale(1,1)"><path fill="none" stroke="#000000" d="M 663 1348.5 C 663 1341.59644 668.59644 1336 675.5 1336 C 682.40356 1336 688 1341.59644 688 1348.5 C 688 1355.40356 682.40356 1361 675.5 1361 C 668.59644 1361 663 1355.40356 663 1348.5 Z" stroke-miterlimit="10"/></g><g transform="translate(-363,-46) scale(1,1)"><path fill="#000000" stroke="none" d="M 668 1348.5 C 668 1344.357864 671.357864 1341 675.5 1341 C 679.642136 1341 683 1344.357864 683 1348.5 C 683 1352.642136 679.642136 1356 675.5 1356 C 671.357864 1356 668 1352.642136 668 1348.5 Z"/></g><g transform="translate(-363,-46) scale(1,1)"><path fill="none" stroke="#000000" d="M 675 1257 L 675 1335" stroke-miterlimit="10"/></g><g transform="translate(-363,-46) scale(1,1)"><path fill="none" stroke="#000000" d="M 670.790482243984 1324.837325142376 L 675 1335 L 679.209517756016 1324.837325142376" stroke-miterlimit="10"/></g><g transform="translate(-363,-46) scale(1,1)"><g><path fill="none" stroke="none"/><text fill="#000000" stroke="none" font-family="Arial" font-size="13px" font-style="normal" font-weight="normal" text-decoration="none" x="675.5" y="1301.5">结束</text></g></g><g transform="translate(-363,-46) scale(1,1)"><path fill="none" stroke="#000000" d="M 858 975 L 724 1025" stroke-miterlimit="10"/></g><g transform="translate(-363,-46) scale(1,1)"><path fill="none" stroke="#000000" d="M 732.0498289244346 1017.503317114394 L 724 1025 L 734.9930439246764 1025.3911333150422" stroke-miterlimit="10"/></g></g></svg>