<svg version="1.1" xmlns="http://www.w3.org/2000/svg" xmlns:xlink="http://www.w3.org/1999/xlink" width="579" height="1293"><defs/><g><g transform="translate(-310,-38) scale(1,1)"><path fill="#C0C0C0" stroke="none" d="M 559 64.5 C 559 59.2532944 563.2532944 55 568.5 55 C 573.7467056 55 578 59.2532944 578 64.5 C 578 69.7467056 573.7467056 74 568.5 74 C 563.2532944 74 559 69.7467056 559 64.5 Z" opacity="0.2"/></g><g transform="translate(-310,-38) scale(1,1)"><path fill="#000000" stroke="none" d="M 552 57.5 C 552 52.2532944 556.2532944 48 561.5 48 C 566.7467056 48 571 52.2532944 571 57.5 C 571 62.7467056 566.7467056 67 561.5 67 C 556.2532944 67 552 62.7467056 552 57.5 Z"/></g><g transform="translate(-310,-38) scale(1,1)"><path fill="#C0C0C0" stroke="none" d="M 545 135 L 586 135 Q 596 135 596 145 L 596 165 Q 596 175 586 175 L 545 175 Q 535 175 535 165 L 535 145 Q 535 135 545 135 Z" opacity="0.2"/></g><g transform="translate(-310,-38) scale(1,1)"><path fill="#ffffff" stroke="none" d="M 538 128 L 579 128 Q 589 128 589 138 L 589 158 Q 589 168 579 168 L 538 168 Q 528 168 528 158 L 528 138 Q 528 128 538 128 Z"/></g><g transform="translate(-310,-38) scale(1,1)"><path fill="none" stroke="#000000" d="M 538 128 L 579 128 Q 589 128 589 138 L 589 158 Q 589 168 579 168 L 538 168 Q 528 168 528 158 L 528 138 Q 528 128 538 128 Z" stroke-miterlimit="10"/></g><g transform="translate(-310,-38) scale(1,1)"><g><path fill="none" stroke="none"/><text fill="#000000" stroke="none" font-family="Arial" font-size="13px" font-style="normal" font-weight="bold" text-decoration="none" x="532.5" y="147.5">巡逻准备</text></g></g><g transform="translate(-310,-38) scale(1,1)"><path fill="none" stroke="#000000" d="M 561 68 L 559 127" stroke-miterlimit="10"/></g><g transform="translate(-310,-38) scale(1,1)"><path fill="none" stroke="#000000" d="M 555.1371984227445 116.70054545256147 L 559 127 L 563.551400963361 116.98577265732813" stroke-miterlimit="10"/></g><g transform="translate(-310,-38) scale(1,1)"><g><path fill="none" stroke="none"/><text fill="#000000" stroke="none" font-family="Arial" font-size="13px" font-style="normal" font-weight="normal" text-decoration="none" x="560.5" y="103.5">开始</text></g></g><g transform="translate(-310,-38) scale(1,1)"><path fill="#C0C0C0" stroke="none" d="M 529 223 L 596 223 Q 606 223 606 233 L 606 253 Q 606 263 596 263 L 529 263 Q 519 263 519 253 L 519 233 Q 519 223 529 223 Z" opacity="0.2"/></g><g transform="translate(-310,-38) scale(1,1)"><path fill="#ffffff" stroke="none" d="M 522 216 L 589 216 Q 599 216 599 226 L 599 246 Q 599 256 589 256 L 522 256 Q 512 256 512 246 L 512 226 Q 512 216 522 216 Z"/></g><g transform="translate(-310,-38) scale(1,1)"><path fill="none" stroke="#000000" d="M 522 216 L 589 216 Q 599 216 599 226 L 599 246 Q 599 256 589 256 L 522 256 Q 512 256 512 246 L 512 226 Q 512 216 522 216 Z" stroke-miterlimit="10"/></g><g transform="translate(-310,-38) scale(1,1)"><g><path fill="none" stroke="none"/><text fill="#000000" stroke="none" font-family="Arial" font-size="13px" font-style="normal" font-weight="bold" text-decoration="none" x="516.5" y="235.5">定位当前位置</text></g></g><g transform="translate(-310,-38) scale(1,1)"><path fill="none" stroke="#000000" d="M 557 169 L 556 215" stroke-miterlimit="10"/></g><g transform="translate(-310,-38) scale(1,1)"><path fill="none" stroke="#000000" d="M 552.0123521078249 204.74823604017186 L 556 215 L 560.429398949577 204.9312153193404" stroke-miterlimit="10"/></g><g transform="translate(-310,-38) scale(1,1)"><path fill="#C0C0C0" stroke="none" d="M 527 427.5 L 563.5 407 L 599 427.5 L 563.5 447 L 527 427.5" opacity="0.2"/></g><g transform="translate(-310,-38) scale(1,1)"><path fill="#ffffff" stroke="none" d="M 520 420 L 556 400 L 592 420 L 556 440 L 520 420"/></g><g transform="translate(-310,-38) scale(1,1)"><path fill="none" stroke="#000000" d="M 520 420 L 556 400 L 592 420 L 556 440 L 520 420 L 520 420" stroke-miterlimit="10"/></g><g transform="translate(-310,-38) scale(1,1)"><path fill="#C0C0C0" stroke="none" d="M 721 407 L 788 407 Q 798 407 798 417 L 798 437 Q 798 447 788 447 L 721 447 Q 711 447 711 437 L 711 417 Q 711 407 721 407 Z" opacity="0.2"/></g><g transform="translate(-310,-38) scale(1,1)"><path fill="#ffffff" stroke="none" d="M 714 400 L 781 400 Q 791 400 791 410 L 791 430 Q 791 440 781 440 L 714 440 Q 704 440 704 430 L 704 410 Q 704 400 714 400 Z"/></g><g transform="translate(-310,-38) scale(1,1)"><path fill="none" stroke="#000000" d="M 714 400 L 781 400 Q 791 400 791 410 L 791 430 Q 791 440 781 440 L 714 440 Q 704 440 704 430 L 704 410 Q 704 400 714 400 Z" stroke-miterlimit="10"/></g><g transform="translate(-310,-38) scale(1,1)"><g><path fill="none" stroke="none"/><text fill="#000000" stroke="none" font-family="Arial" font-size="13px" font-style="normal" font-weight="bold" text-decoration="none" x="708.5" y="419.5">开始巡逻失败</text></g></g><g transform="translate(-310,-38) scale(1,1)"><path fill="none" stroke="#000000" d="M 593 420 L 703 420" stroke-miterlimit="10"/></g><g transform="translate(-310,-38) scale(1,1)"><path fill="none" stroke="#000000" d="M 692.8373251423759 424.209517756016 L 703 420 L 692.8373251423758 415.790482243984" stroke-miterlimit="10"/></g><g transform="translate(-310,-38) scale(1,1)"><g><path fill="none" stroke="none"/><text fill="#000000" stroke="none" font-family="Arial" font-size="13px" font-style="normal" font-weight="normal" text-decoration="none" x="621.5" y="411.5">定位失败</text></g></g><g transform="translate(-310,-38) scale(1,1)"><path fill="#C0C0C0" stroke="none" d="M 529 311 L 597 311 Q 607 311 607 321 L 607 341 Q 607 351 597 351 L 529 351 Q 519 351 519 341 L 519 321 Q 519 311 529 311 Z" opacity="0.2"/></g><g transform="translate(-310,-38) scale(1,1)"><path fill="#ffffff" stroke="none" d="M 522 304 L 590 304 Q 600 304 600 314 L 600 334 Q 600 344 590 344 L 522 344 Q 512 344 512 334 L 512 314 Q 512 304 522 304 Z"/></g><g transform="translate(-310,-38) scale(1,1)"><path fill="none" stroke="#000000" d="M 522 304 L 590 304 Q 600 304 600 314 L 600 334 Q 600 344 590 344 L 522 344 Q 512 344 512 334 L 512 314 Q 512 304 522 304 Z" stroke-miterlimit="10"/></g><g transform="translate(-310,-38) scale(1,1)"><g><path fill="none" stroke="none"/><text fill="#000000" stroke="none" font-family="Arial" font-size="13px" font-style="normal" font-weight="bold" text-decoration="none" x="530" y="323.5">开始巡逻</text></g></g><g transform="translate(-310,-38) scale(1,1)"><path fill="none" stroke="#000000" d="M 556 345 L 556 399" stroke-miterlimit="10"/></g><g transform="translate(-310,-38) scale(1,1)"><path fill="none" stroke="#000000" d="M 551.790482243984 388.83732514237585 L 556 399 L 560.209517756016 388.83732514237585" stroke-miterlimit="10"/></g><g transform="translate(-310,-38) scale(1,1)"><path fill="none" stroke="#000000" d="M 752 400 L 752 232 L 599 232" stroke-miterlimit="10"/></g><g transform="translate(-310,-38) scale(1,1)"><path fill="none" stroke="#000000" d="M 609.1626748576241 227.790482243984 L 599 232 L 609.1626748576241 236.209517756016" stroke-miterlimit="10"/></g><g transform="translate(-310,-38) scale(1,1)"><g><path fill="none" stroke="none"/><text fill="#000000" stroke="none" font-family="Arial" font-size="13px" font-style="normal" font-weight="normal" text-decoration="none" x="694.5" y="227.5">重新定位</text></g></g><g transform="translate(-310,-38) scale(1,1)"><path fill="#C0C0C0" stroke="none" d="M 545 503 L 586 503 Q 596 503 596 513 L 596 533 Q 596 543 586 543 L 545 543 Q 535 543 535 533 L 535 513 Q 535 503 545 503 Z" opacity="0.2"/></g><g transform="translate(-310,-38) scale(1,1)"><path fill="#ffffff" stroke="none" d="M 538 496 L 579 496 Q 589 496 589 506 L 589 526 Q 589 536 579 536 L 538 536 Q 528 536 528 526 L 528 506 Q 528 496 538 496 Z"/></g><g transform="translate(-310,-38) scale(1,1)"><path fill="none" stroke="#000000" d="M 538 496 L 579 496 Q 589 496 589 506 L 589 526 Q 589 536 579 536 L 538 536 Q 528 536 528 526 L 528 506 Q 528 496 538 496 Z" stroke-miterlimit="10"/></g><g transform="translate(-310,-38) scale(1,1)"><g><path fill="none" stroke="none"/><text fill="#000000" stroke="none" font-family="Arial" font-size="13px" font-style="normal" font-weight="bold" text-decoration="none" x="532.5" y="515.5">巡逻开始</text></g></g><g transform="translate(-310,-38) scale(1,1)"><path fill="none" stroke="#000000" d="M 556 441 L 558 495" stroke-miterlimit="10"/></g><g transform="translate(-310,-38) scale(1,1)"><path fill="none" stroke="#000000" d="M 553.417228991706 485.0000895061236 L 558 495 L 561.8304960648887 484.6884870219316" stroke-miterlimit="10"/></g><g transform="translate(-310,-38) scale(1,1)"><g><path fill="none" stroke="none"/><text fill="#000000" stroke="none" font-family="Arial" font-size="13px" font-style="normal" font-weight="normal" text-decoration="none" x="544.5" y="473.5">定位成功</text></g></g><g transform="translate(-310,-38) scale(1,1)"><path fill="#C0C0C0" stroke="none" d="M 527 619.5 L 563.5 599 L 599 619.5 L 563.5 639 L 527 619.5" opacity="0.2"/></g><g transform="translate(-310,-38) scale(1,1)"><path fill="#ffffff" stroke="none" d="M 520 612 L 556 592 L 592 612 L 556 632 L 520 612"/></g><g transform="translate(-310,-38) scale(1,1)"><path fill="none" stroke="#000000" d="M 520 612 L 556 592 L 592 612 L 556 632 L 520 612 L 520 612" stroke-miterlimit="10"/></g><g transform="translate(-310,-38) scale(1,1)"><path fill="none" stroke="#000000" d="M 558 537 L 556 591" stroke-miterlimit="10"/></g><g transform="translate(-310,-38) scale(1,1)"><path fill="none" stroke="#000000" d="M 552.1695039351113 580.6884870219317 L 556 591 L 560.582771008294 581.0000895061236" stroke-miterlimit="10"/></g><g transform="translate(-310,-38) scale(1,1)"><g><path fill="none" stroke="none"/><text fill="#000000" stroke="none" font-family="Arial" font-size="13px" font-style="normal" font-weight="normal" text-decoration="none" x="531.5" y="570.5">判断巡逻时间</text></g></g><g transform="translate(-310,-38) scale(1,1)"><path fill="#C0C0C0" stroke="none" d="M 809 599 L 876 599 Q 886 599 886 609 L 886 629 Q 886 639 876 639 L 809 639 Q 799 639 799 629 L 799 609 Q 799 599 809 599 Z" opacity="0.2"/></g><g transform="translate(-310,-38) scale(1,1)"><path fill="#ffffff" stroke="none" d="M 802 592 L 869 592 Q 879 592 879 602 L 879 622 Q 879 632 869 632 L 802 632 Q 792 632 792 622 L 792 602 Q 792 592 802 592 Z"/></g><g transform="translate(-310,-38) scale(1,1)"><path fill="none" stroke="#000000" d="M 802 592 L 869 592 Q 879 592 879 602 L 879 622 Q 879 632 869 632 L 802 632 Q 792 632 792 622 L 792 602 Q 792 592 802 592 Z" stroke-miterlimit="10"/></g><g transform="translate(-310,-38) scale(1,1)"><g><path fill="none" stroke="none"/><text fill="#000000" stroke="none" font-family="Arial" font-size="13px" font-style="normal" font-weight="bold" text-decoration="none" x="796.5" y="611.5">超时自动结束</text></g></g><g transform="translate(-310,-38) scale(1,1)"><path fill="none" stroke="#000000" d="M 593 612 L 791 612" stroke-miterlimit="10"/></g><g transform="translate(-310,-38) scale(1,1)"><path fill="none" stroke="#000000" d="M 780.8373251423759 616.209517756016 L 791 612 L 780.8373251423758 607.790482243984" stroke-miterlimit="10"/></g><g transform="translate(-310,-38) scale(1,1)"><g><path fill="none" stroke="none"/><text fill="#000000" stroke="none" font-family="Arial" font-size="13px" font-style="normal" font-weight="normal" text-decoration="none" x="659.5" y="603.5">时间超范围</text></g></g><g transform="translate(-310,-38) scale(1,1)"><path fill="#C0C0C0" stroke="none" d="M 521 703 L 604 703 Q 614 703 614 713 L 614 733 Q 614 743 604 743 L 521 743 Q 511 743 511 733 L 511 713 Q 511 703 521 703 Z" opacity="0.2"/></g><g transform="translate(-310,-38) scale(1,1)"><path fill="#ffffff" stroke="none" d="M 514 696 L 597 696 Q 607 696 607 706 L 607 726 Q 607 736 597 736 L 514 736 Q 504 736 504 726 L 504 706 Q 504 696 514 696 Z"/></g><g transform="translate(-310,-38) scale(1,1)"><path fill="none" stroke="#000000" d="M 514 696 L 597 696 Q 607 696 607 706 L 607 726 Q 607 736 597 736 L 514 736 Q 504 736 504 726 L 504 706 Q 504 696 514 696 Z" stroke-miterlimit="10"/></g><g transform="translate(-310,-38) scale(1,1)"><g><path fill="none" stroke="none"/><text fill="#000000" stroke="none" font-family="Arial" font-size="13px" font-style="normal" font-weight="bold" text-decoration="none" x="529.5" y="715.5">结束巡逻</text></g></g><g transform="translate(-310,-38) scale(1,1)"><path fill="none" stroke="#000000" d="M 556 633 L 555 695" stroke-miterlimit="10"/></g><g transform="translate(-310,-38) scale(1,1)"><path fill="none" stroke="#000000" d="M 550.954922475101 684.7707601544613 L 555 695 L 559.3728631128827 684.9065333905545" stroke-miterlimit="10"/></g><g transform="translate(-310,-38) scale(1,1)"><g><path fill="none" stroke="none"/><text fill="#000000" stroke="none" font-family="Arial" font-size="13px" font-style="normal" font-weight="normal" text-decoration="none" x="542.5" y="669.5">结束巡逻</text></g></g><g transform="translate(-310,-38) scale(1,1)"><path fill="#C0C0C0" stroke="none" d="M 527 847.5 L 571.5 823 L 615 847.5 L 571.5 871 L 527 847.5" opacity="0.2"/></g><g transform="translate(-310,-38) scale(1,1)"><path fill="#ffffff" stroke="none" d="M 520 840 L 564 816 L 608 840 L 564 864 L 520 840"/></g><g transform="translate(-310,-38) scale(1,1)"><path fill="none" stroke="#000000" d="M 520 840 L 564 816 L 608 840 L 564 864 L 520 840 L 520 840" stroke-miterlimit="10"/></g><g transform="translate(-310,-38) scale(1,1)"><path fill="none" stroke="#000000" d="M 557 737 L 562 815" stroke-miterlimit="10"/></g><g transform="translate(-310,-38) scale(1,1)"><path fill="none" stroke="#000000" d="M 557.148985256035 805.1274291112277 L 562 815 L 565.5507764021022 804.5888527557106" stroke-miterlimit="10"/></g><g transform="translate(-310,-38) scale(1,1)"><g><path fill="none" stroke="none"/><text fill="#000000" stroke="none" font-family="Arial" font-size="13px" font-style="normal" font-weight="normal" text-decoration="none" x="540.5" y="780.5">是否有警情</text></g></g><g transform="translate(-310,-38) scale(1,1)"><path fill="#C0C0C0" stroke="none" d="M 337 975 L 573 975 Q 583 975 583 985 L 583 1005 Q 583 1015 573 1015 L 337 1015 Q 327 1015 327 1005 L 327 985 Q 327 975 337 975 Z" opacity="0.2"/></g><g transform="translate(-310,-38) scale(1,1)"><path fill="#ffffff" stroke="none" d="M 330 968 L 566 968 Q 576 968 576 978 L 576 998 Q 576 1008 566 1008 L 330 1008 Q 320 1008 320 998 L 320 978 Q 320 968 330 968 Z"/></g><g transform="translate(-310,-38) scale(1,1)"><path fill="none" stroke="#000000" d="M 330 968 L 566 968 Q 576 968 576 978 L 576 998 Q 576 1008 566 1008 L 330 1008 Q 320 1008 320 998 L 320 978 Q 320 968 330 968 Z" stroke-miterlimit="10"/></g><g transform="translate(-310,-38) scale(1,1)"><g><path fill="none" stroke="none"/><text fill="#000000" stroke="none" font-family="Arial" font-size="13px" font-style="normal" font-weight="bold" text-decoration="none" x="324.5" y="987.5">添加警情的语音，图片，文字，类别等描述</text></g></g><g transform="translate(-310,-38) scale(1,1)"><path fill="none" stroke="#000000" d="M 544 865 L 464 967" stroke-miterlimit="10"/></g><g transform="translate(-310,-38) scale(1,1)"><path fill="none" stroke="#000000" d="M 466.95951907115926 956.4056030437101 L 464 967 L 473.5840659346423 961.6013260738929" stroke-miterlimit="10"/></g><g transform="translate(-310,-38) scale(1,1)"><g><path fill="none" stroke="none"/><text fill="#000000" stroke="none" font-family="Arial" font-size="13px" font-style="normal" font-weight="normal" text-decoration="none" x="495.5" y="931.5">有警情</text></g></g><g transform="translate(-310,-38) scale(1,1)"><path fill="#C0C0C0" stroke="none" d="M 591 1167.5 L 659.5 1143 L 727 1167.5 L 659.5 1191 L 591 1167.5" opacity="0.2"/></g><g transform="translate(-310,-38) scale(1,1)"><path fill="#ffffff" stroke="none" d="M 584 1160 L 652 1136 L 720 1160 L 652 1184 L 584 1160"/></g><g transform="translate(-310,-38) scale(1,1)"><path fill="none" stroke="#000000" d="M 584 1160 L 652 1136 L 720 1160 L 652 1184 L 584 1160 L 584 1160" stroke-miterlimit="10"/></g><g transform="translate(-310,-38) scale(1,1)"><path fill="none" stroke="#000000" d="M 828 633 L 660 1135" stroke-miterlimit="10"/></g><g transform="translate(-310,-38) scale(1,1)"><path fill="none" stroke="#000000" d="M 659.2333304376446 1124.0267498988605 L 660 1135 L 667.2171423117009 1126.6986231953574" stroke-miterlimit="10"/></g><g transform="translate(-310,-38) scale(1,1)"><g><path fill="none" stroke="none"/><text fill="#000000" stroke="none" font-family="Arial" font-size="13px" font-style="normal" font-weight="normal" text-decoration="none" x="712.5" y="894.5">该巡逻记录无效</text></g></g><g transform="translate(-310,-38) scale(1,1)"><path fill="none" stroke="#000000" d="M 571 865 L 645 1135" stroke-miterlimit="10"/></g><g transform="translate(-310,-38) scale(1,1)"><path fill="none" stroke="#000000" d="M 638.2539397407627 1126.3114632429424 L 645 1135 L 646.3735383039042 1124.0860917848963" stroke-miterlimit="10"/></g><g transform="translate(-310,-38) scale(1,1)"><g><path fill="none" stroke="none"/><text fill="#000000" stroke="none" font-family="Arial" font-size="13px" font-style="normal" font-weight="normal" text-decoration="none" x="602.5" y="1002.5">无警情</text></g></g><g transform="translate(-310,-38) scale(1,1)"><path fill="none" stroke="#000000" d="M 473 1009 L 622 1135" stroke-miterlimit="10"/></g><g transform="translate(-310,-38) scale(1,1)"><path fill="none" stroke="#000000" d="M 611.5218401006767 1131.6521402173607 L 622 1135 L 616.9581164355974 1125.2235277260656" stroke-miterlimit="10"/></g><g transform="translate(-310,-38) scale(1,1)"><g><path fill="none" stroke="none"/><text fill="#000000" stroke="none" font-family="Arial" font-size="13px" font-style="normal" font-weight="normal" text-decoration="none" x="516.5" y="1066.5">提交警情数据</text></g></g><g transform="translate(-310,-38) scale(1,1)"><path fill="#C0C0C0" stroke="none" d="M 647 1315.5 C 647 1308.59644 652.59644 1303 659.5 1303 C 666.40356 1303 672 1308.59644 672 1315.5 C 672 1322.40356 666.40356 1328 659.5 1328 C 652.59644 1328 647 1322.40356 647 1315.5 Z" opacity="0.2"/></g><g transform="translate(-310,-38) scale(1,1)"><path fill="none" stroke="#000000" d="M 640 1308.5 C 640 1301.59644 645.59644 1296 652.5 1296 C 659.40356 1296 665 1301.59644 665 1308.5 C 665 1315.40356 659.40356 1321 652.5 1321 C 645.59644 1321 640 1315.40356 640 1308.5 Z" stroke-miterlimit="10"/></g><g transform="translate(-310,-38) scale(1,1)"><path fill="#000000" stroke="none" d="M 645 1308.5 C 645 1304.357864 648.357864 1301 652.5 1301 C 656.642136 1301 660 1304.357864 660 1308.5 C 660 1312.642136 656.642136 1316 652.5 1316 C 648.357864 1316 645 1312.642136 645 1308.5 Z"/></g><g transform="translate(-310,-38) scale(1,1)"><path fill="none" stroke="#000000" d="M 652 1185 L 652 1295" stroke-miterlimit="10"/></g><g transform="translate(-310,-38) scale(1,1)"><path fill="none" stroke="#000000" d="M 647.790482243984 1284.837325142376 L 652 1295 L 656.209517756016 1284.837325142376" stroke-miterlimit="10"/></g><g transform="translate(-310,-38) scale(1,1)"><g><path fill="none" stroke="none"/><text fill="#000000" stroke="none" font-family="Arial" font-size="13px" font-style="normal" font-weight="normal" text-decoration="none" x="652.5" y="1245.5">结束</text></g></g><g transform="translate(-310,-38) scale(1,1)"><path fill="none" stroke="#000000" d="M 555 257 L 556 303" stroke-miterlimit="10"/></g><g transform="translate(-310,-38) scale(1,1)"><path fill="none" stroke="#000000" d="M 551.570601050423 292.93121531934037 L 556 303 L 559.9876478921751 292.74823604017183" stroke-miterlimit="10"/></g></g></svg>