<svg version="1.1" xmlns="http://www.w3.org/2000/svg" xmlns:xlink="http://www.w3.org/1999/xlink" width="642" height="997"><defs/><g><g transform="translate(-278,-14) scale(1,1)"><path fill="#C0C0C0" stroke="none" d="M 543 40.5 C 543 35.2532944 547.2532944 31 552.5 31 C 557.7467056 31 562 35.2532944 562 40.5 C 562 45.7467056 557.7467056 50 552.5 50 C 547.2532944 50 543 45.7467056 543 40.5 Z" opacity="0.2"/></g><g transform="translate(-278,-14) scale(1,1)"><path fill="#000000" stroke="none" d="M 536 33.5 C 536 28.2532944 540.2532944 24 545.5 24 C 550.7467056 24 555 28.2532944 555 33.5 C 555 38.7467056 550.7467056 43 545.5 43 C 540.2532944 43 536 38.7467056 536 33.5 Z"/></g><g transform="translate(-278,-14) scale(1,1)"><path fill="#C0C0C0" stroke="none" d="M 521 127 L 588 127 Q 598 127 598 137 L 598 157 Q 598 167 588 167 L 521 167 Q 511 167 511 157 L 511 137 Q 511 127 521 127 Z" opacity="0.2"/></g><g transform="translate(-278,-14) scale(1,1)"><path fill="#ffffff" stroke="none" d="M 514 120 L 581 120 Q 591 120 591 130 L 591 150 Q 591 160 581 160 L 514 160 Q 504 160 504 150 L 504 130 Q 504 120 514 120 Z"/></g><g transform="translate(-278,-14) scale(1,1)"><path fill="none" stroke="#000000" d="M 514 120 L 581 120 Q 591 120 591 130 L 591 150 Q 591 160 581 160 L 514 160 Q 504 160 504 150 L 504 130 Q 504 120 514 120 Z" stroke-miterlimit="10"/></g><g transform="translate(-278,-14) scale(1,1)"><g><path fill="none" stroke="none"/><text fill="#000000" stroke="none" font-family="Arial" font-size="13px" font-style="normal" font-weight="bold" text-decoration="none" x="508.5" y="139.5">输入注册账号</text></g></g><g transform="translate(-278,-14) scale(1,1)"><path fill="none" stroke="#000000" d="M 545 44 L 547 119" stroke-miterlimit="10"/></g><g transform="translate(-278,-14) scale(1,1)"><path fill="none" stroke="#000000" d="M 542.5210698066152 108.9531505275143 L 547 119 L 550.9371134793516 108.72872269624132" stroke-miterlimit="10"/></g><g transform="translate(-278,-14) scale(1,1)"><g><path fill="none" stroke="none"/><text fill="#000000" stroke="none" font-family="Arial" font-size="13px" font-style="normal" font-weight="normal" text-decoration="none" x="546.5" y="86.5">开始</text></g></g><g transform="translate(-278,-14) scale(1,1)"><path fill="#C0C0C0" stroke="none" d="M 449 231 L 659 231 Q 669 231 669 241 L 669 261 Q 669 271 659 271 L 449 271 Q 439 271 439 261 L 439 241 Q 439 231 449 231 Z" opacity="0.2"/></g><g transform="translate(-278,-14) scale(1,1)"><path fill="#ffffff" stroke="none" d="M 442 224 L 652 224 Q 662 224 662 234 L 662 254 Q 662 264 652 264 L 442 264 Q 432 264 432 254 L 432 234 Q 432 224 442 224 Z"/></g><g transform="translate(-278,-14) scale(1,1)"><path fill="none" stroke="#000000" d="M 442 224 L 652 224 Q 662 224 662 234 L 662 254 Q 662 264 652 264 L 442 264 Q 432 264 432 254 L 432 234 Q 432 224 442 224 Z" stroke-miterlimit="10"/></g><g transform="translate(-278,-14) scale(1,1)"><g><path fill="none" stroke="none"/><text fill="#000000" stroke="none" font-family="Arial" font-size="13px" font-style="normal" font-weight="bold" text-decoration="none" x="436.5" y="243.5">获取验证码，填写账号，验证码，密码</text></g></g><g transform="translate(-278,-14) scale(1,1)"><path fill="none" stroke="#000000" d="M 547 161 L 547 223" stroke-miterlimit="10"/></g><g transform="translate(-278,-14) scale(1,1)"><path fill="none" stroke="#000000" d="M 542.790482243984 212.83732514237585 L 547 223 L 551.209517756016 212.83732514237585" stroke-miterlimit="10"/></g><g transform="translate(-278,-14) scale(1,1)"><g><path fill="none" stroke="none"/><text fill="#000000" stroke="none" font-family="Arial" font-size="13px" font-style="normal" font-weight="normal" text-decoration="none" x="528.5" y="197.5">倒计时开始</text></g></g><g transform="translate(-278,-14) scale(1,1)"><path fill="#C0C0C0" stroke="none" d="M 519 359.5 L 555.5 335 L 591 359.5 L 555.5 383 L 519 359.5" opacity="0.2"/></g><g transform="translate(-278,-14) scale(1,1)"><path fill="#ffffff" stroke="none" d="M 512 352 L 548 328 L 584 352 L 548 376 L 512 352"/></g><g transform="translate(-278,-14) scale(1,1)"><path fill="none" stroke="#000000" d="M 512 352 L 548 328 L 584 352 L 548 376 L 512 352 L 512 352" stroke-miterlimit="10"/></g><g transform="translate(-278,-14) scale(1,1)"><path fill="none" stroke="#000000" d="M 547 265 L 548 327" stroke-miterlimit="10"/></g><g transform="translate(-278,-14) scale(1,1)"><path fill="none" stroke="#000000" d="M 543.6271368871173 316.90653339055456 L 548 327 L 552.045077524899 316.7707601544613" stroke-miterlimit="10"/></g><g transform="translate(-278,-14) scale(1,1)"><g><path fill="none" stroke="none"/><text fill="#000000" stroke="none" font-family="Arial" font-size="13px" font-style="normal" font-weight="normal" text-decoration="none" x="547.5" y="301.5">登录</text></g></g><g transform="translate(-278,-14) scale(1,1)"><path fill="#C0C0C0" stroke="none" d="M 817 343 L 897 343 Q 907 343 907 353 L 907 373 Q 907 383 897 383 L 817 383 Q 807 383 807 373 L 807 353 Q 807 343 817 343 Z" opacity="0.2"/></g><g transform="translate(-278,-14) scale(1,1)"><path fill="#ffffff" stroke="none" d="M 810 336 L 890 336 Q 900 336 900 346 L 900 366 Q 900 376 890 376 L 810 376 Q 800 376 800 366 L 800 346 Q 800 336 810 336 Z"/></g><g transform="translate(-278,-14) scale(1,1)"><path fill="none" stroke="#000000" d="M 810 336 L 890 336 Q 900 336 900 346 L 900 366 Q 900 376 890 376 L 810 376 Q 800 376 800 366 L 800 346 Q 800 336 810 336 Z" stroke-miterlimit="10"/></g><g transform="translate(-278,-14) scale(1,1)"><g><path fill="none" stroke="none"/><text fill="#000000" stroke="none" font-family="Arial" font-size="13px" font-style="normal" font-weight="bold" text-decoration="none" x="804.5" y="355.5">注册信息不规范</text></g></g><g transform="translate(-278,-14) scale(1,1)"><path fill="none" stroke="#000000" d="M 585 352 L 799 355" stroke-miterlimit="10"/></g><g transform="translate(-278,-14) scale(1,1)"><path fill="none" stroke="#000000" d="M 788.7793174651242 359.0666507744439 L 799 355 L 788.8973297319076 350.64844241056124" stroke-miterlimit="10"/></g><g transform="translate(-278,-14) scale(1,1)"><g><path fill="none" stroke="none"/><text fill="#000000" stroke="none" font-family="Arial" font-size="13px" font-style="normal" font-weight="normal" text-decoration="none" x="639.5" y="344.5">本地验证密码规范</text></g></g><g transform="translate(-278,-14) scale(1,1)"><path fill="none" stroke="#000000" d="M 856 336 L 856 248 L 662 248" stroke-miterlimit="10"/></g><g transform="translate(-278,-14) scale(1,1)"><path fill="none" stroke="#000000" d="M 672.1626748576241 243.790482243984 L 662 248 L 672.1626748576241 252.209517756016" stroke-miterlimit="10"/></g><g transform="translate(-278,-14) scale(1,1)"><g><path fill="none" stroke="none"/><text fill="#000000" stroke="none" font-family="Arial" font-size="13px" font-style="normal" font-weight="normal" text-decoration="none" x="774.5" y="243.5">重新填写注册信息</text></g></g><g transform="translate(-278,-14) scale(1,1)"><path fill="#C0C0C0" stroke="none" d="M 519 495.5 L 555.5 471 L 591 495.5 L 555.5 519 L 519 495.5" opacity="0.2"/></g><g transform="translate(-278,-14) scale(1,1)"><path fill="#ffffff" stroke="none" d="M 512 488 L 548 464 L 584 488 L 548 512 L 512 488"/></g><g transform="translate(-278,-14) scale(1,1)"><path fill="none" stroke="#000000" d="M 512 488 L 548 464 L 584 488 L 548 512 L 512 488 L 512 488" stroke-miterlimit="10"/></g><g transform="translate(-278,-14) scale(1,1)"><path fill="none" stroke="#000000" d="M 548 377 L 548 463" stroke-miterlimit="10"/></g><g transform="translate(-278,-14) scale(1,1)"><path fill="none" stroke="#000000" d="M 543.790482243984 452.83732514237585 L 548 463 L 552.209517756016 452.83732514237585" stroke-miterlimit="10"/></g><g transform="translate(-278,-14) scale(1,1)"><g><path fill="none" stroke="none"/><text fill="#000000" stroke="none" font-family="Arial" font-size="13px" font-style="normal" font-weight="normal" text-decoration="none" x="535.5" y="425.5">远程验证</text></g></g><g transform="translate(-278,-14) scale(1,1)"><path fill="#C0C0C0" stroke="none" d="M 305 479 L 346 479 Q 356 479 356 489 L 356 509 Q 356 519 346 519 L 305 519 Q 295 519 295 509 L 295 489 Q 295 479 305 479 Z" opacity="0.2"/></g><g transform="translate(-278,-14) scale(1,1)"><path fill="#ffffff" stroke="none" d="M 298 472 L 339 472 Q 349 472 349 482 L 349 502 Q 349 512 339 512 L 298 512 Q 288 512 288 502 L 288 482 Q 288 472 298 472 Z"/></g><g transform="translate(-278,-14) scale(1,1)"><path fill="none" stroke="#000000" d="M 298 472 L 339 472 Q 349 472 349 482 L 349 502 Q 349 512 339 512 L 298 512 Q 288 512 288 502 L 288 482 Q 288 472 298 472 Z" stroke-miterlimit="10"/></g><g transform="translate(-278,-14) scale(1,1)"><g><path fill="none" stroke="none"/><text fill="#000000" stroke="none" font-family="Arial" font-size="13px" font-style="normal" font-weight="bold" text-decoration="none" x="292.5" y="491.5">注册失败</text></g></g><g transform="translate(-278,-14) scale(1,1)"><path fill="none" stroke="#000000" d="M 318 472 L 318 136 L 504 136" stroke-miterlimit="10"/></g><g transform="translate(-278,-14) scale(1,1)"><path fill="none" stroke="#000000" d="M 493.83732514237585 140.209517756016 L 504 136 L 493.83732514237585 131.790482243984" stroke-miterlimit="10"/></g><g transform="translate(-278,-14) scale(1,1)"><g><path fill="none" stroke="none"/><text fill="#000000" stroke="none" font-family="Arial" font-size="13px" font-style="normal" font-weight="normal" text-decoration="none" x="310.5" y="132.5">重新填写注册信息</text></g></g><g transform="translate(-278,-14) scale(1,1)"><path fill="#C0C0C0" stroke="none" d="M 505 599 L 611 599 Q 621 599 621 609 L 621 629 Q 621 639 611 639 L 505 639 Q 495 639 495 629 L 495 609 Q 495 599 505 599 Z" opacity="0.2"/></g><g transform="translate(-278,-14) scale(1,1)"><path fill="#ffffff" stroke="none" d="M 498 592 L 604 592 Q 614 592 614 602 L 614 622 Q 614 632 604 632 L 498 632 Q 488 632 488 622 L 488 602 Q 488 592 498 592 Z"/></g><g transform="translate(-278,-14) scale(1,1)"><path fill="none" stroke="#000000" d="M 498 592 L 604 592 Q 614 592 614 602 L 614 622 Q 614 632 604 632 L 498 632 Q 488 632 488 622 L 488 602 Q 488 592 498 592 Z" stroke-miterlimit="10"/></g><g transform="translate(-278,-14) scale(1,1)"><g><path fill="none" stroke="none"/><text fill="#000000" stroke="none" font-family="Arial" font-size="13px" font-style="normal" font-weight="bold" text-decoration="none" x="492.5" y="611.5">填写注册的详细资料</text></g></g><g transform="translate(-278,-14) scale(1,1)"><path fill="#C0C0C0" stroke="none" d="M 519 735.5 L 555.5 711 L 591 735.5 L 555.5 759 L 519 735.5" opacity="0.2"/></g><g transform="translate(-278,-14) scale(1,1)"><path fill="#ffffff" stroke="none" d="M 512 728 L 548 704 L 584 728 L 548 752 L 512 728"/></g><g transform="translate(-278,-14) scale(1,1)"><path fill="none" stroke="#000000" d="M 512 728 L 548 704 L 584 728 L 548 752 L 512 728 L 512 728" stroke-miterlimit="10"/></g><g transform="translate(-278,-14) scale(1,1)"><path fill="none" stroke="#000000" d="M 550 633 L 549 703" stroke-miterlimit="10"/></g><g transform="translate(-278,-14) scale(1,1)"><path fill="none" stroke="#000000" d="M 544.936077978144 692.7782321587569 L 549 703 L 553.3542545363899 692.8984918238746" stroke-miterlimit="10"/></g><g transform="translate(-278,-14) scale(1,1)"><g><path fill="none" stroke="none"/><text fill="#000000" stroke="none" font-family="Arial" font-size="13px" font-style="normal" font-weight="normal" text-decoration="none" x="549.5" y="673.5">确定</text></g></g><g transform="translate(-278,-14) scale(1,1)"><path fill="#C0C0C0" stroke="none" d="M 801 711 L 907 711 Q 917 711 917 721 L 917 741 Q 917 751 907 751 L 801 751 Q 791 751 791 741 L 791 721 Q 791 711 801 711 Z" opacity="0.2"/></g><g transform="translate(-278,-14) scale(1,1)"><path fill="#ffffff" stroke="none" d="M 794 704 L 900 704 Q 910 704 910 714 L 910 734 Q 910 744 900 744 L 794 744 Q 784 744 784 734 L 784 714 Q 784 704 794 704 Z"/></g><g transform="translate(-278,-14) scale(1,1)"><path fill="none" stroke="#000000" d="M 794 704 L 900 704 Q 910 704 910 714 L 910 734 Q 910 744 900 744 L 794 744 Q 784 744 784 734 L 784 714 Q 784 704 794 704 Z" stroke-miterlimit="10"/></g><g transform="translate(-278,-14) scale(1,1)"><g><path fill="none" stroke="none"/><text fill="#000000" stroke="none" font-family="Arial" font-size="13px" font-style="normal" font-weight="bold" text-decoration="none" x="788.5" y="723.5">个人资料填写不规范</text></g></g><g transform="translate(-278,-14) scale(1,1)"><path fill="none" stroke="#000000" d="M 585 728 L 783 725" stroke-miterlimit="10"/></g><g transform="translate(-278,-14) scale(1,1)"><path fill="none" stroke="#000000" d="M 772.9022647084481 729.3629969037061 L 783 725 L 772.7747182038105 720.9449275976234" stroke-miterlimit="10"/></g><g transform="translate(-278,-14) scale(1,1)"><g><path fill="none" stroke="none"/><text fill="#000000" stroke="none" font-family="Arial" font-size="13px" font-style="normal" font-weight="normal" text-decoration="none" x="630.5" y="717.5">本地验证信息规范</text></g></g><g transform="translate(-278,-14) scale(1,1)"><path fill="none" stroke="#000000" d="M 856 704 L 856 608 L 614 608" stroke-miterlimit="10"/></g><g transform="translate(-278,-14) scale(1,1)"><path fill="none" stroke="#000000" d="M 624.1626748576241 603.790482243984 L 614 608 L 624.1626748576241 612.209517756016" stroke-miterlimit="10"/></g><g transform="translate(-278,-14) scale(1,1)"><g><path fill="none" stroke="none"/><text fill="#000000" stroke="none" font-family="Arial" font-size="13px" font-style="normal" font-weight="normal" text-decoration="none" x="749" y="603.5">重新填写整个人资料</text></g></g><g transform="translate(-278,-14) scale(1,1)"><path fill="#C0C0C0" stroke="none" d="M 497 863 L 620 863 Q 630 863 630 873 L 630 893 Q 630 903 620 903 L 497 903 Q 487 903 487 893 L 487 873 Q 487 863 497 863 Z" opacity="0.2"/></g><g transform="translate(-278,-14) scale(1,1)"><path fill="#ffffff" stroke="none" d="M 490 856 L 613 856 Q 623 856 623 866 L 623 886 Q 623 896 613 896 L 490 896 Q 480 896 480 886 L 480 866 Q 480 856 490 856 Z"/></g><g transform="translate(-278,-14) scale(1,1)"><path fill="none" stroke="#000000" d="M 490 856 L 613 856 Q 623 856 623 866 L 623 886 Q 623 896 613 896 L 490 896 Q 480 896 480 886 L 480 866 Q 480 856 490 856 Z" stroke-miterlimit="10"/></g><g transform="translate(-278,-14) scale(1,1)"><g><path fill="none" stroke="none"/><text fill="#000000" stroke="none" font-family="Arial" font-size="13px" font-style="normal" font-weight="bold" text-decoration="none" x="525.5" y="875.5">注册成功</text></g></g><g transform="translate(-278,-14) scale(1,1)"><path fill="none" stroke="#000000" d="M 549 753 L 551 855" stroke-miterlimit="10"/></g><g transform="translate(-278,-14) scale(1,1)"><path fill="none" stroke="#000000" d="M 546.592061382689 844.9218018899201 L 551 855 L 555.0094789384244 844.7567544868664" stroke-miterlimit="10"/></g><g transform="translate(-278,-14) scale(1,1)"><g><path fill="none" stroke="none"/><text fill="#000000" stroke="none" font-family="Arial" font-size="13px" font-style="normal" font-weight="normal" text-decoration="none" x="537.5" y="809.5">远程验证</text></g></g><g transform="translate(-278,-14) scale(1,1)"><path fill="#C0C0C0" stroke="none" d="M 551 995.5 C 551 988.59644 556.59644 983 563.5 983 C 570.40356 983 576 988.59644 576 995.5 C 576 1002.40356 570.40356 1008 563.5 1008 C 556.59644 1008 551 1002.40356 551 995.5 Z" opacity="0.2"/></g><g transform="translate(-278,-14) scale(1,1)"><path fill="none" stroke="#000000" d="M 544 988.5 C 544 981.59644 549.59644 976 556.5 976 C 563.40356 976 569 981.59644 569 988.5 C 569 995.40356 563.40356 1001 556.5 1001 C 549.59644 1001 544 995.40356 544 988.5 Z" stroke-miterlimit="10"/></g><g transform="translate(-278,-14) scale(1,1)"><path fill="#000000" stroke="none" d="M 549 988.5 C 549 984.357864 552.357864 981 556.5 981 C 560.642136 981 564 984.357864 564 988.5 C 564 992.642136 560.642136 996 556.5 996 C 552.357864 996 549 992.642136 549 988.5 Z"/></g><g transform="translate(-278,-14) scale(1,1)"><path fill="none" stroke="#000000" d="M 552 897 L 555 975" stroke-miterlimit="10"/></g><g transform="translate(-278,-14) scale(1,1)"><path fill="none" stroke="#000000" d="M 550.4030090188141 965.0066184942785 L 555 975 L 558.8158243338299 964.6830486744702" stroke-miterlimit="10"/></g><g transform="translate(-278,-14) scale(1,1)"><g><path fill="none" stroke="none"/><text fill="#000000" stroke="none" font-family="Arial" font-size="13px" font-style="normal" font-weight="normal" text-decoration="none" x="553.5" y="941.5">结束</text></g></g><g transform="translate(-278,-14) scale(1,1)"><path fill="none" stroke="#000000" d="M 511 489 L 350 491" stroke-miterlimit="10"/></g><g transform="translate(-278,-14) scale(1,1)"><path fill="none" stroke="#000000" d="M 360.1096027098334 486.6645723337449 L 350 491 L 360.2141789333778 495.0829583290723" stroke-miterlimit="10"/></g><g transform="translate(-278,-14) scale(1,1)"><path fill="none" stroke="#000000" d="M 549 513 L 550 591" stroke-miterlimit="10"/></g><g transform="translate(-278,-14) scale(1,1)"><path fill="none" stroke="#000000" d="M 545.6605481542205 580.8921239778992 L 550 591 L 554.0788918518372 580.7841964945964" stroke-miterlimit="10"/></g></g></svg>