<svg version="1.1" xmlns="http://www.w3.org/2000/svg" xmlns:xlink="http://www.w3.org/1999/xlink" width="1231.08544921875" height="805"><defs/><g><g transform="translate(-30,-190) scale(1,1)"><rect fill="#C0C0C0" stroke="none" x="407" y="487" width="218.61865234375" height="220" opacity="0.2"/></g><g transform="translate(-30,-190) scale(1,1)"><rect fill="#d8fff8" stroke="none" x="400" y="480" width="218.61865234375" height="220"/></g><g transform="translate(-30,-190) scale(1,1)"><path fill="none" stroke="#000000" d="M 400 480 L 618.61865234375 480 L 618.61865234375 700 L 400 700 L 400 480 Z Z" stroke-miterlimit="10"/></g><g transform="translate(-30,-190) scale(1,1)"><path fill="none" stroke="#000000" d="M 400 505 L 618.61865234375 505" stroke-miterlimit="10"/></g><g transform="translate(-30,-190) scale(1,1)"><path fill="none" stroke="#000000" d="M 400 558 L 618.61865234375 558" stroke-miterlimit="10"/></g><g transform="translate(-30,-190) scale(1,1)"><g><path fill="none" stroke="none"/><text fill="#000000" stroke="none" font-family="Arial" font-size="13px" font-style="normal" font-weight="bold" text-decoration="none" x="437.309326171875" y="499.5">WACollectViewController</text></g></g><g transform="translate(-30,-190) scale(1,1)"><g><path fill="none" stroke="none"/><text fill="#000000" stroke="none" font-family="Arial" font-size="13px" font-style="normal" font-weight="normal" text-decoration="none" x="405" y="522.5">-coreDataTool</text></g></g><g transform="translate(-30,-190) scale(1,1)"><g><path fill="none" stroke="none"/><text fill="#000000" stroke="none" font-family="Arial" font-size="13px" font-style="normal" font-weight="normal" text-decoration="none" x="405" y="537.5">+isShowCacheData</text></g></g><g transform="translate(-30,-190) scale(1,1)"><g><path fill="none" stroke="none"/><text fill="#000000" stroke="none" font-family="Arial" font-size="13px" font-style="normal" font-weight="normal" text-decoration="none" x="405" y="552.5">+imageUrl</text></g></g><g transform="translate(-30,-190) scale(1,1)"><g><path fill="none" stroke="none"/><text fill="#000000" stroke="none" font-family="Arial" font-size="13px" font-style="normal" font-weight="normal" text-decoration="none" x="405" y="575.5">-updateNavUI()</text></g></g><g transform="translate(-30,-190) scale(1,1)"><g><path fill="none" stroke="none"/><text fill="#000000" stroke="none" font-family="Arial" font-size="13px" font-style="normal" font-weight="normal" text-decoration="none" x="405" y="590.5">-clearCollectedData()</text></g></g><g transform="translate(-30,-190) scale(1,1)"><g><path fill="none" stroke="none"/><text fill="#000000" stroke="none" font-family="Arial" font-size="13px" font-style="normal" font-weight="normal" text-decoration="none" x="405" y="605.5">-textFieldShouldBeginEditing()</text></g></g><g transform="translate(-30,-190) scale(1,1)"><g><path fill="none" stroke="none"/><text fill="#000000" stroke="none" font-family="Arial" font-size="13px" font-style="normal" font-weight="normal" text-decoration="none" x="405" y="620.5">-scanIdentifyCardAction()</text></g></g><g transform="translate(-30,-190) scale(1,1)"><g><path fill="none" stroke="none"/><text fill="#000000" stroke="none" font-family="Arial" font-size="13px" font-style="normal" font-weight="normal" text-decoration="none" x="405" y="635.5">-cacheHistoryAction()</text></g></g><g transform="translate(-30,-190) scale(1,1)"><g><path fill="none" stroke="none"/><text fill="#000000" stroke="none" font-family="Arial" font-size="13px" font-style="normal" font-weight="normal" text-decoration="none" x="405" y="650.5">-cacheMessageAction()</text></g></g><g transform="translate(-30,-190) scale(1,1)"><g><path fill="none" stroke="none"/><text fill="#000000" stroke="none" font-family="Arial" font-size="13px" font-style="normal" font-weight="normal" text-decoration="none" x="405" y="665.5">-commitCollectMessageAction()</text></g></g><g transform="translate(-30,-190) scale(1,1)"><g><path fill="none" stroke="none"/><text fill="#000000" stroke="none" font-family="Arial" font-size="13px" font-style="normal" font-weight="normal" text-decoration="none" x="405" y="680.5">-judgeCollectMessageComplete()</text></g></g><g transform="translate(-30,-190) scale(1,1)"><g><path fill="none" stroke="none"/><text fill="#000000" stroke="none" font-family="Arial" font-size="13px" font-style="normal" font-weight="normal" text-decoration="none" x="405" y="695.5">-uploadMessageData()</text></g></g><g transform="translate(-30,-190) scale(1,1)"><rect fill="#C0C0C0" stroke="none" x="47" y="351" width="242.67626953125" height="117" opacity="0.2"/></g><g transform="translate(-30,-190) scale(1,1)"><rect fill="#ffffff" stroke="none" x="40" y="344" width="242.67626953125" height="117"/></g><g transform="translate(-30,-190) scale(1,1)"><path fill="none" stroke="#000000" d="M 40 344 L 282.67626953125 344 L 282.67626953125 461 L 40 461 L 40 344 Z Z" stroke-miterlimit="10"/></g><g transform="translate(-30,-190) scale(1,1)"><path fill="none" stroke="#000000" d="M 40 369 L 282.67626953125 369" stroke-miterlimit="10"/></g><g transform="translate(-30,-190) scale(1,1)"><path fill="none" stroke="#000000" d="M 40 379 L 282.67626953125 379" stroke-miterlimit="10"/></g><g transform="translate(-30,-190) scale(1,1)"><g><path fill="none" stroke="none"/><text fill="#000000" stroke="none" font-family="Arial" font-size="13px" font-style="normal" font-weight="bold" text-decoration="none" x="121.838134765625" y="363.5">CoreDataTool</text></g></g><g transform="translate(-30,-190) scale(1,1)"><g><path fill="none" stroke="none"/><text fill="#000000" stroke="none" font-family="Arial" font-size="13px" font-style="normal" font-weight="normal" text-decoration="none" x="45" y="396.5">+shareManager()</text></g></g><g transform="translate(-30,-190) scale(1,1)"><g><path fill="none" stroke="none"/><text fill="#000000" stroke="none" font-family="Arial" font-size="13px" font-style="normal" font-weight="normal" text-decoration="none" x="45" y="411.5">+createEmptyObjectWithEntityName()</text></g></g><g transform="translate(-30,-190) scale(1,1)"><g><path fill="none" stroke="none"/><text fill="#000000" stroke="none" font-family="Arial" font-size="13px" font-style="normal" font-weight="normal" text-decoration="none" x="45" y="426.5">+deleteObject()</text></g></g><g transform="translate(-30,-190) scale(1,1)"><g><path fill="none" stroke="none"/><text fill="#000000" stroke="none" font-family="Arial" font-size="13px" font-style="normal" font-weight="normal" text-decoration="none" x="45" y="441.5">+deleteAllObjectWithEntityName()</text></g></g><g transform="translate(-30,-190) scale(1,1)"><g><path fill="none" stroke="none"/><text fill="#000000" stroke="none" font-family="Arial" font-size="13px" font-style="normal" font-weight="normal" text-decoration="none" x="45" y="456.5">+save()</text></g></g><g transform="translate(-30,-190) scale(1,1)"><path fill="none" stroke="#000000" d="M 272 462 L 399 531" stroke-miterlimit="10"/></g><g transform="translate(-30,-190) scale(1,1)"><path fill="none" stroke="#000000" d="M 388.0605715474458 529.8472185239829 L 399 531 L 392.0797955578118 522.449516359976" stroke-miterlimit="10"/></g><g transform="translate(-30,-190) scale(1,1)"><rect fill="#C0C0C0" stroke="none" x="111" y="535" width="159.8330078125" height="70" opacity="0.2"/></g><g transform="translate(-30,-190) scale(1,1)"><rect fill="#ffffff" stroke="none" x="104" y="528" width="159.8330078125" height="70"/></g><g transform="translate(-30,-190) scale(1,1)"><path fill="none" stroke="#000000" d="M 104 528 L 263.8330078125 528 L 263.8330078125 598 L 104 598 L 104 528 Z Z" stroke-miterlimit="10"/></g><g transform="translate(-30,-190) scale(1,1)"><path fill="none" stroke="#000000" d="M 104 553 L 263.8330078125 553" stroke-miterlimit="10"/></g><g transform="translate(-30,-190) scale(1,1)"><path fill="none" stroke="#000000" d="M 104 576 L 263.8330078125 576" stroke-miterlimit="10"/></g><g transform="translate(-30,-190) scale(1,1)"><g><path fill="none" stroke="none"/><text fill="#000000" stroke="none" font-family="Arial" font-size="13px" font-style="normal" font-weight="bold" text-decoration="none" x="119.41650390625" y="547.5">MSTIdentifierValidator</text></g></g><g transform="translate(-30,-190) scale(1,1)"><g><path fill="none" stroke="none"/><text fill="#000000" stroke="none" font-family="Arial" font-size="13px" font-style="normal" font-weight="normal" text-decoration="none" x="109" y="570.5">+IdentifierType</text></g></g><g transform="translate(-30,-190) scale(1,1)"><g><path fill="none" stroke="none"/><text fill="#000000" stroke="none" font-family="Arial" font-size="13px" font-style="normal" font-weight="normal" text-decoration="none" x="109" y="593.5">+isValid value()</text></g></g><g transform="translate(-30,-190) scale(1,1)"><path fill="none" stroke="#000000" d="M 265 570 L 399 581" stroke-miterlimit="10"/></g><g transform="translate(-30,-190) scale(1,1)"><path fill="none" stroke="#000000" d="M 388.52699565554695 584.3639530319355 L 399 581 L 389.2157936081665 575.9731416091157" stroke-miterlimit="10"/></g><g transform="translate(-30,-190) scale(1,1)"><rect fill="#C0C0C0" stroke="none" x="623" y="207" width="157.14794921875" height="80" opacity="0.2"/></g><g transform="translate(-30,-190) scale(1,1)"><rect fill="#ffffff" stroke="none" x="616" y="200" width="157.14794921875" height="80"/></g><g transform="translate(-30,-190) scale(1,1)"><path fill="none" stroke="#000000" d="M 616 200 L 773.14794921875 200 L 773.14794921875 280 L 616 280 L 616 200 Z Z" stroke-miterlimit="10"/></g><g transform="translate(-30,-190) scale(1,1)"><path fill="none" stroke="#000000" d="M 616 225 L 773.14794921875 225" stroke-miterlimit="10"/></g><g transform="translate(-30,-190) scale(1,1)"><path fill="none" stroke="#000000" d="M 616 235 L 773.14794921875 235" stroke-miterlimit="10"/></g><g transform="translate(-30,-190) scale(1,1)"><g><path fill="none" stroke="none"/><text fill="#000000" stroke="none" font-family="Arial" font-size="13px" font-style="normal" font-weight="bold" text-decoration="none" x="643.573974609375" y="219.5">WAClient  Collect</text></g></g><g transform="translate(-30,-190) scale(1,1)"><g><path fill="none" stroke="none"/><text fill="#000000" stroke="none" font-family="Arial" font-size="13px" font-style="normal" font-weight="normal" text-decoration="none" x="621" y="252.5">+fetchCollectWithCard()</text></g></g><g transform="translate(-30,-190) scale(1,1)"><path fill="none" stroke="#000000" d="M 672 281 L 568 479" stroke-miterlimit="10"/></g><g transform="translate(-30,-190) scale(1,1)"><path fill="none" stroke="#000000" d="M 568.9990259617205 468.0454599764386 L 568 479 L 576.4524475675537 471.9603884966742" stroke-miterlimit="10"/></g><g transform="translate(-30,-190) scale(1,1)"><rect fill="#C0C0C0" stroke="none" x="879" y="207" width="135.70556640625" height="160" opacity="0.2"/></g><g transform="translate(-30,-190) scale(1,1)"><rect fill="#ffffff" stroke="none" x="872" y="200" width="135.70556640625" height="160"/></g><g transform="translate(-30,-190) scale(1,1)"><path fill="none" stroke="#000000" d="M 872 200 L 1007.70556640625 200 L 1007.70556640625 360 L 872 360 L 872 200 Z Z" stroke-miterlimit="10"/></g><g transform="translate(-30,-190) scale(1,1)"><path fill="none" stroke="#000000" d="M 872 225 L 1007.70556640625 225" stroke-miterlimit="10"/></g><g transform="translate(-30,-190) scale(1,1)"><path fill="none" stroke="#000000" d="M 872 323 L 1007.70556640625 323" stroke-miterlimit="10"/></g><g transform="translate(-30,-190) scale(1,1)"><g><path fill="none" stroke="none"/><text fill="#000000" stroke="none" font-family="Arial" font-size="13px" font-style="normal" font-weight="bold" text-decoration="none" x="898.352783203125" y="219.5">WACollectInfo</text></g></g><g transform="translate(-30,-190) scale(1,1)"><g><path fill="none" stroke="none"/><text fill="#000000" stroke="none" font-family="Arial" font-size="13px" font-style="normal" font-weight="normal" text-decoration="none" x="877" y="242.5">+cardNum</text></g></g><g transform="translate(-30,-190) scale(1,1)"><g><path fill="none" stroke="none"/><text fill="#000000" stroke="none" font-family="Arial" font-size="13px" font-style="normal" font-weight="normal" text-decoration="none" x="877" y="257.5">+nameBy</text></g></g><g transform="translate(-30,-190) scale(1,1)"><g><path fill="none" stroke="none"/><text fill="#000000" stroke="none" font-family="Arial" font-size="13px" font-style="normal" font-weight="normal" text-decoration="none" x="877" y="272.5">+sexBy</text></g></g><g transform="translate(-30,-190) scale(1,1)"><g><path fill="none" stroke="none"/><text fill="#000000" stroke="none" font-family="Arial" font-size="13px" font-style="normal" font-weight="normal" text-decoration="none" x="877" y="287.5">+placeBy 户籍所在地</text></g></g><g transform="translate(-30,-190) scale(1,1)"><g><path fill="none" stroke="none"/><text fill="#000000" stroke="none" font-family="Arial" font-size="13px" font-style="normal" font-weight="normal" text-decoration="none" x="877" y="302.5">+location  采集地址</text></g></g><g transform="translate(-30,-190) scale(1,1)"><g><path fill="none" stroke="none"/><text fill="#000000" stroke="none" font-family="Arial" font-size="13px" font-style="normal" font-weight="normal" text-decoration="none" x="877" y="317.5">+createDate</text></g></g><g transform="translate(-30,-190) scale(1,1)"><g><path fill="none" stroke="none"/><text fill="#000000" stroke="none" font-family="Arial" font-size="13px" font-style="normal" font-weight="normal" text-decoration="none" x="877" y="340.5">+initWithCoder()</text></g></g><g transform="translate(-30,-190) scale(1,1)"><g><path fill="none" stroke="none"/><text fill="#000000" stroke="none" font-family="Arial" font-size="13px" font-style="normal" font-weight="normal" text-decoration="none" x="877" y="355.5">+encodeWithCoder()</text></g></g><g transform="translate(-30,-190) scale(1,1)"><path fill="none" stroke="#000000" d="M 871 329 L 620 510" stroke-miterlimit="10"/></g><g transform="translate(-30,-190) scale(1,1)"><path fill="none" stroke="#000000" d="M 625.780848213113 500.6414854844934 L 620 510 L 630.7051460482498 507.4702078967549" stroke-miterlimit="10"/></g><g transform="translate(-30,-190) scale(1,1)"><rect fill="#C0C0C0" stroke="none" x="119" y="687" width="204" height="72" opacity="0.2"/></g><g transform="translate(-30,-190) scale(1,1)"><rect fill="#ffe2d8" stroke="none" x="112" y="680" width="204" height="72"/></g><g transform="translate(-30,-190) scale(1,1)"><path fill="none" stroke="#000000" d="M 112 680 L 316 680 L 316 752 L 112 752 L 112 680 Z Z" stroke-miterlimit="10"/></g><g transform="translate(-30,-190) scale(1,1)"><path fill="none" stroke="#000000" d="M 112 705 L 316 705" stroke-miterlimit="10"/></g><g transform="translate(-30,-190) scale(1,1)"><path fill="none" stroke="#000000" d="M 112 715 L 316 715" stroke-miterlimit="10"/></g><g transform="translate(-30,-190) scale(1,1)"><g><path fill="none" stroke="none"/><text fill="#000000" stroke="none" font-family="Arial" font-size="13px" font-style="normal" font-weight="bold" text-decoration="none" x="141" y="699.5">AVCaptureViewController</text></g></g><g transform="translate(-30,-190) scale(1,1)"><g><path fill="none" stroke="none"/><text fill="#000000" stroke="none" font-family="Arial" font-size="13px" font-style="normal" font-weight="normal" text-decoration="none" x="117" y="732.5">+setScanIdCardSuccedBlock()</text></g></g><g transform="translate(-30,-190) scale(1,1)"><path fill="none" stroke="#000000" d="M 301 679 L 399 637" stroke-miterlimit="10"/></g><g transform="translate(-30,-190) scale(1,1)"><path fill="none" stroke="#000000" d="M 391.31723819473166 644.8724310758183 L 399 637 L 388.00081763111893 637.1341164273886" stroke-miterlimit="10"/></g><g transform="translate(-30,-190) scale(1,1)"><rect fill="#C0C0C0" stroke="none" x="879" y="559" width="256.51123046875" height="190" opacity="0.2"/></g><g transform="translate(-30,-190) scale(1,1)"><rect fill="#d8d8ff" stroke="none" x="872" y="552" width="256.51123046875" height="190"/></g><g transform="translate(-30,-190) scale(1,1)"><path fill="none" stroke="#000000" d="M 872 552 L 1128.51123046875 552 L 1128.51123046875 742 L 872 742 L 872 552 Z Z" stroke-miterlimit="10"/></g><g transform="translate(-30,-190) scale(1,1)"><path fill="none" stroke="#000000" d="M 872 577 L 1128.51123046875 577" stroke-miterlimit="10"/></g><g transform="translate(-30,-190) scale(1,1)"><path fill="none" stroke="#000000" d="M 872 630 L 1128.51123046875 630" stroke-miterlimit="10"/></g><g transform="translate(-30,-190) scale(1,1)"><g><path fill="none" stroke="none"/><text fill="#000000" stroke="none" font-family="Arial" font-size="13px" font-style="normal" font-weight="bold" text-decoration="none" x="889.755615234375" y="571.5">WACollectListViewController 采集记录</text></g></g><g transform="translate(-30,-190) scale(1,1)"><g><path fill="none" stroke="none"/><text fill="#000000" stroke="none" font-family="Arial" font-size="13px" font-style="normal" font-weight="normal" text-decoration="none" x="877" y="594.5">-footerView</text></g></g><g transform="translate(-30,-190) scale(1,1)"><g><path fill="none" stroke="none"/><text fill="#000000" stroke="none" font-family="Arial" font-size="13px" font-style="normal" font-weight="normal" text-decoration="none" x="877" y="609.5">~selectDataArray</text></g></g><g transform="translate(-30,-190) scale(1,1)"><g><path fill="none" stroke="none"/><text fill="#000000" stroke="none" font-family="Arial" font-size="13px" font-style="normal" font-weight="normal" text-decoration="none" x="877" y="624.5">-dataArray</text></g></g><g transform="translate(-30,-190) scale(1,1)"><g><path fill="none" stroke="none"/><text fill="#000000" stroke="none" font-family="Arial" font-size="13px" font-style="normal" font-weight="normal" text-decoration="none" x="877" y="647.5">-updateNavUI()</text></g></g><g transform="translate(-30,-190) scale(1,1)"><g><path fill="none" stroke="none"/><text fill="#000000" stroke="none" font-family="Arial" font-size="13px" font-style="normal" font-weight="normal" text-decoration="none" x="877" y="662.5">-updateTableViewUI()</text></g></g><g transform="translate(-30,-190) scale(1,1)"><g><path fill="none" stroke="none"/><text fill="#000000" stroke="none" font-family="Arial" font-size="13px" font-style="normal" font-weight="normal" text-decoration="none" x="877" y="677.5">-updateFooterViewUI()</text></g></g><g transform="translate(-30,-190) scale(1,1)"><g><path fill="none" stroke="none"/><text fill="#000000" stroke="none" font-family="Arial" font-size="13px" font-style="normal" font-weight="normal" text-decoration="none" x="877" y="692.5">-deleteCacheDataAction()</text></g></g><g transform="translate(-30,-190) scale(1,1)"><g><path fill="none" stroke="none"/><text fill="#000000" stroke="none" font-family="Arial" font-size="13px" font-style="normal" font-weight="normal" text-decoration="none" x="877" y="707.5">-selectAllAction()</text></g></g><g transform="translate(-30,-190) scale(1,1)"><g><path fill="none" stroke="none"/><text fill="#000000" stroke="none" font-family="Arial" font-size="13px" font-style="normal" font-weight="normal" text-decoration="none" x="877" y="722.5">-commitCollectDataAction()</text></g></g><g transform="translate(-30,-190) scale(1,1)"><g><path fill="none" stroke="none"/><text fill="#000000" stroke="none" font-family="Arial" font-size="13px" font-style="normal" font-weight="normal" text-decoration="none" x="877" y="737.5">-fetchUpLoadCacheData()</text></g></g><g transform="translate(-30,-190) scale(1,1)"><path fill="none" stroke="#000000" d="M 725 281 L 928 551" stroke-miterlimit="10"/></g><g transform="translate(-30,-190) scale(1,1)"><path fill="none" stroke="#000000" d="M 918.5281511336952 545.4067827635715 L 928 551 L 925.2573932727898 540.3473895997337" stroke-miterlimit="10"/></g><g transform="translate(-30,-190) scale(1,1)"><path fill="none" stroke="#000000" d="M 952 361 L 984 551" stroke-miterlimit="10"/></g><g transform="translate(-30,-190) scale(1,1)"><path fill="none" stroke="#000000" d="M 978.1611067805032 541.6775901199682 L 984 551 L 986.4632182530406 540.2793397666987" stroke-miterlimit="10"/></g><g transform="translate(-30,-190) scale(1,1)"><rect fill="#C0C0C0" stroke="none" x="1079" y="391" width="179.08544921875" height="87" opacity="0.2"/></g><g transform="translate(-30,-190) scale(1,1)"><rect fill="#ffffff" stroke="none" x="1072" y="384" width="179.08544921875" height="87"/></g><g transform="translate(-30,-190) scale(1,1)"><path fill="none" stroke="#000000" d="M 1072 384 L 1251.08544921875 384 L 1251.08544921875 471 L 1072 471 L 1072 384 Z Z" stroke-miterlimit="10"/></g><g transform="translate(-30,-190) scale(1,1)"><path fill="none" stroke="#000000" d="M 1072 409 L 1251.08544921875 409" stroke-miterlimit="10"/></g><g transform="translate(-30,-190) scale(1,1)"><path fill="none" stroke="#000000" d="M 1072 419 L 1251.08544921875 419" stroke-miterlimit="10"/></g><g transform="translate(-30,-190) scale(1,1)"><g><path fill="none" stroke="none"/><text fill="#000000" stroke="none" font-family="Arial" font-size="13px" font-style="normal" font-weight="bold" text-decoration="none" x="1109.542724609375" y="403.5">WACollectListCell</text></g></g><g transform="translate(-30,-190) scale(1,1)"><g><path fill="none" stroke="none"/><text fill="#000000" stroke="none" font-family="Arial" font-size="13px" font-style="normal" font-weight="normal" text-decoration="none" x="1077" y="436.5">+updateViewWithSelectAll()</text></g></g><g transform="translate(-30,-190) scale(1,1)"><g><path fill="none" stroke="none"/><text fill="#000000" stroke="none" font-family="Arial" font-size="13px" font-style="normal" font-weight="normal" text-decoration="none" x="1077" y="451.5">+updateViewWithSelect()</text></g></g><g transform="translate(-30,-190) scale(1,1)"><g><path fill="none" stroke="none"/><text fill="#000000" stroke="none" font-family="Arial" font-size="13px" font-style="normal" font-weight="normal" text-decoration="none" x="1077" y="466.5">+updateViewWithData()</text></g></g><g transform="translate(-30,-190) scale(1,1)"><path fill="none" stroke="#000000" d="M 1128 472 L 1070 551" stroke-miterlimit="10"/></g><g transform="translate(-30,-190) scale(1,1)"><path fill="#000000" stroke="none" d="M 1072.6211210846764 540.316848580149 L 1070 551 L 1079.407541306705 545.2992836798662 L 1083.0197303523814 533.2662293476183"/></g><g transform="translate(-30,-190) scale(1,1)"><path fill="none" stroke="#000000" d="M 1072.6211210846764 540.316848580149 L 1070 551 L 1079.407541306705 545.2992836798662 L 1083.0197303523814 533.2662293476183 L 1072.6211210846764 540.316848580149" stroke-miterlimit="10"/></g><g transform="translate(-30,-190) scale(1,1)"><rect fill="#C0C0C0" stroke="none" x="591" y="847" width="233.80859375" height="145" opacity="0.2"/></g><g transform="translate(-30,-190) scale(1,1)"><rect fill="#ffffd8" stroke="none" x="584" y="840" width="233.80859375" height="145"/></g><g transform="translate(-30,-190) scale(1,1)"><path fill="none" stroke="#000000" d="M 584 840 L 817.80859375 840 L 817.80859375 985 L 584 985 L 584 840 Z Z" stroke-miterlimit="10"/></g><g transform="translate(-30,-190) scale(1,1)"><path fill="none" stroke="#000000" d="M 584 865 L 817.80859375 865" stroke-miterlimit="10"/></g><g transform="translate(-30,-190) scale(1,1)"><path fill="none" stroke="#000000" d="M 584 903 L 817.80859375 903" stroke-miterlimit="10"/></g><g transform="translate(-30,-190) scale(1,1)"><g><path fill="none" stroke="none"/><text fill="#000000" stroke="none" font-family="Arial" font-size="13px" font-style="normal" font-weight="bold" text-decoration="none" x="602.404296875" y="859.5">WACollectMessageViewController</text></g></g><g transform="translate(-30,-190) scale(1,1)"><g><path fill="none" stroke="none"/><text fill="#000000" stroke="none" font-family="Arial" font-size="13px" font-style="normal" font-weight="normal" text-decoration="none" x="589" y="882.5">+collectInfo</text></g></g><g transform="translate(-30,-190) scale(1,1)"><g><path fill="none" stroke="none"/><text fill="#000000" stroke="none" font-family="Arial" font-size="13px" font-style="normal" font-weight="normal" text-decoration="none" x="589" y="897.5">-footerView</text></g></g><g transform="translate(-30,-190) scale(1,1)"><g><path fill="none" stroke="none"/><text fill="#000000" stroke="none" font-family="Arial" font-size="13px" font-style="normal" font-weight="normal" text-decoration="none" x="589" y="920.5">-updateTableViewData()</text></g></g><g transform="translate(-30,-190) scale(1,1)"><g><path fill="none" stroke="none"/><text fill="#000000" stroke="none" font-family="Arial" font-size="13px" font-style="normal" font-weight="normal" text-decoration="none" x="589" y="935.5">-deleteMessageAction()</text></g></g><g transform="translate(-30,-190) scale(1,1)"><g><path fill="none" stroke="none"/><text fill="#000000" stroke="none" font-family="Arial" font-size="13px" font-style="normal" font-weight="normal" text-decoration="none" x="589" y="950.5">-commitCollectMessageAction()</text></g></g><g transform="translate(-30,-190) scale(1,1)"><g><path fill="none" stroke="none"/><text fill="#000000" stroke="none" font-family="Arial" font-size="13px" font-style="normal" font-weight="normal" text-decoration="none" x="589" y="965.5">-fetchUpLoadCacheData()</text></g></g><g transform="translate(-30,-190) scale(1,1)"><path fill="none" stroke="#000000" d="M 575 701 L 657 839" stroke-miterlimit="10" stroke-dasharray="3"/></g><g transform="translate(-30,-190) scale(1,1)"><path fill="none" stroke="#000000" d="M 648.1897813278526 832.413646915861 L 657 839 L 655.427489562272 828.1129797041046" stroke-miterlimit="10"/></g><g transform="translate(-30,-190) scale(1,1)"><path fill="none" stroke="#000000" d="M 891 743 L 783 839" stroke-miterlimit="10" stroke-dasharray="3"/></g><g transform="translate(-30,-190) scale(1,1)"><path fill="none" stroke="#000000" d="M 787.799026515331 829.1020535207979 L 783 839 L 793.39232926735 835.3945191168192" stroke-miterlimit="10"/></g><g transform="translate(-30,-190) scale(1,1)"><path fill="none" stroke="#000000" d="M 694 281 L 699 839" stroke-miterlimit="10"/></g><g transform="translate(-30,-190) scale(1,1)"><path fill="none" stroke="#000000" d="M 694.6995914896728 828.8754512868817 L 699 839 L 703.1182890319748 828.8000149289758" stroke-miterlimit="10"/></g></g></svg>