<svg version="1.1" xmlns="http://www.w3.org/2000/svg" xmlns:xlink="http://www.w3.org/1999/xlink" width="336" height="645"><defs/><g><g transform="translate(-542,-30) scale(1,1)"><path fill="#C0C0C0" stroke="none" d="M 599 56.5 C 599 51.2532944 603.2532944 47 608.5 47 C 613.7467056 47 618 51.2532944 618 56.5 C 618 61.7467056 613.7467056 66 608.5 66 C 603.2532944 66 599 61.7467056 599 56.5 Z" opacity="0.2"/></g><g transform="translate(-542,-30) scale(1,1)"><path fill="#000000" stroke="none" d="M 592 49.5 C 592 44.2532944 596.2532944 40 601.5 40 C 606.7467056 40 611 44.2532944 611 49.5 C 611 54.7467056 606.7467056 59 601.5 59 C 596.2532944 59 592 54.7467056 592 49.5 Z"/></g><g transform="translate(-542,-30) scale(1,1)"><path fill="#C0C0C0" stroke="none" d="M 585 127 L 626 127 Q 636 127 636 137 L 636 157 Q 636 167 626 167 L 585 167 Q 575 167 575 157 L 575 137 Q 575 127 585 127 Z" opacity="0.2"/></g><g transform="translate(-542,-30) scale(1,1)"><path fill="#ffffff" stroke="none" d="M 578 120 L 619 120 Q 629 120 629 130 L 629 150 Q 629 160 619 160 L 578 160 Q 568 160 568 150 L 568 130 Q 568 120 578 120 Z"/></g><g transform="translate(-542,-30) scale(1,1)"><path fill="none" stroke="#000000" d="M 578 120 L 619 120 Q 629 120 629 130 L 629 150 Q 629 160 619 160 L 578 160 Q 568 160 568 150 L 568 130 Q 568 120 578 120 Z" stroke-miterlimit="10"/></g><g transform="translate(-542,-30) scale(1,1)"><g><path fill="none" stroke="none"/><text fill="#000000" stroke="none" font-family="Arial" font-size="13px" font-style="normal" font-weight="bold" text-decoration="none" x="572.5" y="139.5">修改密码</text></g></g><g transform="translate(-542,-30) scale(1,1)"><path fill="none" stroke="#000000" d="M 601 60 L 599 119" stroke-miterlimit="10"/></g><g transform="translate(-542,-30) scale(1,1)"><path fill="none" stroke="#000000" d="M 595.1371984227445 108.70054545256147 L 599 119 L 603.551400963361 108.98577265732813" stroke-miterlimit="10"/></g><g transform="translate(-542,-30) scale(1,1)"><g><path fill="none" stroke="none"/><text fill="#000000" stroke="none" font-family="Arial" font-size="13px" font-style="normal" font-weight="normal" text-decoration="none" x="600.5" y="95.5">开始</text></g></g><g transform="translate(-542,-30) scale(1,1)"><path fill="#C0C0C0" stroke="none" d="M 569 223 L 636 223 Q 646 223 646 233 L 646 253 Q 646 263 636 263 L 569 263 Q 559 263 559 253 L 559 233 Q 559 223 569 223 Z" opacity="0.2"/></g><g transform="translate(-542,-30) scale(1,1)"><path fill="#ffffff" stroke="none" d="M 562 216 L 629 216 Q 639 216 639 226 L 639 246 Q 639 256 629 256 L 562 256 Q 552 256 552 246 L 552 226 Q 552 216 562 216 Z"/></g><g transform="translate(-542,-30) scale(1,1)"><path fill="none" stroke="#000000" d="M 562 216 L 629 216 Q 639 216 639 226 L 639 246 Q 639 256 629 256 L 562 256 Q 552 256 552 246 L 552 226 Q 552 216 562 216 Z" stroke-miterlimit="10"/></g><g transform="translate(-542,-30) scale(1,1)"><g><path fill="none" stroke="none"/><text fill="#000000" stroke="none" font-family="Arial" font-size="13px" font-style="normal" font-weight="bold" text-decoration="none" x="556.5" y="235.5">输入原始密码</text></g></g><g transform="translate(-542,-30) scale(1,1)"><path fill="none" stroke="#000000" d="M 597 161 L 596 215" stroke-miterlimit="10"/></g><g transform="translate(-542,-30) scale(1,1)"><path fill="none" stroke="#000000" d="M 591.9793692759974 204.76112659609436 L 596 215 L 600.396961566023 204.91700793479853" stroke-miterlimit="10"/></g><g transform="translate(-542,-30) scale(1,1)"><path fill="#C0C0C0" stroke="none" d="M 577 327 L 631 327 Q 641 327 641 337 L 641 357 Q 641 367 631 367 L 577 367 Q 567 367 567 357 L 567 337 Q 567 327 577 327 Z" opacity="0.2"/></g><g transform="translate(-542,-30) scale(1,1)"><path fill="#ffffff" stroke="none" d="M 570 320 L 624 320 Q 634 320 634 330 L 634 350 Q 634 360 624 360 L 570 360 Q 560 360 560 350 L 560 330 Q 560 320 570 320 Z"/></g><g transform="translate(-542,-30) scale(1,1)"><path fill="none" stroke="#000000" d="M 570 320 L 624 320 Q 634 320 634 330 L 634 350 Q 634 360 624 360 L 570 360 Q 560 360 560 350 L 560 330 Q 560 320 570 320 Z" stroke-miterlimit="10"/></g><g transform="translate(-542,-30) scale(1,1)"><g><path fill="none" stroke="none"/><text fill="#000000" stroke="none" font-family="Arial" font-size="13px" font-style="normal" font-weight="bold" text-decoration="none" x="564.5" y="339.5">输入新密码</text></g></g><g transform="translate(-542,-30) scale(1,1)"><path fill="#C0C0C0" stroke="none" d="M 567 431.5 L 603.5 415 L 639 431.5 L 603.5 447 L 567 431.5" opacity="0.2"/></g><g transform="translate(-542,-30) scale(1,1)"><path fill="#ffffff" stroke="none" d="M 560 424 L 596 408 L 632 424 L 596 440 L 560 424"/></g><g transform="translate(-542,-30) scale(1,1)"><path fill="none" stroke="#000000" d="M 560 424 L 596 408 L 632 424 L 596 440 L 560 424 L 560 424" stroke-miterlimit="10"/></g><g transform="translate(-542,-30) scale(1,1)"><path fill="none" stroke="#000000" d="M 597 361 L 596 407" stroke-miterlimit="10"/></g><g transform="translate(-542,-30) scale(1,1)"><path fill="none" stroke="#000000" d="M 592.0123521078249 396.74823604017183 L 596 407 L 600.429398949577 396.93121531934037" stroke-miterlimit="10"/></g><g transform="translate(-542,-30) scale(1,1)"><g><path fill="none" stroke="none"/><text fill="#000000" stroke="none" font-family="Arial" font-size="13px" font-style="normal" font-weight="normal" text-decoration="none" x="596.5" y="389.5">确定</text></g></g><g transform="translate(-542,-30) scale(1,1)"><path fill="#C0C0C0" stroke="none" d="M 569 519 L 636 519 Q 646 519 646 529 L 646 549 Q 646 559 636 559 L 569 559 Q 559 559 559 549 L 559 529 Q 559 519 569 519 Z" opacity="0.2"/></g><g transform="translate(-542,-30) scale(1,1)"><path fill="#ffffff" stroke="none" d="M 562 512 L 629 512 Q 639 512 639 522 L 639 542 Q 639 552 629 552 L 562 552 Q 552 552 552 542 L 552 522 Q 552 512 562 512 Z"/></g><g transform="translate(-542,-30) scale(1,1)"><path fill="none" stroke="#000000" d="M 562 512 L 629 512 Q 639 512 639 522 L 639 542 Q 639 552 629 552 L 562 552 Q 552 552 552 542 L 552 522 Q 552 512 562 512 Z" stroke-miterlimit="10"/></g><g transform="translate(-542,-30) scale(1,1)"><g><path fill="none" stroke="none"/><text fill="#000000" stroke="none" font-family="Arial" font-size="13px" font-style="normal" font-weight="bold" text-decoration="none" x="556.5" y="531.5">修改密码成功</text></g></g><g transform="translate(-542,-30) scale(1,1)"><path fill="#C0C0C0" stroke="none" d="M 785 415 L 865 415 Q 875 415 875 425 L 875 445 Q 875 455 865 455 L 785 455 Q 775 455 775 445 L 775 425 Q 775 415 785 415 Z" opacity="0.2"/></g><g transform="translate(-542,-30) scale(1,1)"><path fill="#ffffff" stroke="none" d="M 778 408 L 858 408 Q 868 408 868 418 L 868 438 Q 868 448 858 448 L 778 448 Q 768 448 768 438 L 768 418 Q 768 408 778 408 Z"/></g><g transform="translate(-542,-30) scale(1,1)"><path fill="none" stroke="#000000" d="M 778 408 L 858 408 Q 868 408 868 418 L 868 438 Q 868 448 858 448 L 778 448 Q 768 448 768 438 L 768 418 Q 768 408 778 408 Z" stroke-miterlimit="10"/></g><g transform="translate(-542,-30) scale(1,1)"><g><path fill="none" stroke="none"/><text fill="#000000" stroke="none" font-family="Arial" font-size="13px" font-style="normal" font-weight="bold" text-decoration="none" x="792" y="427.5">修改失败</text></g></g><g transform="translate(-542,-30) scale(1,1)"><path fill="none" stroke="#000000" d="M 633 425 L 767 427" stroke-miterlimit="10"/></g><g transform="translate(-542,-30) scale(1,1)"><path fill="none" stroke="#000000" d="M 756.7756352800529 431.0573841417226 L 767 427 L 756.9012785327101 422.6392862136918" stroke-miterlimit="10"/></g><g transform="translate(-542,-30) scale(1,1)"><g><path fill="none" stroke="none"/><text fill="#000000" stroke="none" font-family="Arial" font-size="13px" font-style="normal" font-weight="normal" text-decoration="none" x="647.5" y="416.5">两次密码不一致</text></g></g><g transform="translate(-542,-30) scale(1,1)"><path fill="none" stroke="#000000" d="M 595 257 L 597 319" stroke-miterlimit="10"/></g><g transform="translate(-542,-30) scale(1,1)"><path fill="none" stroke="#000000" d="M 592.4650129238797 308.9783288709207 L 597 319 L 600.8796715000755 308.70688827168857" stroke-miterlimit="10"/></g><g transform="translate(-542,-30) scale(1,1)"><path fill="none" stroke="#000000" d="M 816 408 L 816 340 L 634 340" stroke-miterlimit="10"/></g><g transform="translate(-542,-30) scale(1,1)"><path fill="none" stroke="#000000" d="M 644.1626748576241 335.790482243984 L 634 340 L 644.1626748576241 344.209517756016" stroke-miterlimit="10"/></g><g transform="translate(-542,-30) scale(1,1)"><g><path fill="none" stroke="none"/><text fill="#000000" stroke="none" font-family="Arial" font-size="13px" font-style="normal" font-weight="normal" text-decoration="none" x="734.5" y="331.5">重新输入确认密码</text></g></g><g transform="translate(-542,-30) scale(1,1)"><path fill="#C0C0C0" stroke="none" d="M 591 659.5 C 591 652.59644 596.59644 647 603.5 647 C 610.40356 647 616 652.59644 616 659.5 C 616 666.40356 610.40356 672 603.5 672 C 596.59644 672 591 666.40356 591 659.5 Z" opacity="0.2"/></g><g transform="translate(-542,-30) scale(1,1)"><path fill="none" stroke="#000000" d="M 584 652.5 C 584 645.59644 589.59644 640 596.5 640 C 603.40356 640 609 645.59644 609 652.5 C 609 659.40356 603.40356 665 596.5 665 C 589.59644 665 584 659.40356 584 652.5 Z" stroke-miterlimit="10"/></g><g transform="translate(-542,-30) scale(1,1)"><path fill="#000000" stroke="none" d="M 589 652.5 C 589 648.357864 592.357864 645 596.5 645 C 600.642136 645 604 648.357864 604 652.5 C 604 656.642136 600.642136 660 596.5 660 C 592.357864 660 589 656.642136 589 652.5 Z"/></g><g transform="translate(-542,-30) scale(1,1)"><path fill="none" stroke="#000000" d="M 595 553 L 596 639" stroke-miterlimit="10"/></g><g transform="translate(-542,-30) scale(1,1)"><path fill="none" stroke="#000000" d="M 591.6726041459633 628.8869566834476 L 596 639 L 600.0910705542997 628.7890675391645" stroke-miterlimit="10"/></g><g transform="translate(-542,-30) scale(1,1)"><g><path fill="none" stroke="none"/><text fill="#000000" stroke="none" font-family="Arial" font-size="13px" font-style="normal" font-weight="normal" text-decoration="none" x="595.5" y="601.5">结束</text></g></g><g transform="translate(-542,-30) scale(1,1)"><path fill="none" stroke="#000000" d="M 596 441 L 595 511" stroke-miterlimit="10"/></g><g transform="translate(-542,-30) scale(1,1)"><path fill="none" stroke="#000000" d="M 590.936077978144 500.7782321587568 L 595 511 L 599.3542545363899 500.8984918238746" stroke-miterlimit="10"/></g></g></svg>