<svg version="1.1" xmlns="http://www.w3.org/2000/svg" xmlns:xlink="http://www.w3.org/1999/xlink" width="1121" height="765"><defs/><g><g transform="translate(-6,-14) scale(1,1)"><path fill="#C0C0C0" stroke="none" d="M 167 64.5 C 167 59.2532944 171.2532944 55 176.5 55 C 181.7467056 55 186 59.2532944 186 64.5 C 186 69.7467056 181.7467056 74 176.5 74 C 171.2532944 74 167 69.7467056 167 64.5 Z" opacity="0.2"/></g><g transform="translate(-6,-14) scale(1,1)"><path fill="#000000" stroke="none" d="M 160 57.5 C 160 52.2532944 164.2532944 48 169.5 48 C 174.7467056 48 179 52.2532944 179 57.5 C 179 62.7467056 174.7467056 67 169.5 67 C 164.2532944 67 160 62.7467056 160 57.5 Z"/></g><g transform="translate(-6,-14) scale(1,1)"><path fill="#C0C0C0" stroke="none" d="M 145 151 L 212 151 Q 222 151 222 161 L 222 181 Q 222 191 212 191 L 145 191 Q 135 191 135 181 L 135 161 Q 135 151 145 151 Z" opacity="0.2"/></g><g transform="translate(-6,-14) scale(1,1)"><path fill="#ffffff" stroke="none" d="M 138 144 L 205 144 Q 215 144 215 154 L 215 174 Q 215 184 205 184 L 138 184 Q 128 184 128 174 L 128 154 Q 128 144 138 144 Z"/></g><g transform="translate(-6,-14) scale(1,1)"><path fill="none" stroke="#000000" d="M 138 144 L 205 144 Q 215 144 215 154 L 215 174 Q 215 184 205 184 L 138 184 Q 128 184 128 174 L 128 154 Q 128 144 138 144 Z" stroke-miterlimit="10"/></g><g transform="translate(-6,-14) scale(1,1)"><g><path fill="none" stroke="none"/><text fill="#000000" stroke="none" font-family="Arial" font-size="13px" font-style="normal" font-weight="bold" text-decoration="none" x="132.5" y="163.5">选择排班时间</text></g></g><g transform="translate(-6,-14) scale(1,1)"><path fill="none" stroke="#000000" d="M 169 68 L 171 143" stroke-miterlimit="10"/></g><g transform="translate(-6,-14) scale(1,1)"><path fill="none" stroke="#000000" d="M 166.52106980661523 132.9531505275143 L 171 143 L 174.93711347935158 132.72872269624133" stroke-miterlimit="10"/></g><g transform="translate(-6,-14) scale(1,1)"><g><path fill="none" stroke="none"/><text fill="#000000" stroke="none" font-family="Arial" font-size="13px" font-style="normal" font-weight="normal" text-decoration="none" x="170.5" y="110.5">开始</text></g></g><g transform="translate(-6,-14) scale(1,1)"><path fill="#C0C0C0" stroke="none" d="M 137 367 L 213 367 Q 223 367 223 377 L 223 397 Q 223 407 213 407 L 137 407 Q 127 407 127 397 L 127 377 Q 127 367 137 367 Z" opacity="0.2"/></g><g transform="translate(-6,-14) scale(1,1)"><path fill="#ffffff" stroke="none" d="M 130 360 L 206 360 Q 216 360 216 370 L 216 390 Q 216 400 206 400 L 130 400 Q 120 400 120 390 L 120 370 Q 120 360 130 360 Z"/></g><g transform="translate(-6,-14) scale(1,1)"><path fill="none" stroke="#000000" d="M 130 360 L 206 360 Q 216 360 216 370 L 216 390 Q 216 400 206 400 L 130 400 Q 120 400 120 390 L 120 370 Q 120 360 130 360 Z" stroke-miterlimit="10"/></g><g transform="translate(-6,-14) scale(1,1)"><g><path fill="none" stroke="none"/><text fill="#000000" stroke="none" font-family="Arial" font-size="13px" font-style="normal" font-weight="bold" text-decoration="none" x="129" y="379.5">选择排班队伍</text></g></g><g transform="translate(-6,-14) scale(1,1)"><path fill="none" stroke="#000000" d="M 170 289 L 169 359" stroke-miterlimit="10"/></g><g transform="translate(-6,-14) scale(1,1)"><path fill="none" stroke="#000000" d="M 164.93607797814394 348.7782321587568 L 169 359 L 173.35425453638987 348.8984918238746" stroke-miterlimit="10"/></g><g transform="translate(-6,-14) scale(1,1)"><path fill="#C0C0C0" stroke="none" d="M 135 535.5 L 175.5 511 L 215 535.5 L 175.5 559 L 135 535.5" opacity="0.2"/></g><g transform="translate(-6,-14) scale(1,1)"><path fill="#ffffff" stroke="none" d="M 128 528 L 168 504 L 208 528 L 168 552 L 128 528"/></g><g transform="translate(-6,-14) scale(1,1)"><path fill="none" stroke="#000000" d="M 128 528 L 168 504 L 208 528 L 168 552 L 128 528 L 128 528" stroke-miterlimit="10"/></g><g transform="translate(-6,-14) scale(1,1)"><path fill="#C0C0C0" stroke="none" d="M 329 511 L 409 511 Q 419 511 419 521 L 419 541 Q 419 551 409 551 L 329 551 Q 319 551 319 541 L 319 521 Q 319 511 329 511 Z" opacity="0.2"/></g><g transform="translate(-6,-14) scale(1,1)"><path fill="#ffffff" stroke="none" d="M 322 504 L 402 504 Q 412 504 412 514 L 412 534 Q 412 544 402 544 L 322 544 Q 312 544 312 534 L 312 514 Q 312 504 322 504 Z"/></g><g transform="translate(-6,-14) scale(1,1)"><path fill="none" stroke="#000000" d="M 322 504 L 402 504 Q 412 504 412 514 L 412 534 Q 412 544 402 544 L 322 544 Q 312 544 312 534 L 312 514 Q 312 504 322 504 Z" stroke-miterlimit="10"/></g><g transform="translate(-6,-14) scale(1,1)"><g><path fill="none" stroke="none"/><text fill="#000000" stroke="none" font-family="Arial" font-size="13px" font-style="normal" font-weight="bold" text-decoration="none" x="316.5" y="523.5">与已有排班重复</text></g></g><g transform="translate(-6,-14) scale(1,1)"><path fill="none" stroke="#000000" d="M 209 527 L 311 525" stroke-miterlimit="10"/></g><g transform="translate(-6,-14) scale(1,1)"><path fill="none" stroke="#000000" d="M 300.92180188992006 529.407938617311 L 311 525 L 300.75675448686644 520.9905210615756" stroke-miterlimit="10"/></g><g transform="translate(-6,-14) scale(1,1)"><g><path fill="none" stroke="none"/><text fill="#000000" stroke="none" font-family="Arial" font-size="13px" font-style="normal" font-weight="normal" text-decoration="none" x="219.5" y="517.5">排班添加失败</text></g></g><g transform="translate(-6,-14) scale(1,1)"><path fill="none" stroke="#000000" d="M 368 504 L 368 164 L 215 164" stroke-miterlimit="10"/></g><g transform="translate(-6,-14) scale(1,1)"><path fill="none" stroke="#000000" d="M 225.16267485762415 159.790482243984 L 215 164 L 225.16267485762415 168.209517756016" stroke-miterlimit="10"/></g><g transform="translate(-6,-14) scale(1,1)"><g><path fill="none" stroke="none"/><text fill="#000000" stroke="none" font-family="Arial" font-size="13px" font-style="normal" font-weight="normal" text-decoration="none" x="294.5" y="159.5">重新选择排班信息</text></g></g><g transform="translate(-6,-14) scale(1,1)"><path fill="#C0C0C0" stroke="none" d="M 167 635.5 C 167 628.59644 172.59644 623 179.5 623 C 186.40356 623 192 628.59644 192 635.5 C 192 642.40356 186.40356 648 179.5 648 C 172.59644 648 167 642.40356 167 635.5 Z" opacity="0.2"/></g><g transform="translate(-6,-14) scale(1,1)"><path fill="none" stroke="#000000" d="M 160 628.5 C 160 621.59644 165.59644 616 172.5 616 C 179.40356 616 185 621.59644 185 628.5 C 185 635.40356 179.40356 641 172.5 641 C 165.59644 641 160 635.40356 160 628.5 Z" stroke-miterlimit="10"/></g><g transform="translate(-6,-14) scale(1,1)"><path fill="#000000" stroke="none" d="M 165 628.5 C 165 624.357864 168.357864 621 172.5 621 C 176.642136 621 180 624.357864 180 628.5 C 180 632.642136 176.642136 636 172.5 636 C 168.357864 636 165 632.642136 165 628.5 Z"/></g><g transform="translate(-6,-14) scale(1,1)"><g><path fill="none" stroke="none"/><text fill="#dc2020" stroke="none" font-family="Arial" font-size="16px" font-style="normal" font-weight="normal" text-decoration="none" x="21" y="45">创建新排班</text></g></g><g transform="translate(-6,-14) scale(1,1)"><g><path fill="none" stroke="none"/><text fill="#d22727" stroke="none" font-family="Arial" font-size="16px" font-style="normal" font-weight="normal" text-decoration="none" x="677" y="61">编辑排班</text></g></g><g transform="translate(-6,-14) scale(1,1)"><path fill="#C0C0C0" stroke="none" d="M 791 72.5 C 791 67.2532944 795.2532944 63 800.5 63 C 805.7467056 63 810 67.2532944 810 72.5 C 810 77.7467056 805.7467056 82 800.5 82 C 795.2532944 82 791 77.7467056 791 72.5 Z" opacity="0.2"/></g><g transform="translate(-6,-14) scale(1,1)"><path fill="#000000" stroke="none" d="M 784 65.5 C 784 60.2532944 788.2532944 56 793.5 56 C 798.7467056 56 803 60.2532944 803 65.5 C 803 70.7467056 798.7467056 75 793.5 75 C 788.2532944 75 784 70.7467056 784 65.5 Z"/></g><g transform="translate(-6,-14) scale(1,1)"><path fill="#C0C0C0" stroke="none" d="M 769 127 L 836 127 Q 846 127 846 137 L 846 157 Q 846 167 836 167 L 769 167 Q 759 167 759 157 L 759 137 Q 759 127 769 127 Z" opacity="0.2"/></g><g transform="translate(-6,-14) scale(1,1)"><path fill="#ffffff" stroke="none" d="M 762 120 L 829 120 Q 839 120 839 130 L 839 150 Q 839 160 829 160 L 762 160 Q 752 160 752 150 L 752 130 Q 752 120 762 120 Z"/></g><g transform="translate(-6,-14) scale(1,1)"><path fill="none" stroke="#000000" d="M 762 120 L 829 120 Q 839 120 839 130 L 839 150 Q 839 160 829 160 L 762 160 Q 752 160 752 150 L 752 130 Q 752 120 762 120 Z" stroke-miterlimit="10"/></g><g transform="translate(-6,-14) scale(1,1)"><g><path fill="none" stroke="none"/><text fill="#000000" stroke="none" font-family="Arial" font-size="13px" font-style="normal" font-weight="bold" text-decoration="none" x="756.5" y="139.5">选择排班编辑</text></g></g><g transform="translate(-6,-14) scale(1,1)"><path fill="#C0C0C0" stroke="none" d="M 770 215 L 833 215 Q 836 215 836 218 L 836 217 Q 836 220 833 220 L 770 220 Q 767 220 767 217 L 767 218 Q 767 215 770 215 Z" opacity="0.2"/></g><g transform="translate(-6,-14) scale(1,1)"><path fill="#000000" stroke="none" d="M 763 208 L 826 208 Q 829 208 829 211 L 829 211 Q 829 214 826 214 L 763 214 Q 760 214 760 211 L 760 211 Q 760 208 763 208 Z"/></g><g transform="translate(-6,-14) scale(1,1)"><path fill="none" stroke="#000000" d="M 795 161 L 794 207" stroke-miterlimit="10"/></g><g transform="translate(-6,-14) scale(1,1)"><path fill="none" stroke="#000000" d="M 790.0123521078249 196.74823604017186 L 794 207 L 798.429398949577 196.9312153193404" stroke-miterlimit="10"/></g><g transform="translate(-6,-14) scale(1,1)"><g><path fill="none" stroke="none"/><text fill="#000000" stroke="none" font-family="Arial" font-size="13px" font-style="normal" font-weight="normal" text-decoration="none" x="762.5" y="189.5">删除和修改排班</text></g></g><g transform="translate(-6,-14) scale(1,1)"><path fill="#C0C0C0" stroke="none" d="M 689 279 L 730 279 Q 740 279 740 289 L 740 309 Q 740 319 730 319 L 689 319 Q 679 319 679 309 L 679 289 Q 679 279 689 279 Z" opacity="0.2"/></g><g transform="translate(-6,-14) scale(1,1)"><path fill="#ffffff" stroke="none" d="M 682 272 L 723 272 Q 733 272 733 282 L 733 302 Q 733 312 723 312 L 682 312 Q 672 312 672 302 L 672 282 Q 672 272 682 272 Z"/></g><g transform="translate(-6,-14) scale(1,1)"><path fill="none" stroke="#000000" d="M 682 272 L 723 272 Q 733 272 733 282 L 733 302 Q 733 312 723 312 L 682 312 Q 672 312 672 302 L 672 282 Q 672 272 682 272 Z" stroke-miterlimit="10"/></g><g transform="translate(-6,-14) scale(1,1)"><g><path fill="none" stroke="none"/><text fill="#000000" stroke="none" font-family="Arial" font-size="13px" font-style="normal" font-weight="bold" text-decoration="none" x="676.5" y="291.5">删除排班</text></g></g><g transform="translate(-6,-14) scale(1,1)"><path fill="none" stroke="#000000" d="M 790 214 L 726 271" stroke-miterlimit="10"/></g><g transform="translate(-6,-14) scale(1,1)"><path fill="none" stroke="#000000" d="M 730.7894332334118 261.0974079503046 L 726 271 L 736.3888307070494 267.38445072772214" stroke-miterlimit="10"/></g><g transform="translate(-6,-14) scale(1,1)"><path fill="#C0C0C0" stroke="none" d="M 857 279 L 950 279 Q 960 279 960 289 L 960 309 Q 960 319 950 319 L 857 319 Q 847 319 847 309 L 847 289 Q 847 279 857 279 Z" opacity="0.2"/></g><g transform="translate(-6,-14) scale(1,1)"><path fill="#ffffff" stroke="none" d="M 850 272 L 943 272 Q 953 272 953 282 L 953 302 Q 953 312 943 312 L 850 312 Q 840 312 840 302 L 840 282 Q 840 272 850 272 Z"/></g><g transform="translate(-6,-14) scale(1,1)"><path fill="none" stroke="#000000" d="M 850 272 L 943 272 Q 953 272 953 282 L 953 302 Q 953 312 943 312 L 850 312 Q 840 312 840 302 L 840 282 Q 840 272 850 272 Z" stroke-miterlimit="10"/></g><g transform="translate(-6,-14) scale(1,1)"><g><path fill="none" stroke="none"/><text fill="#000000" stroke="none" font-family="Arial" font-size="13px" font-style="normal" font-weight="bold" text-decoration="none" x="844.5" y="291.5">修改排班对应选择</text></g></g><g transform="translate(-6,-14) scale(1,1)"><path fill="none" stroke="#000000" d="M 799 214 L 870 271" stroke-miterlimit="10"/></g><g transform="translate(-6,-14) scale(1,1)"><path fill="none" stroke="#000000" d="M 859.4398860949639 267.9203905584208 L 870 271 L 864.7104845671934 261.3552591280999" stroke-miterlimit="10"/></g><g transform="translate(-6,-14) scale(1,1)"><path fill="none" stroke="#000000" d="M 793 76 L 794 119" stroke-miterlimit="10"/></g><g transform="translate(-6,-14) scale(1,1)"><path fill="none" stroke="#000000" d="M 789.5553427141674 108.93794148240552 L 794 119 L 797.9721025036246 108.7422028826507" stroke-miterlimit="10"/></g><g transform="translate(-6,-14) scale(1,1)"><g><path fill="none" stroke="none"/><text fill="#000000" stroke="none" font-family="Arial" font-size="13px" font-style="normal" font-weight="normal" text-decoration="none" x="793.5" y="102.5">开始</text></g></g><g transform="translate(-6,-14) scale(1,1)"><path fill="#C0C0C0" stroke="none" d="M 679 383.5 L 707.5 367 L 735 383.5 L 707.5 399 L 679 383.5" opacity="0.2"/></g><g transform="translate(-6,-14) scale(1,1)"><path fill="#ffffff" stroke="none" d="M 672 376 L 700 360 L 728 376 L 700 392 L 672 376"/></g><g transform="translate(-6,-14) scale(1,1)"><path fill="none" stroke="#000000" d="M 672 376 L 700 360 L 728 376 L 700 392 L 672 376 L 672 376" stroke-miterlimit="10"/></g><g transform="translate(-6,-14) scale(1,1)"><path fill="#C0C0C0" stroke="none" d="M 879 383.5 L 907.5 367 L 935 383.5 L 907.5 399 L 879 383.5" opacity="0.2"/></g><g transform="translate(-6,-14) scale(1,1)"><path fill="#ffffff" stroke="none" d="M 872 376 L 900 360 L 928 376 L 900 392 L 872 376"/></g><g transform="translate(-6,-14) scale(1,1)"><path fill="none" stroke="#000000" d="M 872 376 L 900 360 L 928 376 L 900 392 L 872 376 L 872 376" stroke-miterlimit="10"/></g><g transform="translate(-6,-14) scale(1,1)"><path fill="none" stroke="#000000" d="M 702 313 L 700 359" stroke-miterlimit="10"/></g><g transform="translate(-6,-14) scale(1,1)"><path fill="none" stroke="#000000" d="M 696.235893749185 348.6640673312673 L 700 359 L 704.6469830248906 349.02976686499363" stroke-miterlimit="10"/></g><g transform="translate(-6,-14) scale(1,1)"><g><path fill="none" stroke="none"/><text fill="#000000" stroke="none" font-family="Arial" font-size="13px" font-style="normal" font-weight="normal" text-decoration="none" x="701.5" y="342.5">删除</text></g></g><g transform="translate(-6,-14) scale(1,1)"><path fill="#C0C0C0" stroke="none" d="M 545 367 L 586 367 Q 596 367 596 377 L 596 397 Q 596 407 586 407 L 545 407 Q 535 407 535 397 L 535 377 Q 535 367 545 367 Z" opacity="0.2"/></g><g transform="translate(-6,-14) scale(1,1)"><path fill="#ffffff" stroke="none" d="M 538 360 L 579 360 Q 589 360 589 370 L 589 390 Q 589 400 579 400 L 538 400 Q 528 400 528 390 L 528 370 Q 528 360 538 360 Z"/></g><g transform="translate(-6,-14) scale(1,1)"><path fill="none" stroke="#000000" d="M 538 360 L 579 360 Q 589 360 589 370 L 589 390 Q 589 400 579 400 L 538 400 Q 528 400 528 390 L 528 370 Q 528 360 538 360 Z" stroke-miterlimit="10"/></g><g transform="translate(-6,-14) scale(1,1)"><g><path fill="none" stroke="none"/><text fill="#000000" stroke="none" font-family="Arial" font-size="13px" font-style="normal" font-weight="bold" text-decoration="none" x="532.5" y="379.5">删除失败</text></g></g><g transform="translate(-6,-14) scale(1,1)"><path fill="none" stroke="#000000" d="M 671 377 L 590 379" stroke-miterlimit="10"/></g><g transform="translate(-6,-14) scale(1,1)"><path fill="none" stroke="#000000" d="M 600.0556713284701 374.54091106460265 L 590 379 L 600.2634854098777 382.957381361611" stroke-miterlimit="10"/></g><g transform="translate(-6,-14) scale(1,1)"><g><path fill="none" stroke="none"/><text fill="#000000" stroke="none" font-family="Arial" font-size="13px" font-style="normal" font-weight="normal" text-decoration="none" x="616.5" y="398.5">失败</text></g></g><g transform="translate(-6,-14) scale(1,1)"><path fill="none" stroke="#000000" d="M 552 360 L 552 288 L 672 288" stroke-miterlimit="10"/></g><g transform="translate(-6,-14) scale(1,1)"><path fill="none" stroke="#000000" d="M 661.8373251423759 292.209517756016 L 672 288 L 661.8373251423758 283.790482243984" stroke-miterlimit="10"/></g><g transform="translate(-6,-14) scale(1,1)"><g><path fill="none" stroke="none"/><text fill="#000000" stroke="none" font-family="Arial" font-size="13px" font-style="normal" font-weight="normal" text-decoration="none" x="542.5" y="279.5">重新删除操作</text></g></g><g transform="translate(-6,-14) scale(1,1)"><path fill="#C0C0C0" stroke="none" d="M 689 463 L 728 463 Q 738 463 738 473 L 738 493 Q 738 503 728 503 L 689 503 Q 679 503 679 493 L 679 473 Q 679 463 689 463 Z" opacity="0.2"/></g><g transform="translate(-6,-14) scale(1,1)"><path fill="#ffffff" stroke="none" d="M 682 456 L 721 456 Q 731 456 731 466 L 731 486 Q 731 496 721 496 L 682 496 Q 672 496 672 486 L 672 466 Q 672 456 682 456 Z"/></g><g transform="translate(-6,-14) scale(1,1)"><path fill="none" stroke="#000000" d="M 682 456 L 721 456 Q 731 456 731 466 L 731 486 Q 731 496 721 496 L 682 496 Q 672 496 672 486 L 672 466 Q 672 456 682 456 Z" stroke-miterlimit="10"/></g><g transform="translate(-6,-14) scale(1,1)"><g><path fill="none" stroke="none"/><text fill="#000000" stroke="none" font-family="Arial" font-size="13px" font-style="normal" font-weight="bold" text-decoration="none" x="688.5" y="475.5">成功</text></g></g><g transform="translate(-6,-14) scale(1,1)"><path fill="none" stroke="#000000" d="M 897 313 L 899 359" stroke-miterlimit="10"/></g><g transform="translate(-6,-14) scale(1,1)"><path fill="none" stroke="#000000" d="M 894.3530169751094 349.02976686499363 L 899 359 L 902.764106250815 348.6640673312673" stroke-miterlimit="10"/></g><g transform="translate(-6,-14) scale(1,1)"><g><path fill="none" stroke="none"/><text fill="#000000" stroke="none" font-family="Arial" font-size="13px" font-style="normal" font-weight="normal" text-decoration="none" x="898.5" y="341.5">修改</text></g></g><g transform="translate(-6,-14) scale(1,1)"><path fill="#C0C0C0" stroke="none" d="M 881 463 L 920 463 Q 930 463 930 473 L 930 493 Q 930 503 920 503 L 881 503 Q 871 503 871 493 L 871 473 Q 871 463 881 463 Z" opacity="0.2"/></g><g transform="translate(-6,-14) scale(1,1)"><path fill="#ffffff" stroke="none" d="M 874 456 L 913 456 Q 923 456 923 466 L 923 486 Q 923 496 913 496 L 874 496 Q 864 496 864 486 L 864 466 Q 864 456 874 456 Z"/></g><g transform="translate(-6,-14) scale(1,1)"><path fill="none" stroke="#000000" d="M 874 456 L 913 456 Q 923 456 923 466 L 923 486 Q 923 496 913 496 L 874 496 Q 864 496 864 486 L 864 466 Q 864 456 874 456 Z" stroke-miterlimit="10"/></g><g transform="translate(-6,-14) scale(1,1)"><g><path fill="none" stroke="none"/><text fill="#000000" stroke="none" font-family="Arial" font-size="13px" font-style="normal" font-weight="bold" text-decoration="none" x="880.5" y="475.5">成功</text></g></g><g transform="translate(-6,-14) scale(1,1)"><path fill="#C0C0C0" stroke="none" d="M 1073 359 L 1114 359 Q 1124 359 1124 369 L 1124 389 Q 1124 399 1114 399 L 1073 399 Q 1063 399 1063 389 L 1063 369 Q 1063 359 1073 359 Z" opacity="0.2"/></g><g transform="translate(-6,-14) scale(1,1)"><path fill="#ffffff" stroke="none" d="M 1066 352 L 1107 352 Q 1117 352 1117 362 L 1117 382 Q 1117 392 1107 392 L 1066 392 Q 1056 392 1056 382 L 1056 362 Q 1056 352 1066 352 Z"/></g><g transform="translate(-6,-14) scale(1,1)"><path fill="none" stroke="#000000" d="M 1066 352 L 1107 352 Q 1117 352 1117 362 L 1117 382 Q 1117 392 1107 392 L 1066 392 Q 1056 392 1056 382 L 1056 362 Q 1056 352 1066 352 Z" stroke-miterlimit="10"/></g><g transform="translate(-6,-14) scale(1,1)"><g><path fill="none" stroke="none"/><text fill="#000000" stroke="none" font-family="Arial" font-size="13px" font-style="normal" font-weight="bold" text-decoration="none" x="1060.5" y="371.5">修改失败</text></g></g><g transform="translate(-6,-14) scale(1,1)"><path fill="none" stroke="#000000" d="M 929 375 L 1055 373" stroke-miterlimit="10"/></g><g transform="translate(-6,-14) scale(1,1)"><path fill="none" stroke="#000000" d="M 1044.9054144831437 377.37027953829914 L 1055 373 L 1044.7717958305514 368.9523044249756" stroke-miterlimit="10"/></g><g transform="translate(-6,-14) scale(1,1)"><g><path fill="none" stroke="none"/><text fill="#000000" stroke="none" font-family="Arial" font-size="13px" font-style="normal" font-weight="normal" text-decoration="none" x="915.5" y="372.5">新排班与已有排班重复</text></g></g><g transform="translate(-6,-14) scale(1,1)"><path fill="none" stroke="#000000" d="M 1088 352 L 1088 280 L 953 280" stroke-miterlimit="10"/></g><g transform="translate(-6,-14) scale(1,1)"><path fill="none" stroke="#000000" d="M 963.1626748576241 275.790482243984 L 953 280 L 963.1626748576241 284.209517756016" stroke-miterlimit="10"/></g><g transform="translate(-6,-14) scale(1,1)"><g><path fill="none" stroke="none"/><text fill="#000000" stroke="none" font-family="Arial" font-size="13px" font-style="normal" font-weight="normal" text-decoration="none" x="1038.5" y="275.5">重新修改</text></g></g><g transform="translate(-6,-14) scale(1,1)"><path fill="#C0C0C0" stroke="none" d="M 770 567 L 833 567 Q 836 567 836 570 L 836 569 Q 836 572 833 572 L 770 572 Q 767 572 767 569 L 767 570 Q 767 567 770 567 Z" opacity="0.2"/></g><g transform="translate(-6,-14) scale(1,1)"><path fill="#000000" stroke="none" d="M 763 560 L 826 560 Q 829 560 829 563 L 829 563 Q 829 566 826 566 L 763 566 Q 760 566 760 563 L 760 563 Q 760 560 763 560 Z"/></g><g transform="translate(-6,-14) scale(1,1)"><path fill="none" stroke="#000000" d="M 724 497 L 791 559" stroke-miterlimit="10"/></g><g transform="translate(-6,-14) scale(1,1)"><path fill="none" stroke="#000000" d="M 780.681913131616 555.1872472704773 L 791 559 L 786.4000341165269 549.0079874964608" stroke-miterlimit="10"/></g><g transform="translate(-6,-14) scale(1,1)"><path fill="none" stroke="#000000" d="M 869 497 L 797 559" stroke-miterlimit="10"/></g><g transform="translate(-6,-14) scale(1,1)"><path fill="none" stroke="#000000" d="M 801.9541502310603 549.1787783097984 L 797 559 L 807.4477656800775 555.5584607667217" stroke-miterlimit="10"/></g><g transform="translate(-6,-14) scale(1,1)"><path fill="#C0C0C0" stroke="none" d="M 785 647 L 824 647 Q 834 647 834 657 L 834 677 Q 834 687 824 687 L 785 687 Q 775 687 775 677 L 775 657 Q 775 647 785 647 Z" opacity="0.2"/></g><g transform="translate(-6,-14) scale(1,1)"><path fill="#ffffff" stroke="none" d="M 778 640 L 817 640 Q 827 640 827 650 L 827 670 Q 827 680 817 680 L 778 680 Q 768 680 768 670 L 768 650 Q 768 640 778 640 Z"/></g><g transform="translate(-6,-14) scale(1,1)"><path fill="none" stroke="#000000" d="M 778 640 L 817 640 Q 827 640 827 650 L 827 670 Q 827 680 817 680 L 778 680 Q 768 680 768 670 L 768 650 Q 768 640 778 640 Z" stroke-miterlimit="10"/></g><g transform="translate(-6,-14) scale(1,1)"><g><path fill="none" stroke="none"/><text fill="#000000" stroke="none" font-family="Arial" font-size="13px" font-style="normal" font-weight="bold" text-decoration="none" x="784.5" y="659.5">确定</text></g></g><g transform="translate(-6,-14) scale(1,1)"><path fill="none" stroke="#000000" d="M 794 566 L 796 639" stroke-miterlimit="10"/></g><g transform="translate(-6,-14) scale(1,1)"><path fill="none" stroke="#000000" d="M 791.513736196941 628.9564230928736 L 796 639 L 799.9296137810629 628.7258511042676" stroke-miterlimit="10"/></g><g transform="translate(-6,-14) scale(1,1)"><g><path fill="none" stroke="none"/><text fill="#000000" stroke="none" font-family="Arial" font-size="13px" font-style="normal" font-weight="normal" text-decoration="none" x="782.5" y="607.5">编辑结束</text></g></g><g transform="translate(-6,-14) scale(1,1)"><path fill="#C0C0C0" stroke="none" d="M 791 763.5 C 791 756.59644 796.59644 751 803.5 751 C 810.40356 751 816 756.59644 816 763.5 C 816 770.40356 810.40356 776 803.5 776 C 796.59644 776 791 770.40356 791 763.5 Z" opacity="0.2"/></g><g transform="translate(-6,-14) scale(1,1)"><path fill="none" stroke="#000000" d="M 784 756.5 C 784 749.59644 789.59644 744 796.5 744 C 803.40356 744 809 749.59644 809 756.5 C 809 763.40356 803.40356 769 796.5 769 C 789.59644 769 784 763.40356 784 756.5 Z" stroke-miterlimit="10"/></g><g transform="translate(-6,-14) scale(1,1)"><path fill="#000000" stroke="none" d="M 789 756.5 C 789 752.357864 792.357864 749 796.5 749 C 800.642136 749 804 752.357864 804 756.5 C 804 760.642136 800.642136 764 796.5 764 C 792.357864 764 789 760.642136 789 756.5 Z"/></g><g transform="translate(-6,-14) scale(1,1)"><path fill="#C0C0C0" stroke="none" d="M 145 255 L 212 255 Q 222 255 222 265 L 222 285 Q 222 295 212 295 L 145 295 Q 135 295 135 285 L 135 265 Q 135 255 145 255 Z" opacity="0.2"/></g><g transform="translate(-6,-14) scale(1,1)"><path fill="#ffffff" stroke="none" d="M 138 248 L 205 248 Q 215 248 215 258 L 215 278 Q 215 288 205 288 L 138 288 Q 128 288 128 278 L 128 258 Q 128 248 138 248 Z"/></g><g transform="translate(-6,-14) scale(1,1)"><path fill="none" stroke="#000000" d="M 138 248 L 205 248 Q 215 248 215 258 L 215 278 Q 215 288 205 288 L 138 288 Q 128 288 128 278 L 128 258 Q 128 248 138 248 Z" stroke-miterlimit="10"/></g><g transform="translate(-6,-14) scale(1,1)"><g><path fill="none" stroke="none"/><text fill="#000000" stroke="none" font-family="Arial" font-size="13px" font-style="normal" font-weight="bold" text-decoration="none" x="132.5" y="267.5">选择排班班次</text></g></g><g transform="translate(-6,-14) scale(1,1)"><path fill="none" stroke="#000000" d="M 171 185 L 171 247" stroke-miterlimit="10"/></g><g transform="translate(-6,-14) scale(1,1)"><path fill="none" stroke="#000000" d="M 166.790482243984 236.83732514237585 L 171 247 L 175.209517756016 236.83732514237585" stroke-miterlimit="10"/></g><g transform="translate(-6,-14) scale(1,1)"><path fill="none" stroke="#000000" d="M 168 401 L 168 503" stroke-miterlimit="10"/></g><g transform="translate(-6,-14) scale(1,1)"><path fill="none" stroke="#000000" d="M 163.790482243984 492.83732514237585 L 168 503 L 172.209517756016 492.83732514237585" stroke-miterlimit="10"/></g><g transform="translate(-6,-14) scale(1,1)"><g><path fill="none" stroke="none"/><text fill="#000000" stroke="none" font-family="Arial" font-size="13px" font-style="normal" font-weight="normal" text-decoration="none" x="142.5" y="457.5">远程添加排班</text></g></g><g transform="translate(-6,-14) scale(1,1)"><path fill="none" stroke="#000000" d="M 169 553 L 171 615" stroke-miterlimit="10"/></g><g transform="translate(-6,-14) scale(1,1)"><path fill="none" stroke="#000000" d="M 166.46501292387973 604.9783288709207 L 171 615 L 174.87967150007543 604.7068882716885" stroke-miterlimit="10"/></g><g transform="translate(-6,-14) scale(1,1)"><g><path fill="none" stroke="none"/><text fill="#000000" stroke="none" font-family="Arial" font-size="13px" font-style="normal" font-weight="normal" text-decoration="none" x="170.5" y="589.5">结束</text></g></g><g transform="translate(-6,-14) scale(1,1)"><path fill="none" stroke="#000000" d="M 700 393 L 701 455" stroke-miterlimit="10"/></g><g transform="translate(-6,-14) scale(1,1)"><path fill="none" stroke="#000000" d="M 696.6271368871173 444.90653339055456 L 701 455 L 705.045077524899 444.7707601544613" stroke-miterlimit="10"/></g><g transform="translate(-6,-14) scale(1,1)"><path fill="none" stroke="#000000" d="M 899 393 L 894 455" stroke-miterlimit="10"/></g><g transform="translate(-6,-14) scale(1,1)"><path fill="none" stroke="#000000" d="M 890.6210228186745 444.5318333406426 L 894 455 L 899.0128139530327 445.20859069018763" stroke-miterlimit="10"/></g><g transform="translate(-6,-14) scale(1,1)"><path fill="none" stroke="#000000" d="M 797 681 L 796 743" stroke-miterlimit="10"/></g><g transform="translate(-6,-14) scale(1,1)"><path fill="none" stroke="#000000" d="M 791.954922475101 732.7707601544613 L 796 743 L 800.3728631128827 732.9065333905545" stroke-miterlimit="10"/></g><g transform="translate(-6,-14) scale(1,1)"><g><path fill="none" stroke="none"/><text fill="#000000" stroke="none" font-family="Arial" font-size="13px" font-style="normal" font-weight="normal" text-decoration="none" x="796.5" y="717.5">结束</text></g></g></g></svg>